<svg id="logo" xmlns="http://www.w3.org/2000/svg" width="284.77" height="39.92" viewBox="0 0 284.77 39.92">
  <g id="logo-symble">
    <g id="Group_108" data-name="Group 108">
      <path id="Path_790" data-name="Path 790" d="M560.557-599.377c-.167-.077-.244-.118-.22-.325a1.585,1.585,0,0,0-.342-1.229,7.024,7.024,0,0,0,.082-1.052A7.05,7.05,0,0,0,560-603a1.587,1.587,0,0,0,.337-1.224c-.024-.207.053-.247.22-.324a1.2,1.2,0,0,0,.468-.411.612.612,0,0,0-.259-.774c-.248-.15-.66-.034-.694.167s.3.1.414.087c.236-.026.29.132.268.281a.527.527,0,0,1-.22.368.581.581,0,0,1-.456-.04c-.137-.078-.213-.253-.33-.374-.144-.148-.14-.251,0-.42a1.5,1.5,0,0,0,.166-1.828,2.161,2.161,0,0,0-1.321-1.085,1.611,1.611,0,0,1-.918-.993.7.7,0,0,1,.1-.565,1.158,1.158,0,0,1,1.266-.477.95.95,0,0,1,.625,1.194c-.044.1-.356.088-.381.021s.067-.211-.066-.229a.25.25,0,0,0-.259.14.459.459,0,0,0,0,.37.492.492,0,0,0,.357.175.634.634,0,0,0,.639-.383.973.973,0,0,0-.1-.99,1.476,1.476,0,0,0-2.411.138c-.068.108-.13.221-.22.372-.093-.125-.167-.214-.229-.312-.378-.6-.728-1.211-1.137-1.786a5.535,5.535,0,0,0-1.016-1.154,4.85,4.85,0,0,0-.813-.429c-.162-.015-.29-.035-.42-.038a1.31,1.31,0,0,0-.2.009,1.343,1.343,0,0,0,.009-.2c0-.129-.023-.258-.039-.419a4.88,4.88,0,0,0-.429-.813,5.526,5.526,0,0,0-1.154-1.016c-.574-.408-1.189-.759-1.785-1.136-.1-.062-.186-.137-.312-.229.153-.09.265-.151.372-.22a1.475,1.475,0,0,0,.138-2.41.97.97,0,0,0-.99-.1.634.634,0,0,0-.383.638.49.49,0,0,0,.175.357.455.455,0,0,0,.369,0,.25.25,0,0,0,.141-.259c-.018-.132-.154-.038-.228-.066s-.076-.337.02-.381a.951.951,0,0,1,1.194.626,1.161,1.161,0,0,1-.476,1.266.7.7,0,0,1-.565.1,1.61,1.61,0,0,1-.992-.918,2.168,2.168,0,0,0-1.086-1.322,1.5,1.5,0,0,0-1.828.167c-.17.141-.273.145-.421,0-.119-.117-.3-.193-.372-.33a.581.581,0,0,1-.041-.456.526.526,0,0,1,.368-.22c.149-.022.307.033.281.268-.013.117-.113.447.087.414s.315-.446.167-.694a.612.612,0,0,0-.775-.259,1.217,1.217,0,0,0-.41.468c-.077.167-.118.244-.325.219a1.6,1.6,0,0,0-1.171.3,7.045,7.045,0,0,0-1.118-.091,7.05,7.05,0,0,0-1.068.084,1.6,1.6,0,0,0-1.162-.293c-.206.025-.247-.052-.324-.219a1.215,1.215,0,0,0-.41-.468.612.612,0,0,0-.775.259c-.149.248-.033.66.167.694s.1-.3.087-.414c-.026-.235.132-.29.281-.268a.525.525,0,0,1,.368.22.581.581,0,0,1-.041.456c-.076.136-.253.213-.372.33-.148.144-.251.14-.421,0a1.5,1.5,0,0,0-1.828-.167,2.167,2.167,0,0,0-1.086,1.322,1.611,1.611,0,0,1-.992.918.7.7,0,0,1-.565-.1,1.161,1.161,0,0,1-.476-1.266.951.951,0,0,1,1.194-.626c.1.045.088.357.02.381s-.211-.066-.228.066a.249.249,0,0,0,.141.259.454.454,0,0,0,.369,0,.49.49,0,0,0,.175-.357.634.634,0,0,0-.383-.638.97.97,0,0,0-.99.1,1.475,1.475,0,0,0,.138,2.41c.108.069.22.13.372.22-.126.092-.215.167-.312.229-.6.377-1.211.728-1.786,1.136a5.519,5.519,0,0,0-1.153,1.016,4.852,4.852,0,0,0-.429.813c-.016.161-.034.291-.039.419a1.343,1.343,0,0,0,.009.2,1.308,1.308,0,0,0-.2-.009c-.129,0-.258.023-.42.038a4.859,4.859,0,0,0-.813.429,5.519,5.519,0,0,0-1.016,1.154c-.409.574-.759,1.19-1.137,1.786-.062.1-.137.186-.229.312-.09-.152-.151-.264-.22-.372a1.475,1.475,0,0,0-2.411-.138.973.973,0,0,0-.1.99.634.634,0,0,0,.639.383.491.491,0,0,0,.356-.175.459.459,0,0,0,0-.37.25.25,0,0,0-.259-.14c-.133.018-.039.155-.066.229s-.337.076-.381-.021a.95.95,0,0,1,.625-1.194,1.158,1.158,0,0,1,1.266.477.7.7,0,0,1,.1.565,1.612,1.612,0,0,1-.918.993,2.162,2.162,0,0,0-1.322,1.085,1.5,1.5,0,0,0,.166,1.828c.141.169.145.273,0,.42-.117.12-.193.3-.33.374a.582.582,0,0,1-.457.04.527.527,0,0,1-.22-.368c-.022-.149.033-.307.268-.281.116.013.448.113.414-.087s-.446-.317-.693-.167a.611.611,0,0,0-.26.774,1.2,1.2,0,0,0,.468.411c.167.077.244.117.22.324a1.6,1.6,0,0,0,.286,1.154,7.041,7.041,0,0,0-.086,1.085,7.047,7.047,0,0,0,.091,1.121,1.6,1.6,0,0,0-.291,1.16c.024.207-.053.247-.22.325a1.2,1.2,0,0,0-.468.411.611.611,0,0,0,.26.774c.248.15.66.034.693-.167s-.3-.1-.414-.087c-.235.027-.29-.132-.268-.281a.528.528,0,0,1,.22-.368.582.582,0,0,1,.457.04c.137.077.213.253.33.373.144.148.14.251,0,.421a1.5,1.5,0,0,0-.166,1.828,2.162,2.162,0,0,0,1.322,1.085,1.612,1.612,0,0,1,.918.993.7.7,0,0,1-.1.565,1.159,1.159,0,0,1-1.266.477.95.95,0,0,1-.625-1.194c.044-.1.356-.088.381-.021s-.067.211.066.229a.25.25,0,0,0,.259-.14.459.459,0,0,0,0-.37.49.49,0,0,0-.356-.175.634.634,0,0,0-.639.383.973.973,0,0,0,.1.99,1.475,1.475,0,0,0,2.411-.138c.068-.108.13-.22.22-.372.092.125.167.214.229.312.378.6.728,1.211,1.137,1.786a5.528,5.528,0,0,0,1.016,1.154,4.859,4.859,0,0,0,.813.429c.161.015.29.035.42.038a1.324,1.324,0,0,0,.2-.009,1.339,1.339,0,0,0-.009.2c0,.129.023.258.039.42a4.849,4.849,0,0,0,.429.812,5.51,5.51,0,0,0,1.153,1.017c.574.408,1.189.759,1.786,1.136.1.062.186.137.312.229-.152.09-.264.151-.372.22a1.475,1.475,0,0,0-.138,2.41.971.971,0,0,0,.99.1.635.635,0,0,0,.383-.638.49.49,0,0,0-.175-.356.454.454,0,0,0-.369,0,.249.249,0,0,0-.141.259c.018.132.155.038.228.066s.076.337-.02.382a.952.952,0,0,1-1.194-.626,1.161,1.161,0,0,1,.476-1.266.7.7,0,0,1,.565-.1,1.611,1.611,0,0,1,.992.918,2.168,2.168,0,0,0,1.086,1.322,1.5,1.5,0,0,0,1.828-.167c.17-.14.273-.145.421,0,.119.117.3.193.372.33a.581.581,0,0,1,.041.456.526.526,0,0,1-.368.22c-.149.022-.307-.033-.281-.268.013-.117.114-.447-.087-.414s-.316.446-.167.694a.611.611,0,0,0,.775.259,1.214,1.214,0,0,0,.41-.468c.077-.167.118-.244.324-.219a1.594,1.594,0,0,0,1.216-.329,7.029,7.029,0,0,0,1.015.078,7.042,7.042,0,0,0,1.067-.084,1.59,1.59,0,0,0,1.222.336c.207-.025.247.053.325.219a1.217,1.217,0,0,0,.41.468.611.611,0,0,0,.775-.259c.149-.247.033-.66-.167-.694s-.1.3-.087.414c.026.235-.132.29-.281.268a.527.527,0,0,1-.368-.22.581.581,0,0,1,.041-.456c.076-.136.253-.213.372-.33.148-.145.251-.14.421,0a1.5,1.5,0,0,0,1.828.167,2.168,2.168,0,0,0,1.086-1.322,1.611,1.611,0,0,1,.992-.918.7.7,0,0,1,.565.1,1.161,1.161,0,0,1,.476,1.266.951.951,0,0,1-1.194.626c-.1-.045-.088-.357-.02-.382s.21.066.228-.066a.25.25,0,0,0-.141-.259.454.454,0,0,0-.369,0,.49.49,0,0,0-.175.356.634.634,0,0,0,.383.638.971.971,0,0,0,.99-.1,1.475,1.475,0,0,0-.138-2.41c-.108-.069-.22-.13-.372-.22.126-.092.215-.167.312-.229.6-.377,1.211-.728,1.785-1.136a5.517,5.517,0,0,0,1.154-1.017,4.876,4.876,0,0,0,.429-.812c.015-.161.034-.291.039-.42a1.339,1.339,0,0,0-.009-.2,1.327,1.327,0,0,0,.2.009c.129,0,.258-.023.42-.038a4.85,4.85,0,0,0,.813-.429,5.544,5.544,0,0,0,1.016-1.154c.408-.574.759-1.19,1.137-1.786.062-.1.136-.186.229-.312.09.152.151.264.22.372a1.475,1.475,0,0,0,2.411.138.973.973,0,0,0,.1-.99.634.634,0,0,0-.639-.383.491.491,0,0,0-.357.175.459.459,0,0,0,0,.37.25.25,0,0,0,.259.14c.133-.018.039-.155.066-.229s.337-.076.381.021a.95.95,0,0,1-.625,1.194,1.158,1.158,0,0,1-1.266-.477.7.7,0,0,1-.1-.565,1.611,1.611,0,0,1,.918-.993,2.161,2.161,0,0,0,1.321-1.085,1.5,1.5,0,0,0-.166-1.828c-.141-.17-.145-.273,0-.421.117-.12.193-.3.33-.373a.581.581,0,0,1,.456-.04.527.527,0,0,1,.22.368c.022.15-.033.308-.268.281-.116-.013-.448-.113-.414.087s.446.317.694.167a.612.612,0,0,0,.259-.774A1.2,1.2,0,0,0,560.557-599.377Z" transform="translate(-521.906 621.921)" fill-rule="evenodd"/>
      <path id="Path_791" data-name="Path 791" d="M542.32-584.76a1.122,1.122,0,0,1-.63-.187,2,2,0,0,1-.545-.549,2.332,2.332,0,0,1-1.185-.317,7.315,7.315,0,0,1-1.711,0,2.331,2.331,0,0,1-1.178.313,2.007,2.007,0,0,1-.544.548,1.166,1.166,0,0,1-.915.156,1.442,1.442,0,0,1-.909-.649,1.156,1.156,0,0,1-.116-.263,2.386,2.386,0,0,1-1.361-.318,3.17,3.17,0,0,1-.592-.413,1.3,1.3,0,0,1-.61.49,1.708,1.708,0,0,1-1.7-.189,2.139,2.139,0,0,1-.863-1.8,2.26,2.26,0,0,1,.529-1.383c-.411-.252-.836-.513-1.244-.8a6.2,6.2,0,0,1-1.306-1.162,4.177,4.177,0,0,1-.33-.552,2.043,2.043,0,0,1-.256-.625,2.028,2.028,0,0,1-.625-.256,4.245,4.245,0,0,1-.551-.328,6.2,6.2,0,0,1-1.162-1.307c-.291-.409-.552-.833-.8-1.245a2.261,2.261,0,0,1-1.383.53,2.133,2.133,0,0,1-1.8-.863,1.713,1.713,0,0,1-.189-1.7,1.305,1.305,0,0,1,.49-.61,3.175,3.175,0,0,1-.412-.59,2.4,2.4,0,0,1-.319-1.362,1.183,1.183,0,0,1-.264-.117,1.443,1.443,0,0,1-.647-.909,1.166,1.166,0,0,1,.155-.913,1.987,1.987,0,0,1,.549-.545,2.346,2.346,0,0,1,.273-1.1,7.743,7.743,0,0,1-.06-.958,7.712,7.712,0,0,1,.057-.921,2.351,2.351,0,0,1-.27-1.093,2,2,0,0,1-.55-.547,1.165,1.165,0,0,1-.154-.911,1.444,1.444,0,0,1,.649-.91,1.161,1.161,0,0,1,.263-.116,2.4,2.4,0,0,1,.318-1.362,3.167,3.167,0,0,1,.412-.59,1.306,1.306,0,0,1-.489-.61,1.713,1.713,0,0,1,.188-1.705,2.141,2.141,0,0,1,1.8-.863,2.26,2.26,0,0,1,1.383.529c.252-.411.512-.836.8-1.245a6.214,6.214,0,0,1,1.16-1.306,4.242,4.242,0,0,1,.553-.33,2.032,2.032,0,0,1,.625-.256,2.042,2.042,0,0,1,.256-.625,4.179,4.179,0,0,1,.33-.552,6.2,6.2,0,0,1,1.306-1.161c.409-.291.834-.551,1.245-.8a2.26,2.26,0,0,1-.529-1.383,2.14,2.14,0,0,1,.864-1.8,1.711,1.711,0,0,1,1.7-.188,1.3,1.3,0,0,1,.609.489,3.17,3.17,0,0,1,.59-.412,2.407,2.407,0,0,1,1.363-.319A1.172,1.172,0,0,1,534.7-624a1.441,1.441,0,0,1,.909-.648,1.166,1.166,0,0,1,.914.155,2,2,0,0,1,.545.549,2.356,2.356,0,0,1,1.105.275,7.584,7.584,0,0,1,1.853,0,2.349,2.349,0,0,1,1.115-.28,2,2,0,0,1,.543-.549,1.167,1.167,0,0,1,.915-.156,1.443,1.443,0,0,1,.91.649,1.186,1.186,0,0,1,.116.262,2.391,2.391,0,0,1,1.361.318,3.182,3.182,0,0,1,.592.413,1.3,1.3,0,0,1,.61-.49,1.71,1.71,0,0,1,1.7.189,2.138,2.138,0,0,1,.863,1.8,2.26,2.26,0,0,1-.529,1.383c.411.252.836.513,1.244.8a6.215,6.215,0,0,1,1.306,1.162,4.2,4.2,0,0,1,.33.552,2.045,2.045,0,0,1,.256.625,2.03,2.03,0,0,1,.625.256,4.225,4.225,0,0,1,.551.329,6.213,6.213,0,0,1,1.162,1.307c.291.409.551.834.8,1.245a2.259,2.259,0,0,1,1.382-.529,2.136,2.136,0,0,1,1.8.863,1.712,1.712,0,0,1,.189,1.7,1.305,1.305,0,0,1-.49.61,3.151,3.151,0,0,1,.412.59,2.4,2.4,0,0,1,.319,1.362,1.186,1.186,0,0,1,.264.117,1.444,1.444,0,0,1,.647.909,1.166,1.166,0,0,1-.156.913,1.98,1.98,0,0,1-.549.545,2.322,2.322,0,0,1-.32,1.19,7.416,7.416,0,0,1,.047.825,7.473,7.473,0,0,1-.051.863,2.32,2.32,0,0,1,.324,1.195,1.994,1.994,0,0,1,.55.547,1.165,1.165,0,0,1,.154.911,1.444,1.444,0,0,1-.649.91,1.153,1.153,0,0,1-.263.116,2.4,2.4,0,0,1-.318,1.362,3.157,3.157,0,0,1-.412.59,1.306,1.306,0,0,1,.489.61,1.713,1.713,0,0,1-.188,1.705,2.149,2.149,0,0,1-1.8.863,2.26,2.26,0,0,1-1.382-.529c-.252.411-.513.836-.8,1.244a6.206,6.206,0,0,1-1.16,1.306,4.226,4.226,0,0,1-.553.33,2.029,2.029,0,0,1-.625.256,2.046,2.046,0,0,1-.256.625,4.221,4.221,0,0,1-.33.552,6.213,6.213,0,0,1-1.306,1.162c-.409.29-.833.551-1.245.8a2.259,2.259,0,0,1,.529,1.383,2.138,2.138,0,0,1-.864,1.8,1.709,1.709,0,0,1-1.705.188,1.3,1.3,0,0,1-.609-.489,3.17,3.17,0,0,1-.59.412,2.411,2.411,0,0,1-1.363.319,1.176,1.176,0,0,1-.115.263,1.444,1.444,0,0,1-.909.648A1.3,1.3,0,0,1,542.32-584.76ZM536.779-587a1.3,1.3,0,0,1,.157.01.86.86,0,0,0,.658-.167l.253-.207.323.047a6.267,6.267,0,0,0,.908.07,6.347,6.347,0,0,0,.955-.076l.329-.051.256.213a.854.854,0,0,0,.663.17,1.06,1.06,0,0,1,.167-.01,1.548,1.548,0,0,1,.354-.325.779.779,0,0,0,.069-.051.983.983,0,0,1,1.41-.038.77.77,0,0,0,1,.086,1.421,1.421,0,0,0,.731-.888,1.893,1.893,0,0,1,.731-1l-.142-.084.906-.666c.04-.029.076-.057.11-.083.087-.066.163-.124.244-.175.193-.122.386-.24.579-.358.413-.253.8-.492,1.175-.757a4.9,4.9,0,0,0,1-.872c.043-.064.208-.368.283-.523l.006-.056c.009-.078.017-.149.02-.219a.7.7,0,0,0,0-.087l-.105-.926.925.105a.593.593,0,0,0,.086,0c.073,0,.139-.01.213-.018l.065-.007c.155-.075.461-.242.537-.294a4.94,4.94,0,0,0,.856-.99c.263-.37.5-.757.751-1.166.12-.2.241-.392.364-.586.052-.082.11-.16.178-.249l.08-.106.666-.9.082.14a1.9,1.9,0,0,1,1-.734,1.418,1.418,0,0,0,.888-.731.769.769,0,0,0-.086-1,.985.985,0,0,1,.039-1.413c.016-.018.032-.043.049-.067a1.544,1.544,0,0,1,.325-.354,1.313,1.313,0,0,1,.009-.165.852.852,0,0,0-.173-.668l-.215-.256.05-.331a6.3,6.3,0,0,0,.074-.942,6.2,6.2,0,0,0-.07-.907l-.047-.327.212-.254a.851.851,0,0,0,.171-.663,1.308,1.308,0,0,1-.009-.168,1.552,1.552,0,0,1-.326-.354.8.8,0,0,0-.052-.07.983.983,0,0,1-.036-1.409.77.77,0,0,0,.086-1,1.418,1.418,0,0,0-.887-.731,1.9,1.9,0,0,1-1-.733l-.082.14-.666-.9-.08-.106c-.068-.089-.126-.167-.178-.249-.124-.195-.244-.391-.364-.587-.251-.41-.488-.8-.751-1.166a4.9,4.9,0,0,0-.872-1c-.063-.043-.366-.207-.521-.283l-.064-.007c-.074-.008-.14-.017-.207-.018a.567.567,0,0,0-.091,0l-.927.107.105-.927a.706.706,0,0,0,0-.087c0-.07-.011-.141-.02-.22l-.006-.055c-.075-.155-.241-.461-.294-.537a4.918,4.918,0,0,0-.99-.857c-.372-.264-.761-.5-1.174-.756-.194-.119-.387-.237-.578-.358-.081-.052-.158-.109-.245-.175l-.11-.083-.906-.666.143-.084a1.893,1.893,0,0,1-.733-1,1.423,1.423,0,0,0-.732-.887.769.769,0,0,0-1,.086.985.985,0,0,1-1.414-.039.781.781,0,0,0-.067-.049,1.552,1.552,0,0,1-.353-.325,1.211,1.211,0,0,1-.169-.009.859.859,0,0,0-.635.153l-.253.192-.313-.05a6.192,6.192,0,0,0-1.957-.006l-.307.047-.249-.186a.861.861,0,0,0-.632-.15,1.11,1.11,0,0,1-.167.01,1.543,1.543,0,0,1-.353.325.763.763,0,0,0-.069.051.984.984,0,0,1-1.41.039.77.77,0,0,0-1-.087,1.421,1.421,0,0,0-.731.888,1.894,1.894,0,0,1-.732,1l.143.084-.906.666-.11.083c-.087.066-.163.123-.243.174-.193.122-.386.241-.58.359-.412.253-.8.492-1.174.756a4.887,4.887,0,0,0-1,.872c-.043.064-.208.367-.283.523l-.006.055c-.009.079-.017.149-.019.219a.6.6,0,0,0,0,.087l.105.927-.927-.107a.661.661,0,0,0-.085,0c-.073,0-.14.01-.213.019l-.064.007c-.155.075-.461.242-.537.294a4.92,4.92,0,0,0-.856.99c-.263.369-.5.756-.751,1.166-.12.2-.241.393-.364.587-.052.082-.11.16-.178.249l-.08.106-.666.9-.083-.14a1.9,1.9,0,0,1-1,.733,1.418,1.418,0,0,0-.888.731.769.769,0,0,0,.085,1,.985.985,0,0,1-.039,1.413.8.8,0,0,0-.049.067,1.557,1.557,0,0,1-.325.354,1.325,1.325,0,0,1-.009.165.866.866,0,0,0,.147.629l.183.248-.047.305a6.321,6.321,0,0,0-.078.971,6.338,6.338,0,0,0,.081,1l.05.31-.187.251a.863.863,0,0,0-.149.63,1.325,1.325,0,0,1,.009.168,1.551,1.551,0,0,1,.326.354.8.8,0,0,0,.052.07.983.983,0,0,1,.036,1.409.769.769,0,0,0-.085,1,1.416,1.416,0,0,0,.887.73,1.9,1.9,0,0,1,1,.734l.083-.14.666.9.08.106c.068.089.126.167.178.249.123.194.243.391.364.587.251.41.488.8.751,1.166a4.9,4.9,0,0,0,.872,1c.063.043.366.207.521.283l.065.007c.074.008.14.016.206.018a.57.57,0,0,0,.092,0l.926-.105-.105.926a.59.59,0,0,0,0,.087c0,.071.011.141.019.219l.006.056c.075.156.242.462.294.538a4.91,4.91,0,0,0,.991.857c.372.264.762.5,1.175.757.193.118.386.237.577.358.082.052.158.109.245.176.034.026.069.054.109.083l.906.666-.142.084a1.9,1.9,0,0,1,.732,1,1.421,1.421,0,0,0,.732.887.768.768,0,0,0,1-.086.985.985,0,0,1,1.414.04c.018.016.043.032.066.049a1.535,1.535,0,0,1,.354.325Zm10.049-.614Zm-15.44,0ZM556.219-597ZM522-597Zm34.222-15.442Zm-34.222,0Zm24.831-9.389Zm-15.44,0Z" transform="translate(-519.148 624.68)"/>
    </g>
    <g id="Group_121" data-name="Group 121" transform="translate(0.758 0.745)">
      <g id="Group_111" data-name="Group 111" transform="translate(0 7.66)">
        <g id="Group_109" data-name="Group 109">
          <path id="Path_792" data-name="Path 792" d="M527.918-574.232a.258.258,0,0,0,.124-.35c-.1-.169-.431-.047-.7.2a1.731,1.731,0,0,1-1.5.313,4.919,4.919,0,0,1-1.25-.378,1.153,1.153,0,0,1-.461-1.652c.111-.219.248-.392.529-.312a.56.56,0,0,1,.462.562c-.006.554-.384.544-.4.528-.088-.1-.339-.546-.447-.146a.391.391,0,0,0,.245.429.529.529,0,0,0,.607-.1.9.9,0,0,0,.312-.7.9.9,0,0,0-.554-.822.48.48,0,0,1-.392-.437.918.918,0,0,0-.25-.382,1.021,1.021,0,0,1-.181-1.108,1.931,1.931,0,0,1,1.194-1.213c.142-.048.276-.118.459-.2-.124.42-.246.792-.342,1.17a2.856,2.856,0,0,0,1.456,3.131,3.178,3.178,0,0,0,.942.167c.076.009.162-.066.244-.1l-.025-.085a3,3,0,0,1-.655-.055,2.428,2.428,0,0,1-1.7-2.777,3.511,3.511,0,0,1,.857-2.139,2.783,2.783,0,0,1,1.861-1.165.967.967,0,0,1,.957.348.812.812,0,0,1-.06,1,.9.9,0,0,1-.3.3,1.508,1.508,0,0,0-1.115-.571c-.061,0-.122-.085-.182-.132a1.743,1.743,0,0,1,.277-.344c.06-.046.191,0,.288.01.018,0-.031.15.032.222a.442.442,0,0,0,.4.109.319.319,0,0,0,.179-.37.474.474,0,0,0-.253-.308.887.887,0,0,0-1.179.524,2.525,2.525,0,0,1-.657,1,3.352,3.352,0,0,0-.781,1.783,2.29,2.29,0,0,0,1.531,2.258c.141.027.114-.1.278-.141a1.967,1.967,0,0,1-1.55-1.681,1.412,1.412,0,0,1,0-.593,3.4,3.4,0,0,1,.771-1.63c.255-.26.319-.292.545,0a.979.979,0,0,0,1.019.35,1.1,1.1,0,0,1-.791,1.138.68.68,0,0,1-.566-.124.4.4,0,0,1-.028-.527c.046-.119.159-.061.187-.045l.329.19c.147.033.273-.075.117-.258a.618.618,0,0,0-.353-.236.63.63,0,0,0-.579.725.583.583,0,0,0,.678.541,1.276,1.276,0,0,0,1.112-.846,2.421,2.421,0,0,1,.616-1.053,1.063,1.063,0,0,0,.022-1.635c-.206-.2-.429-.176-.714-.281a1.993,1.993,0,0,0-.435-.048c.126-.158.2-.263.288-.355a5.116,5.116,0,0,0,1.019-1.717.807.807,0,0,1,1.063-.505.778.778,0,0,1,.611.952c-.077.37-.179.773-.622.884-.11.028-.253-.081-.381-.126-.1-.29.228-.172.3-.3a.479.479,0,0,0,.1-.326c-.075-.073-.146-.2-.227-.205a.442.442,0,0,0-.332.122.756.756,0,0,0,.059.985.85.85,0,0,0,1.035-.227,2.3,2.3,0,0,0,.293-.942A1.042,1.042,0,0,0,530.2-585c-.129,0-.258.023-.42.038a4.865,4.865,0,0,0-.813.429,5.522,5.522,0,0,0-1.016,1.154c-.409.574-.759,1.19-1.137,1.786-.062.1-.136.186-.229.311-.09-.152-.151-.264-.22-.372a1.475,1.475,0,0,0-2.411-.138.973.973,0,0,0-.1.99.635.635,0,0,0,.639.383.491.491,0,0,0,.357-.175.458.458,0,0,0,0-.37.25.25,0,0,0-.259-.14c-.132.018-.039.155-.066.228s-.337.076-.381-.021a.95.95,0,0,1,.625-1.194,1.159,1.159,0,0,1,1.266.477.7.7,0,0,1,.1.565,1.612,1.612,0,0,1-.918.993,2.162,2.162,0,0,0-1.322,1.085,1.5,1.5,0,0,0,.166,1.828c.141.169.145.273,0,.421-.117.12-.193.3-.33.373a.58.58,0,0,1-.456.04.526.526,0,0,1-.22-.368c-.022-.15.033-.307.268-.281.116.013.448.113.414-.087s-.446-.317-.693-.167a.612.612,0,0,0-.26.774,1.2,1.2,0,0,0,.468.41c.167.078.244.118.22.325a1.547,1.547,0,0,0,.962,1.677A3.672,3.672,0,0,0,527.918-574.232Zm.633-5.845c-.431.189-.7.077-.857-.382C528.153-580.552,528.456-580.411,528.551-580.077ZM527.3-581.9a6.058,6.058,0,0,1,1.784-2.36A4.357,4.357,0,0,1,527.3-581.9Z" transform="translate(-522.726 585)" fill="#e8b470" fill-rule="evenodd"/>
        </g>
        <g id="Group_110" data-name="Group 110" transform="translate(0 11.784)">
          <path id="Path_793" data-name="Path 793" d="M524.436-529.025a1.548,1.548,0,0,0-.962,1.677c.024.207-.053.247-.22.325a1.207,1.207,0,0,0-.468.41.612.612,0,0,0,.26.775c.248.149.659.033.693-.167s-.3-.1-.414-.087c-.235.026-.29-.131-.268-.281a.527.527,0,0,1,.22-.367.578.578,0,0,1,.456.04c.137.078.213.254.33.373.144.148.14.252,0,.421a1.5,1.5,0,0,0-.166,1.828,2.161,2.161,0,0,0,1.322,1.085,1.61,1.61,0,0,1,.918.993.7.7,0,0,1-.1.565,1.159,1.159,0,0,1-1.266.477.95.95,0,0,1-.625-1.194c.044-.1.356-.089.381-.021s-.066.212.066.228a.25.25,0,0,0,.259-.14.457.457,0,0,0,0-.369.492.492,0,0,0-.357-.176.636.636,0,0,0-.639.383.974.974,0,0,0,.1.99,1.475,1.475,0,0,0,2.411-.139c.068-.108.13-.22.22-.372.092.125.167.214.229.311.378.6.728,1.212,1.137,1.786a5.517,5.517,0,0,0,1.016,1.154,4.844,4.844,0,0,0,.813.429c.162.015.29.034.42.039a1.042,1.042,0,0,0,1.161-1.062,2.3,2.3,0,0,0-.293-.942.851.851,0,0,0-1.035-.227.756.756,0,0,0-.059.985.443.443,0,0,0,.332.122c.082-.007.152-.133.227-.205a.478.478,0,0,0-.1-.326c-.076-.128-.4-.009-.3-.3.128-.046.271-.154.381-.126.444.111.545.514.622.885a.779.779,0,0,1-.611.952.807.807,0,0,1-1.063-.505,5.122,5.122,0,0,0-1.019-1.718c-.088-.092-.161-.2-.288-.356a2.013,2.013,0,0,0,.435-.047c.285-.106.508-.084.714-.281a1.063,1.063,0,0,0-.022-1.635,2.422,2.422,0,0,1-.616-1.053,1.277,1.277,0,0,0-1.112-.846.583.583,0,0,0-.678.54.629.629,0,0,0,.579.725.611.611,0,0,0,.353-.236c.156-.183.03-.291-.117-.258l-.329.191c-.028.016-.141.074-.187-.046a.4.4,0,0,1,.028-.526.679.679,0,0,1,.566-.124,1.105,1.105,0,0,1,.791,1.139.979.979,0,0,0-1.019.349c-.226.292-.29.259-.545,0a3.4,3.4,0,0,1-.771-1.63,1.413,1.413,0,0,1,0-.593,1.967,1.967,0,0,1,1.55-1.681c-.164-.04-.137-.169-.278-.142a2.291,2.291,0,0,0-1.531,2.259,3.353,3.353,0,0,0,.781,1.783,2.527,2.527,0,0,1,.657,1,.888.888,0,0,0,1.179.524.474.474,0,0,0,.253-.31.318.318,0,0,0-.179-.369.441.441,0,0,0-.4.109c-.063.072-.014.219-.032.222-.1.014-.229.055-.288.01a1.751,1.751,0,0,1-.277-.344c.061-.046.121-.13.182-.132a1.507,1.507,0,0,0,1.115-.571.9.9,0,0,1,.3.3.812.812,0,0,1,.06,1,.967.967,0,0,1-.957.349,2.783,2.783,0,0,1-1.861-1.165,3.511,3.511,0,0,1-.857-2.139,2.429,2.429,0,0,1,1.7-2.777,2.962,2.962,0,0,1,.655-.055l.025-.085c-.082-.037-.168-.112-.244-.1a3.143,3.143,0,0,0-.942.167,2.856,2.856,0,0,0-1.456,3.131c.1.378.218.749.342,1.169-.183-.079-.317-.15-.459-.2a1.93,1.93,0,0,1-1.194-1.213,1.021,1.021,0,0,1,.181-1.107.921.921,0,0,0,.25-.383.48.48,0,0,1,.392-.436.9.9,0,0,0,.554-.823.9.9,0,0,0-.312-.7.528.528,0,0,0-.607-.1.391.391,0,0,0-.245.429c.108.4.359-.042.447-.146.014-.016.393-.026.4.528a.56.56,0,0,1-.462.561c-.282.08-.419-.093-.529-.312a1.152,1.152,0,0,1,.461-1.651,4.825,4.825,0,0,1,1.25-.378,1.731,1.731,0,0,1,1.5.312c.269.247.6.369.7.2a.259.259,0,0,0-.124-.35A3.672,3.672,0,0,0,524.436-529.025Zm3.259,6.435c.159-.459.426-.571.857-.382C528.456-522.638,528.153-522.5,527.694-522.59Zm1.39,3.8a6.049,6.049,0,0,1-1.784-2.36A4.357,4.357,0,0,1,529.085-518.785Z" transform="translate(-522.726 529.365)" fill="#e8b470" fill-rule="evenodd"/>
        </g>
      </g>
      <g id="Group_114" data-name="Group 114" transform="translate(29.78 7.66)">
        <g id="Group_112" data-name="Group 112">
          <path id="Path_794" data-name="Path 794" d="M670.25-574.024a1.548,1.548,0,0,0,.961-1.677c-.024-.207.054-.247.219-.325a1.2,1.2,0,0,0,.469-.41.613.613,0,0,0-.259-.774c-.248-.149-.66-.034-.694.167s.3.1.414.087c.235-.026.29.131.268.281a.526.526,0,0,1-.22.368.582.582,0,0,1-.457-.04c-.136-.077-.213-.253-.329-.373-.145-.148-.14-.251,0-.421a1.5,1.5,0,0,0,.167-1.828,2.163,2.163,0,0,0-1.322-1.085,1.611,1.611,0,0,1-.918-.993.7.7,0,0,1,.1-.565,1.16,1.16,0,0,1,1.267-.477.951.951,0,0,1,.625,1.194c-.044.1-.357.088-.381.021s.067-.211-.065-.228a.252.252,0,0,0-.26.14.459.459,0,0,0,0,.37.49.49,0,0,0,.356.175.634.634,0,0,0,.639-.383.973.973,0,0,0-.1-.99,1.475,1.475,0,0,0-2.41.138c-.068.108-.131.22-.22.372-.092-.125-.166-.214-.228-.311-.378-.6-.729-1.211-1.137-1.786a5.5,5.5,0,0,0-1.016-1.154,4.871,4.871,0,0,0-.812-.429c-.162-.015-.291-.035-.42-.038a1.042,1.042,0,0,0-1.161,1.062,2.293,2.293,0,0,0,.292.942.85.85,0,0,0,1.035.227.756.756,0,0,0,.06-.985.441.441,0,0,0-.332-.122c-.081.007-.152.132-.227.205a.481.481,0,0,0,.1.326c.077.127.406.009.3.3-.127.046-.27.154-.38.126-.444-.111-.546-.514-.622-.884a.778.778,0,0,1,.611-.952.807.807,0,0,1,1.063.505,5.122,5.122,0,0,0,1.019,1.717c.088.092.161.2.288.355a1.992,1.992,0,0,0-.435.048c-.285.105-.508.084-.713.281a1.063,1.063,0,0,0,.023,1.635,2.431,2.431,0,0,1,.617,1.053,1.273,1.273,0,0,0,1.111.846.584.584,0,0,0,.678-.541.63.63,0,0,0-.579-.725.618.618,0,0,0-.353.236c-.156.183-.03.291.117.258l.33-.19c.028-.016.141-.074.187.045a.4.4,0,0,1-.027.527.682.682,0,0,1-.566.124,1.1,1.1,0,0,1-.791-1.138.979.979,0,0,0,1.019-.35c.226-.292.29-.26.544,0a3.411,3.411,0,0,1,.772,1.63,1.406,1.406,0,0,1,0,.593,1.966,1.966,0,0,1-1.55,1.681c.164.04.138.169.278.141a2.291,2.291,0,0,0,1.531-2.258,3.352,3.352,0,0,0-.782-1.783,2.54,2.54,0,0,1-.656-1,.887.887,0,0,0-1.179-.524.475.475,0,0,0-.253.308.319.319,0,0,0,.179.37.443.443,0,0,0,.4-.109c.063-.072.013-.22.031-.222.1-.015.228-.056.288-.01a1.739,1.739,0,0,1,.277.344c-.061.046-.121.131-.182.132a1.507,1.507,0,0,0-1.114.571.889.889,0,0,1-.3-.3.811.811,0,0,1-.06-1,.966.966,0,0,1,.956-.348,2.781,2.781,0,0,1,1.861,1.165,3.506,3.506,0,0,1,.857,2.139,2.427,2.427,0,0,1-1.7,2.777,2.994,2.994,0,0,1-.655.055l-.025.085c.082.037.168.112.244.1a3.169,3.169,0,0,0,.941-.167,2.857,2.857,0,0,0,1.457-3.131c-.1-.378-.218-.75-.342-1.17.183.08.317.15.458.2a1.932,1.932,0,0,1,1.194,1.213,1.022,1.022,0,0,1-.18,1.108.916.916,0,0,0-.25.382.481.481,0,0,1-.392.437.9.9,0,0,0-.554.822.9.9,0,0,0,.312.7.528.528,0,0,0,.606.1.391.391,0,0,0,.245-.429c-.108-.4-.359.042-.447.146-.014.016-.392.026-.4-.528a.56.56,0,0,1,.462-.562c.282-.08.419.093.529.312a1.153,1.153,0,0,1-.46,1.652,4.919,4.919,0,0,1-1.25.378,1.731,1.731,0,0,1-1.495-.313c-.269-.248-.6-.369-.7-.2a.259.259,0,0,0,.124.35A3.672,3.672,0,0,0,670.25-574.024Zm-3.259-6.435c-.158.459-.426.57-.857.382C666.229-580.411,666.533-580.552,666.991-580.459Zm-1.39-3.8a6.056,6.056,0,0,1,1.785,2.36A4.359,4.359,0,0,1,665.6-584.264Z" transform="translate(-663.319 585)" fill="#e8b470" fill-rule="evenodd"/>
        </g>
        <g id="Group_113" data-name="Group 113" transform="translate(0 11.784)">
          <path id="Path_795" data-name="Path 795" d="M666.768-528.817a.259.259,0,0,0-.124.35c.1.169.431.047.7-.2a1.73,1.73,0,0,1,1.495-.312,4.825,4.825,0,0,1,1.25.378,1.152,1.152,0,0,1,.46,1.651c-.111.22-.247.392-.529.312a.56.56,0,0,1-.462-.561c.006-.554.384-.545.4-.528.088.1.339.546.447.146a.391.391,0,0,0-.245-.429.527.527,0,0,0-.606.1.9.9,0,0,0-.312.7.9.9,0,0,0,.554.823.481.481,0,0,1,.392.436.919.919,0,0,0,.25.383,1.021,1.021,0,0,1,.18,1.107,1.931,1.931,0,0,1-1.194,1.213c-.142.048-.276.119-.458.2.123-.421.247-.791.342-1.169a2.856,2.856,0,0,0-1.457-3.131,3.134,3.134,0,0,0-.941-.167c-.076-.01-.162.065-.244.1l.025.085a2.961,2.961,0,0,1,.655.055,2.428,2.428,0,0,1,1.7,2.777,3.506,3.506,0,0,1-.857,2.139,2.781,2.781,0,0,1-1.861,1.165.966.966,0,0,1-.956-.349.811.811,0,0,1,.06-1,.9.9,0,0,1,.3-.3,1.506,1.506,0,0,0,1.114.571c.061,0,.121.085.182.132a1.747,1.747,0,0,1-.277.344c-.06.045-.191,0-.288-.01-.018,0,.031-.15-.031-.222a.443.443,0,0,0-.4-.109.318.318,0,0,0-.179.369.475.475,0,0,0,.253.31.888.888,0,0,0,1.179-.524,2.543,2.543,0,0,1,.656-1,3.353,3.353,0,0,0,.782-1.783,2.292,2.292,0,0,0-1.531-2.259c-.14-.027-.114.1-.278.142a1.966,1.966,0,0,1,1.55,1.681,1.407,1.407,0,0,1,0,.593,3.411,3.411,0,0,1-.772,1.63c-.254.259-.319.292-.544,0a.979.979,0,0,0-1.019-.349,1.1,1.1,0,0,1,.791-1.139.681.681,0,0,1,.566.124.4.4,0,0,1,.027.526c-.046.12-.159.061-.187.046l-.33-.191c-.147-.032-.273.076-.117.258a.611.611,0,0,0,.353.236.63.63,0,0,0,.579-.725.584.584,0,0,0-.678-.54,1.274,1.274,0,0,0-1.111.846,2.431,2.431,0,0,1-.617,1.053,1.063,1.063,0,0,0-.023,1.635c.206.2.429.175.713.281a2.013,2.013,0,0,0,.435.047c-.127.158-.2.264-.288.356a5.128,5.128,0,0,0-1.019,1.718.807.807,0,0,1-1.063.505.779.779,0,0,1-.611-.952c.077-.37.178-.773.622-.885.11-.028.253.08.38.126.1.29-.227.172-.3.3a.48.48,0,0,0-.1.326c.075.073.146.2.227.205a.442.442,0,0,0,.332-.122.755.755,0,0,0-.06-.985.851.851,0,0,0-1.035.227,2.291,2.291,0,0,0-.292.942,1.042,1.042,0,0,0,1.161,1.063c.129,0,.258-.023.42-.039a4.849,4.849,0,0,0,.812-.429,5.5,5.5,0,0,0,1.016-1.154c.409-.574.76-1.189,1.137-1.786.062-.1.136-.186.228-.311.09.152.152.265.22.372a1.475,1.475,0,0,0,2.41.139.974.974,0,0,0,.1-.99.636.636,0,0,0-.639-.383.492.492,0,0,0-.356.176.458.458,0,0,0,0,.369.251.251,0,0,0,.26.14c.132-.017.038-.154.065-.228s.337-.075.381.021a.951.951,0,0,1-.625,1.194,1.16,1.16,0,0,1-1.267-.477.7.7,0,0,1-.1-.565,1.609,1.609,0,0,1,.918-.993,2.162,2.162,0,0,0,1.322-1.085,1.5,1.5,0,0,0-.167-1.828c-.14-.169-.145-.273,0-.421.117-.119.193-.295.329-.373a.58.58,0,0,1,.457-.04.528.528,0,0,1,.22.367c.022.15-.033.307-.268.281-.117-.012-.448-.113-.414.087s.445.316.694.167a.613.613,0,0,0,.259-.775,1.207,1.207,0,0,0-.469-.41c-.166-.078-.243-.118-.219-.325a1.548,1.548,0,0,0-.961-1.677A3.672,3.672,0,0,0,666.768-528.817Zm-.634,5.845c.431-.189.7-.077.857.382C666.533-522.5,666.229-522.638,666.134-522.971Zm1.251,1.827a6.048,6.048,0,0,1-1.785,2.36A4.359,4.359,0,0,1,667.385-521.145Z" transform="translate(-663.319 529.365)" fill="#e8b470" fill-rule="evenodd"/>
        </g>
      </g>
      <g id="Group_117" data-name="Group 117" transform="translate(7.66 29.78)">
        <g id="Group_115" data-name="Group 115">
          <path id="Path_796" data-name="Path 796" d="M569.657-477.12a.258.258,0,0,0-.35-.125c-.169.1-.047.432.2.7a1.735,1.735,0,0,1,.313,1.5,4.887,4.887,0,0,1-.378,1.25,1.153,1.153,0,0,1-1.652.461c-.219-.111-.392-.248-.313-.529a.56.56,0,0,1,.562-.461c.554.005.545.384.528.4-.1.089-.547.339-.146.447a.39.39,0,0,0,.429-.246.527.527,0,0,0-.1-.606.9.9,0,0,0-.7-.312.9.9,0,0,0-.822.554.48.48,0,0,1-.437.391.913.913,0,0,0-.382.25,1.021,1.021,0,0,1-1.108.179,1.93,1.93,0,0,1-1.213-1.193c-.048-.142-.119-.276-.2-.459.421.124.792.247,1.17.342a2.858,2.858,0,0,0,3.13-1.457,3.2,3.2,0,0,0,.168-.942c.009-.077-.067-.162-.1-.244l-.085.025a3.047,3.047,0,0,1-.055.655,2.427,2.427,0,0,1-2.776,1.7,3.511,3.511,0,0,1-2.139-.856,2.788,2.788,0,0,1-1.165-1.862.967.967,0,0,1,.348-.956.813.813,0,0,1,1,.06.907.907,0,0,1,.3.3,1.51,1.51,0,0,0-.571,1.115c0,.062-.085.122-.131.182a1.734,1.734,0,0,1-.345-.277c-.046-.06,0-.191.01-.288,0-.018.151.031.223-.032a.439.439,0,0,0,.108-.395.316.316,0,0,0-.368-.179.473.473,0,0,0-.309.253.888.888,0,0,0,.524,1.179,2.539,2.539,0,0,1,1,.656,3.352,3.352,0,0,0,1.783.781,2.291,2.291,0,0,0,2.258-1.531c.027-.141-.1-.115-.141-.279a1.966,1.966,0,0,1-1.681,1.55,1.4,1.4,0,0,1-.593,0,3.414,3.414,0,0,1-1.63-.772c-.259-.254-.292-.319,0-.544a.979.979,0,0,0,.35-1.019,1.1,1.1,0,0,1,1.139.79.681.681,0,0,1-.125.567.4.4,0,0,1-.526.028c-.119-.045-.061-.16-.045-.188.063-.11.127-.22.19-.329.033-.147-.075-.272-.258-.117a.615.615,0,0,0-.236.353.629.629,0,0,0,.725.578.583.583,0,0,0,.54-.678,1.273,1.273,0,0,0-.845-1.111,2.418,2.418,0,0,1-1.053-.616,1.063,1.063,0,0,0-1.636-.023c-.2.205-.176.429-.281.714a1.968,1.968,0,0,0-.048.435c-.158-.126-.263-.2-.355-.287a5.133,5.133,0,0,0-1.718-1.019.807.807,0,0,1-.505-1.063.779.779,0,0,1,.952-.611c.37.078.773.179.884.623.028.109-.08.253-.126.38-.29.1-.173-.227-.3-.3a.486.486,0,0,0-.326-.1c-.072.075-.2.146-.205.227a.444.444,0,0,0,.121.332.757.757,0,0,0,.985-.06.85.85,0,0,0-.227-1.034,2.292,2.292,0,0,0-.941-.293,1.042,1.042,0,0,0-1.063,1.161c0,.129.023.259.038.42a4.856,4.856,0,0,0,.429.812,5.539,5.539,0,0,0,1.154,1.016c.574.408,1.189.759,1.785,1.137.1.062.186.136.312.228-.152.089-.265.151-.373.22a1.475,1.475,0,0,0-.138,2.411.973.973,0,0,0,.99.1.636.636,0,0,0,.383-.639.494.494,0,0,0-.175-.357.455.455,0,0,0-.369,0,.249.249,0,0,0-.141.258c.018.132.155.039.228.066s.076.337-.02.381a.95.95,0,0,1-1.194-.625,1.161,1.161,0,0,1,.476-1.266.7.7,0,0,1,.565-.1,1.609,1.609,0,0,1,.992.919,2.166,2.166,0,0,0,1.086,1.321,1.5,1.5,0,0,0,1.828-.166c.17-.141.273-.145.421,0,.119.116.3.194.373.33a.578.578,0,0,1,.041.456.526.526,0,0,1-.368.22c-.149.022-.307-.033-.281-.268.013-.116.114-.448-.087-.414s-.315.446-.167.694a.611.611,0,0,0,.775.259,1.206,1.206,0,0,0,.41-.467c.077-.167.118-.244.325-.22a1.548,1.548,0,0,0,1.678-.961A3.671,3.671,0,0,0,569.657-477.12Zm-5.845-.634c.189.431.077.7-.382.857C563.338-477.356,563.479-477.66,563.813-477.754Zm-1.827,1.251a6.066,6.066,0,0,1-2.36-1.784A4.356,4.356,0,0,1,561.986-476.5Z" transform="translate(-558.889 480.57)" fill="#e8b470" fill-rule="evenodd"/>
        </g>
        <g id="Group_116" data-name="Group 116" transform="translate(11.785)">
          <path id="Path_797" data-name="Path 797" d="M614.867-473.639a1.546,1.546,0,0,0,1.677.961c.207-.024.247.053.324.22a1.2,1.2,0,0,0,.41.467.612.612,0,0,0,.775-.259c.149-.248.034-.66-.167-.694s-.1.3-.087.414c.027.235-.132.29-.281.268a.525.525,0,0,1-.368-.22.577.577,0,0,1,.041-.456c.076-.137.252-.214.372-.33.148-.144.252-.14.421,0a1.5,1.5,0,0,0,1.828.166,2.162,2.162,0,0,0,1.085-1.321,1.611,1.611,0,0,1,.993-.919.7.7,0,0,1,.565.1,1.16,1.16,0,0,1,.477,1.266.95.95,0,0,1-1.194.625c-.1-.044-.089-.356-.021-.381s.211.066.229-.066a.25.25,0,0,0-.141-.258.454.454,0,0,0-.369,0,.492.492,0,0,0-.175.357.635.635,0,0,0,.383.639.973.973,0,0,0,.99-.1,1.476,1.476,0,0,0-.138-2.411c-.108-.069-.22-.13-.372-.22.125-.092.214-.166.311-.228.6-.378,1.212-.73,1.786-1.137a5.53,5.53,0,0,0,1.154-1.016,4.856,4.856,0,0,0,.429-.812c.016-.161.035-.291.039-.42a1.043,1.043,0,0,0-1.063-1.161,2.291,2.291,0,0,0-.942.293.849.849,0,0,0-.227,1.034.756.756,0,0,0,.984.06.444.444,0,0,0,.122-.332c-.007-.08-.132-.152-.2-.227a.488.488,0,0,0-.327.1c-.127.077-.009.405-.3.3-.046-.127-.154-.271-.126-.38.111-.444.515-.545.884-.623a.779.779,0,0,1,.952.611.807.807,0,0,1-.505,1.063,5.119,5.119,0,0,0-1.717,1.019c-.092.087-.2.161-.356.287a2,2,0,0,0-.048-.435c-.105-.285-.084-.509-.281-.714a1.062,1.062,0,0,0-1.634.023,2.43,2.43,0,0,1-1.054.616,1.275,1.275,0,0,0-.846,1.111.583.583,0,0,0,.54.678.629.629,0,0,0,.725-.578.614.614,0,0,0-.236-.353c-.182-.156-.29-.03-.258.117.064.11.127.219.19.329.016.028.074.142-.045.188a.4.4,0,0,1-.527-.028.682.682,0,0,1-.124-.567,1.1,1.1,0,0,1,1.138-.79.979.979,0,0,0,.349,1.019c.292.225.26.29,0,.544a3.408,3.408,0,0,1-1.63.772,1.4,1.4,0,0,1-.593,0,1.967,1.967,0,0,1-1.681-1.55c-.039.164-.169.137-.141.279a2.292,2.292,0,0,0,2.258,1.531,3.35,3.35,0,0,0,1.783-.781,2.54,2.54,0,0,1,1-.656.888.888,0,0,0,.524-1.179.474.474,0,0,0-.309-.253.317.317,0,0,0-.369.179.437.437,0,0,0,.108.395c.072.063.22.014.223.032.014.1.056.228.009.288a1.71,1.71,0,0,1-.344.277c-.046-.06-.13-.12-.131-.182a1.508,1.508,0,0,0-.571-1.115.9.9,0,0,1,.3-.3.811.811,0,0,1,1-.06.966.966,0,0,1,.348.956,2.788,2.788,0,0,1-1.165,1.862,3.511,3.511,0,0,1-2.139.856,2.427,2.427,0,0,1-2.777-1.7,3.063,3.063,0,0,1-.056-.655l-.084-.025c-.037.081-.112.167-.1.244a3.2,3.2,0,0,0,.168.942,2.857,2.857,0,0,0,3.13,1.457c.378-.1.749-.219,1.169-.342-.079.183-.149.317-.2.459a1.929,1.929,0,0,1-1.212,1.193,1.021,1.021,0,0,1-1.108-.179.912.912,0,0,0-.382-.25.48.48,0,0,1-.437-.391.9.9,0,0,0-.822-.554.9.9,0,0,0-.7.312.527.527,0,0,0-.1.606.391.391,0,0,0,.429.246c.4-.108-.042-.359-.146-.447-.016-.014-.027-.393.528-.4a.561.561,0,0,1,.562.461c.08.282-.093.419-.313.529a1.152,1.152,0,0,1-1.651-.461,4.837,4.837,0,0,1-.378-1.25,1.733,1.733,0,0,1,.312-1.5c.248-.268.369-.6.2-.7a.258.258,0,0,0-.35.125A3.671,3.671,0,0,0,614.867-473.639ZM621.3-476.9c-.459-.159-.571-.426-.382-.857C621.253-477.66,621.395-477.356,621.3-476.9Zm3.8-1.39a6.066,6.066,0,0,1-2.359,1.784A4.349,4.349,0,0,1,625.106-478.287Z" transform="translate(-614.526 480.57)" fill="#e8b470" fill-rule="evenodd"/>
        </g>
      </g>
      <g id="Group_120" data-name="Group 120" transform="translate(7.66)">
        <g id="Group_118" data-name="Group 118">
          <path id="Path_798" data-name="Path 798" d="M569.866-619.455a1.55,1.55,0,0,0-1.678-.962c-.207.025-.247-.053-.325-.219a1.211,1.211,0,0,0-.41-.468.612.612,0,0,0-.775.259c-.149.248-.033.66.167.694s.1-.3.087-.414c-.026-.235.132-.29.281-.268a.525.525,0,0,1,.368.22.579.579,0,0,1-.041.456c-.076.136-.253.213-.373.33-.147.145-.251.14-.421,0a1.5,1.5,0,0,0-1.828-.167,2.168,2.168,0,0,0-1.086,1.322,1.61,1.61,0,0,1-.992.918.7.7,0,0,1-.565-.1,1.161,1.161,0,0,1-.476-1.266.951.951,0,0,1,1.194-.626c.1.045.088.357.02.381s-.21-.066-.228.066a.25.25,0,0,0,.141.259.453.453,0,0,0,.369,0,.489.489,0,0,0,.175-.357.634.634,0,0,0-.383-.638.971.971,0,0,0-.99.1,1.475,1.475,0,0,0,.138,2.411c.108.068.22.13.373.22-.126.092-.215.167-.312.229-.6.377-1.211.729-1.785,1.137a5.509,5.509,0,0,0-1.154,1.017,4.871,4.871,0,0,0-.429.812c-.015.162-.034.291-.038.42a1.042,1.042,0,0,0,1.063,1.161,2.286,2.286,0,0,0,.941-.294.849.849,0,0,0,.227-1.033.755.755,0,0,0-.985-.059.44.44,0,0,0-.121.331c.007.081.133.151.205.227a.483.483,0,0,0,.326-.1c.127-.076.009-.4.3-.3.046.128.154.27.126.38-.111.444-.514.545-.884.622a.779.779,0,0,1-.952-.61.807.807,0,0,1,.505-1.064,5.125,5.125,0,0,0,1.718-1.018c.091-.088.2-.161.355-.289a1.965,1.965,0,0,0,.048.436c.105.285.083.509.281.713a1.063,1.063,0,0,0,1.636-.023,2.428,2.428,0,0,1,1.053-.615,1.273,1.273,0,0,0,.845-1.111.583.583,0,0,0-.54-.678.63.63,0,0,0-.725.579.615.615,0,0,0,.236.353c.182.156.29.03.258-.117-.063-.11-.127-.219-.19-.329-.016-.028-.074-.142.045-.187.286-.146.4-.072.526.028a.68.68,0,0,1,.125.566,1.1,1.1,0,0,1-1.139.791.979.979,0,0,0-.35-1.02c-.292-.225-.259-.29,0-.544a3.408,3.408,0,0,1,1.63-.771,1.406,1.406,0,0,1,.593,0,1.966,1.966,0,0,1,1.681,1.55c.04-.164.169-.137.141-.278a2.29,2.29,0,0,0-2.258-1.53,3.341,3.341,0,0,0-1.783.781,2.541,2.541,0,0,1-1,.656.888.888,0,0,0-.524,1.179.472.472,0,0,0,.309.253.317.317,0,0,0,.368-.178.442.442,0,0,0-.108-.4c-.072-.063-.22-.014-.223-.032-.014-.1-.055-.229-.01-.289a1.777,1.777,0,0,1,.345-.276c.046.061.129.12.131.182a1.51,1.51,0,0,0,.571,1.114.907.907,0,0,1-.3.3.814.814,0,0,1-1,.059.967.967,0,0,1-.348-.956,2.786,2.786,0,0,1,1.165-1.862,3.509,3.509,0,0,1,2.139-.856,2.427,2.427,0,0,1,2.776,1.7,3.047,3.047,0,0,1,.055.655l.085.025c.036-.082.112-.168.1-.243a3.192,3.192,0,0,0-.168-.942,2.858,2.858,0,0,0-3.13-1.457c-.378.1-.75.218-1.17.343.08-.183.15-.317.2-.458a1.929,1.929,0,0,1,1.213-1.194,1.022,1.022,0,0,1,1.108.179.914.914,0,0,0,.382.251.481.481,0,0,1,.437.392.9.9,0,0,0,.822.553.9.9,0,0,0,.7-.312.527.527,0,0,0,.1-.606.389.389,0,0,0-.429-.245c-.4.109.042.359.146.447.017.013.026.392-.528.4a.561.561,0,0,1-.562-.462c-.079-.282.094-.418.313-.529a1.153,1.153,0,0,1,1.652.46,4.884,4.884,0,0,1,.378,1.251,1.735,1.735,0,0,1-.313,1.5c-.248.268-.37.6-.2.7a.258.258,0,0,0,.35-.124A3.67,3.67,0,0,0,569.866-619.455Zm-6.435,3.259c.459.159.571.425.382.856C563.479-615.435,563.338-615.738,563.431-616.2Zm-3.8,1.39a6.063,6.063,0,0,1,2.36-1.784A4.358,4.358,0,0,1,559.626-614.806Z" transform="translate(-558.889 621.165)" fill="#e8b470" fill-rule="evenodd"/>
        </g>
        <g id="Group_119" data-name="Group 119" transform="translate(11.785)">
          <path id="Path_799" data-name="Path 799" d="M615.075-615.974a.258.258,0,0,0,.35.124c.169-.1.047-.431-.2-.7a1.733,1.733,0,0,1-.312-1.5,4.834,4.834,0,0,1,.378-1.251,1.152,1.152,0,0,1,1.651-.46c.22.111.393.247.313.529a.561.561,0,0,1-.562.462c-.555-.006-.544-.385-.528-.4.1-.088.547-.339.146-.447a.39.39,0,0,0-.429.245.528.528,0,0,0,.1.606.9.9,0,0,0,.7.312A.9.9,0,0,0,617.5-619a.481.481,0,0,1,.437-.392.914.914,0,0,0,.382-.251,1.022,1.022,0,0,1,1.108-.179,1.929,1.929,0,0,1,1.212,1.194c.048.141.118.275.2.458-.42-.124-.791-.247-1.169-.343a2.857,2.857,0,0,0-3.13,1.457,3.2,3.2,0,0,0-.168.942c-.009.075.066.162.1.243l.084-.025a3.063,3.063,0,0,1,.056-.655,2.427,2.427,0,0,1,2.777-1.7,3.51,3.51,0,0,1,2.139.856,2.786,2.786,0,0,1,1.165,1.862.966.966,0,0,1-.348.956.812.812,0,0,1-1-.059.9.9,0,0,1-.3-.3,1.508,1.508,0,0,0,.571-1.114c0-.062.085-.121.131-.182a1.751,1.751,0,0,1,.344.276c.046.06,0,.192-.009.289,0,.018-.15-.031-.223.032a.441.441,0,0,0-.108.4.318.318,0,0,0,.369.178.473.473,0,0,0,.309-.253.888.888,0,0,0-.524-1.179,2.541,2.541,0,0,1-1-.656,3.339,3.339,0,0,0-1.783-.781,2.29,2.29,0,0,0-2.258,1.53c-.027.141.1.114.141.278a1.967,1.967,0,0,1,1.681-1.55,1.407,1.407,0,0,1,.593,0,3.4,3.4,0,0,1,1.63.771c.26.254.292.319,0,.544a.979.979,0,0,0-.349,1.02,1.1,1.1,0,0,1-1.138-.791.681.681,0,0,1,.124-.566c.131-.1.241-.174.527-.028.119.046.061.159.045.187-.063.11-.127.22-.19.329-.032.147.076.273.258.117a.614.614,0,0,0,.236-.353.629.629,0,0,0-.725-.579.583.583,0,0,0-.54.678,1.275,1.275,0,0,0,.846,1.111,2.441,2.441,0,0,1,1.054.615,1.061,1.061,0,0,0,1.634.023c.2-.2.176-.428.281-.713a2,2,0,0,0,.048-.436c.158.127.263.2.356.289a5.11,5.11,0,0,0,1.717,1.018.807.807,0,0,1,.505,1.064.779.779,0,0,1-.952.61c-.37-.077-.773-.178-.884-.622-.027-.109.08-.252.126-.38.29-.1.172.228.3.3a.485.485,0,0,0,.327.1c.072-.076.2-.146.2-.227a.44.44,0,0,0-.122-.331.755.755,0,0,0-.984.059.848.848,0,0,0,.227,1.033,2.285,2.285,0,0,0,.942.294,1.042,1.042,0,0,0,1.063-1.161c0-.129-.023-.258-.039-.42a4.871,4.871,0,0,0-.429-.812,5.5,5.5,0,0,0-1.154-1.017c-.574-.408-1.189-.759-1.786-1.137-.1-.062-.186-.137-.311-.229.152-.09.264-.151.372-.22a1.475,1.475,0,0,0,.138-2.411.971.971,0,0,0-.99-.1.633.633,0,0,0-.383.638.488.488,0,0,0,.175.357.452.452,0,0,0,.369,0,.25.25,0,0,0,.141-.259c-.018-.132-.155-.039-.229-.066s-.075-.336.021-.381a.951.951,0,0,1,1.194.626,1.16,1.16,0,0,1-.477,1.266.7.7,0,0,1-.565.1,1.613,1.613,0,0,1-.993-.918,2.164,2.164,0,0,0-1.085-1.322,1.5,1.5,0,0,0-1.828.167c-.169.141-.273.145-.421,0-.12-.117-.3-.193-.372-.33a.578.578,0,0,1-.041-.456.524.524,0,0,1,.368-.22c.149-.022.308.033.281.268-.013.116-.113.447.087.414s.316-.446.167-.694a.612.612,0,0,0-.775-.259,1.207,1.207,0,0,0-.41.468c-.078.167-.118.244-.324.219a1.548,1.548,0,0,0-1.677.962A3.67,3.67,0,0,0,615.075-615.974Zm5.845.634c-.19-.431-.077-.7.382-.856C621.395-615.738,621.253-615.435,620.92-615.339Zm1.826-1.251a6.063,6.063,0,0,1,2.359,1.784A4.351,4.351,0,0,1,622.746-616.59Z" transform="translate(-614.526 621.165)" fill="#e8b470" fill-rule="evenodd"/>
        </g>
      </g>
    </g>
    <g id="Group_122" data-name="Group 122" transform="translate(5.692 5.679)">
      <path id="Path_800" data-name="Path 800" d="M560.888-568.886A14.134,14.134,0,0,1,546.77-583a14.134,14.134,0,0,1,14.118-14.118A14.134,14.134,0,0,1,575.005-583,14.134,14.134,0,0,1,560.888-568.886Z" transform="translate(-546.611 597.28)"/>
      <path id="Path_801" data-name="Path 801" d="M560.3-597.553a13.975,13.975,0,0,1,13.958,13.959A13.974,13.974,0,0,1,560.3-569.635a13.975,13.975,0,0,1-13.96-13.959,13.975,13.975,0,0,1,13.96-13.959m0-.318a14.293,14.293,0,0,0-14.277,14.277A14.293,14.293,0,0,0,560.3-569.318a14.292,14.292,0,0,0,14.276-14.276A14.292,14.292,0,0,0,560.3-597.871Z" transform="translate(-546.019 597.871)" fill="#e8b470"/>
    </g>
    <g id="Group_123" data-name="Group 123" transform="translate(6.587 6.573)">
      <path id="Path_802" data-name="Path 802" d="M563.626-566.884a13.4,13.4,0,0,1-13.382-13.382,13.4,13.4,0,0,1,13.382-13.382,13.4,13.4,0,0,1,13.381,13.382A13.4,13.4,0,0,1,563.626-566.884Zm0-26.571a13.2,13.2,0,0,0-13.189,13.189,13.2,13.2,0,0,0,13.189,13.189,13.2,13.2,0,0,0,13.188-13.189A13.2,13.2,0,0,0,563.626-593.455Z" transform="translate(-550.244 593.648)" fill="#e8b470"/>
    </g>
    <g id="Group_124" data-name="Group 124" transform="translate(10.757 10.745)">
      <path id="Path_803" data-name="Path 803" d="M579.143-555.532a9.221,9.221,0,0,1-9.212-9.211,9.221,9.221,0,0,1,9.212-9.211,9.221,9.221,0,0,1,9.211,9.211A9.221,9.221,0,0,1,579.143-555.532Zm0-18.264a9.064,9.064,0,0,0-9.055,9.054,9.065,9.065,0,0,0,9.055,9.054,9.064,9.064,0,0,0,9.054-9.054A9.064,9.064,0,0,0,579.143-573.8Z" transform="translate(-569.932 573.953)" fill="#e8b470"/>
    </g>
    <g id="c" transform="translate(17.404 14.41)">
      <path id="Path_804" data-name="Path 804" d="M610.089-548.537a19.3,19.3,0,0,1-.717,2.447,12.538,12.538,0,0,1-2.541.37c-3.871,0-5.516-2.592-5.516-5.425a5.3,5.3,0,0,1,5.7-5.506,16.869,16.869,0,0,1,2.646.322c.03.821.134,1.8.209,2.463l-.269.064a2.873,2.873,0,0,0-1.51-2.173,2.984,2.984,0,0,0-1.45-.29c-2.242,0-3.2,2.157-3.2,4.814,0,3.107,1.345,5.329,3.558,5.329,1.39,0,2.2-.9,2.855-2.512Z" transform="translate(-601.314 556.651)" fill="#e8b470"/>
    </g>
    <path id="Path_805" data-name="Path 805" d="M612.333-515.11c-.076.07-.154.137-.234.2.053-.1.1-.205.149-.313a4.41,4.41,0,0,1-.345-.557,3.345,3.345,0,0,1-.777,1.311,4.709,4.709,0,0,0,.669.392,4.639,4.639,0,0,0,.9-.64A3.519,3.519,0,0,1,612.333-515.11Z" transform="translate(-591.643 538.847)"/>
    <g id="o" transform="translate(12.672 13.88)">
      <g id="Group_125" data-name="Group 125" transform="translate(0)">
        <path id="Path_806" data-name="Path 806" d="M586.479-556.652a5.051,5.051,0,0,1,4.858,5.361c0,3.365-2.2,5.57-4.9,5.57a5.091,5.091,0,0,1-4.963-5.393C581.471-553.867,583.325-556.652,586.479-556.652Zm-.3.4c-1.465,0-2.571,1.578-2.571,4.765,0,3.011,1.136,5.361,3.079,5.361,1.495,0,2.511-1.626,2.511-4.749C589.2-554.237,588.018-556.249,586.18-556.249Z" transform="translate(-580.941 557.181)" fill="#e8b470"/>
        <path id="Path_807" data-name="Path 807" d="M584.464-547.162a5.594,5.594,0,0,1-5.492-5.923c0-2.983,2.071-6.067,5.537-6.067a5.6,5.6,0,0,1,5.388,5.891C589.9-549.727,587.612-547.162,584.464-547.162Zm-.254-10.529c-1.259,0-2.042,1.623-2.042,4.236,0,2.845,1.049,4.831,2.55,4.831,1.222,0,1.982-1.617,1.982-4.219C586.7-555.833,585.746-557.69,584.21-557.69Zm-2.359.532a5,5,0,0,0-1.82,4.074,4.827,4.827,0,0,0,2.4,4.357,7.59,7.59,0,0,1-1.319-4.727A8.374,8.374,0,0,1,581.851-557.159Zm4.7-.383a7.84,7.84,0,0,1,1.209,4.7,8.158,8.158,0,0,1-.735,3.749,5.2,5.2,0,0,0,1.813-4.167A4.881,4.881,0,0,0,586.55-557.541Z" transform="translate(-578.972 559.152)"/>
      </g>
      <g id="Group_126" data-name="Group 126" transform="translate(0.53 0.53)">
        <path id="Path_808" data-name="Path 808" d="M586.479-556.652a5.051,5.051,0,0,1,4.858,5.361c0,3.365-2.2,5.57-4.9,5.57a5.09,5.09,0,0,1-4.963-5.393C581.472-553.867,583.325-556.652,586.479-556.652Zm-.3.4c-1.465,0-2.571,1.577-2.571,4.765,0,3.011,1.136,5.361,3.079,5.361,1.5,0,2.512-1.626,2.512-4.749C589.2-554.237,588.019-556.249,586.181-556.249Z" transform="translate(-581.472 556.652)" fill="#e8b470"/>
      </g>
    </g>
    <g id="Group_128" data-name="Group 128" transform="translate(17.404 14.41)">
      <path id="Path_809" data-name="Path 809" d="M601.314-545.461a5.435,5.435,0,0,0,1.654,4.123,3.347,3.347,0,0,0,.868-1.76,8.377,8.377,0,0,1-.4-2.669,8.539,8.539,0,0,1,.253-2.156,3.75,3.75,0,0,0-.814-1.516A5.436,5.436,0,0,0,601.314-545.461Z" transform="translate(-601.314 550.967)" fill="#e8b470"/>
      <path id="Path_810" data-name="Path 810" d="M617.958-516.76a5.14,5.14,0,0,1-.695.554,6.784,6.784,0,0,0,2.138.319,12.539,12.539,0,0,0,2.541-.37,19.355,19.355,0,0,0,.717-2.447l-.239-.1c-.658,1.61-1.465,2.512-2.855,2.512" transform="translate(-613.886 526.818)" fill="#e8b470"/>
      <path id="Path_811" data-name="Path 811" d="M615.72-512.835c.08-.063.158-.131.234-.2-.029-.037-.058-.074-.086-.112C615.821-513.04,615.772-512.934,615.72-512.835Z" transform="translate(-612.668 522.362)" fill="#e8b470"/>
      <path id="Path_812" data-name="Path 812" d="M609.121-517.741a2.015,2.015,0,0,0,.276.232,3.909,3.909,0,0,0,.82-1.422,2.875,2.875,0,0,1-.228-.571A3.345,3.345,0,0,1,609.121-517.741Z" transform="translate(-607.467 527.37)" fill="#e8b470"/>
      <g id="Group_127" data-name="Group 127" transform="translate(1.562)">
        <path id="Path_813" data-name="Path 813" d="M615.469-556.329a16.89,16.89,0,0,0-2.646-.322,6.666,6.666,0,0,0-2.258.372,5.475,5.475,0,0,0-.59.249,5.117,5.117,0,0,0-.885.557,4.864,4.864,0,0,0-.4.349,3.749,3.749,0,0,1,.814,1.516,5.382,5.382,0,0,1,.271-.787,4.054,4.054,0,0,1,.308-.577q.075-.116.158-.224a2.96,2.96,0,0,1,.365-.4,2.6,2.6,0,0,1,.437-.318,2.762,2.762,0,0,1,1.406-.356,2.986,2.986,0,0,1,1.45.29,2.873,2.873,0,0,1,1.51,2.173l.269-.064C615.6-554.526,615.5-555.508,615.469-556.329Z" transform="translate(-608.69 556.651)" fill="#e8b470"/>
      </g>
    </g>
    <g id="Group_131" data-name="Group 131" transform="translate(8.113 8.077)">
      <g id="Group_129" data-name="Group 129" transform="translate(0 8.7)">
        <path id="Path_814" data-name="Path 814" d="M661.84-545.253a.045.045,0,0,1,.052.034l.056.266a.043.043,0,0,1-.033.051l-.563.12.136.639.563-.12a.043.043,0,0,1,.051.033l.057.266a.045.045,0,0,1-.034.052l-1.478.315a.045.045,0,0,1-.051-.033l-.057-.266a.043.043,0,0,1,.033-.052l.587-.125-.136-.639-.587.125a.043.043,0,0,1-.051-.033l-.057-.266a.045.045,0,0,1,.033-.051Z" transform="translate(-638.536 545.3)" fill="#e8b470"/>
        <path id="Path_815" data-name="Path 815" d="M663.434-534.848a.045.045,0,0,1,.046.041l.017.273a.045.045,0,0,1-.04.046l-1.509.1a.045.045,0,0,1-.046-.041l-.017-.273a.045.045,0,0,1,.04-.046Z" transform="translate(-639.764 537.099)" fill="#e8b470"/>
        <path id="Path_816" data-name="Path 816" d="M663.37-528.918a.883.883,0,0,1-.256.539.04.04,0,0,1-.061,0l-.178-.195a.048.048,0,0,1,0-.061.421.421,0,0,0,.132-.29.457.457,0,0,0-.425-.484.455.455,0,0,0-.487.416.54.54,0,0,0,.021.205l.132.01.011-.143a.041.041,0,0,1,.044-.04l.225.017a.042.042,0,0,1,.04.046l-.035.457a.042.042,0,0,1-.046.037l-.612-.044a.041.041,0,0,1-.035-.021,1.154,1.154,0,0,1-.1-.575.813.813,0,0,1,.877-.755A.818.818,0,0,1,663.37-528.918Z" transform="translate(-639.644 533.12)" fill="#e8b470"/>
        <path id="Path_817" data-name="Path 817" d="M661.385-520.355a.045.045,0,0,1,.031.053l-.071.262a.043.043,0,0,1-.053.031l-.556-.151-.171.631.556.151a.044.044,0,0,1,.031.053l-.071.263a.045.045,0,0,1-.053.03l-1.459-.4a.045.045,0,0,1-.03-.053l.071-.263a.043.043,0,0,1,.053-.03l.579.157.171-.631-.58-.157a.043.043,0,0,1-.031-.053l.071-.262a.045.045,0,0,1,.053-.031Z" transform="translate(-637.912 525.989)" fill="#e8b470"/>
        <path id="Path_818" data-name="Path 818" d="M655.849-505.906a.768.768,0,0,1-.464.367.043.043,0,0,1-.056-.031l-.068-.247a.04.04,0,0,1,.029-.049.449.449,0,0,0,.257-.206.455.455,0,0,0-.177-.625.453.453,0,0,0-.628.151.451.451,0,0,0-.062.319.045.045,0,0,1-.032.05l-.254.057a.046.046,0,0,1-.052-.033.783.783,0,0,1,.092-.59.819.819,0,0,1,1.126-.292A.823.823,0,0,1,655.849-505.906Z" transform="translate(-633.801 515.268)" fill="#e8b470"/>
        <path id="Path_819" data-name="Path 819" d="M651.056-499.823a.043.043,0,0,1,.006.061l-.174.209a.045.045,0,0,1-.061.006l-.937-.78-.347.418a.043.043,0,0,1-.061.005l-.191-.159a.043.043,0,0,1-.006-.061l.549-.66a.043.043,0,0,1,.061-.006Z" transform="translate(-629.824 510.263)" fill="#e8b470"/>
        <path id="Path_820" data-name="Path 820" d="M644.032-496.246l.476,1.627a.046.046,0,0,1-.013.044l-.017.015a.046.046,0,0,1-.046.007l-1.551-.684a.04.04,0,0,1-.01-.07l.191-.167a.077.077,0,0,1,.1-.01l.18.082.467-.41-.058-.192a.084.084,0,0,1,.026-.1l.189-.166A.04.04,0,0,1,644.032-496.246Zm-.383.986.379.169,0,0-.12-.4Z" transform="translate(-624.765 506.697)" fill="#e8b470"/>
        <path id="Path_821" data-name="Path 821" d="M638.633-489.957a.051.051,0,0,1,.044.053l.009.212a.054.054,0,0,1-.058.053.586.586,0,0,0-.341.065.143.143,0,0,0-.061.2c.051.081.155.089.322.071.244-.026.5-.039.643.194a.474.474,0,0,1-.207.665.851.851,0,0,1-.505.113c-.032,0-.05-.036-.05-.055l.006-.211a.07.07,0,0,1,.077-.067.621.621,0,0,0,.327-.059.124.124,0,0,0,.051-.18c-.04-.064-.147-.067-.323-.048-.222.023-.5.066-.667-.2a.5.5,0,0,1,.207-.686A.723.723,0,0,1,638.633-489.957Z" transform="translate(-620.806 501.724)" fill="#e8b470"/>
        <path id="Path_822" data-name="Path 822" d="M631.956-486.288a.051.051,0,0,1,.036.059l-.023.211a.054.054,0,0,1-.066.043.586.586,0,0,0-.347.013.143.143,0,0,0-.09.188c.038.088.14.111.307.118.246.011.5.036.606.287a.473.473,0,0,1-.3.626.85.85,0,0,1-.516.037c-.031,0-.044-.043-.041-.062l.037-.207a.071.071,0,0,1,.086-.055.619.619,0,0,0,.331-.009.123.123,0,0,0,.078-.17c-.03-.069-.135-.088-.312-.1-.223-.01-.506-.01-.629-.295a.5.5,0,0,1,.307-.647A.724.724,0,0,1,631.956-486.288Z" transform="translate(-615.478 498.851)" fill="#e8b470"/>
        <path id="Path_823" data-name="Path 823" d="M619.616-481.413a.043.043,0,0,1-.034.049l-.55.086a.8.8,0,0,1-.915-.664.8.8,0,0,1,.668-.915l.55-.086a.043.043,0,0,1,.048.037Zm-.777-1.11a.428.428,0,0,0-.348.523.427.427,0,0,0,.491.39l.237-.037-.143-.914Z" transform="translate(-605.259 496.188)" fill="#e8b470"/>
        <path id="Path_824" data-name="Path 824" d="M610.151-481.921,609.4-480.4a.047.047,0,0,1-.04.024h-.023a.046.046,0,0,1-.038-.026l-.675-1.554a.04.04,0,0,1,.04-.058l.253.006c.041,0,.059.015.078.059l.078.182.621.016.087-.18a.085.085,0,0,1,.084-.053l.251.006A.04.04,0,0,1,610.151-481.921Zm-.95.464.164.381h0l.181-.372Z" transform="translate(-597.78 495.459)" fill="#e8b470"/>
        <path id="Path_825" data-name="Path 825" d="M601.4-481.571l.321.06a.044.044,0,0,1,.035.051l-.046.245a.043.043,0,0,1-.051.034l-1-.186a.044.044,0,0,1-.035-.051l.046-.244a.043.043,0,0,1,.05-.035l.321.06.224-1.2a.045.045,0,0,1,.051-.035l.269.05a.045.045,0,0,1,.035.051Z" transform="translate(-591.479 496.131)" fill="#e8b470"/>
        <path id="Path_826" data-name="Path 826" d="M596.055-482.83a.045.045,0,0,1-.055.028l-.261-.083a.045.045,0,0,1-.028-.055l.46-1.44a.045.045,0,0,1,.055-.028l.261.083a.045.045,0,0,1,.028.055Z" transform="translate(-587.605 497.344)" fill="#e8b470"/>
        <path id="Path_827" data-name="Path 827" d="M587.235-486.284a.043.043,0,0,1-.057.018l-.031-.015c-.021-.01-.028-.031-.036-.056l-.416-1.142h0l-.357.727a.043.043,0,0,1-.058.02l-.246-.12a.045.045,0,0,1-.02-.058l.677-1.379a.04.04,0,0,1,.057-.018l.021.01a.074.074,0,0,1,.04.048l.4,1.192h0l.375-.765a.043.043,0,0,1,.058-.02l.244.12a.045.045,0,0,1,.02.058Z" transform="translate(-579.959 500.421)" fill="#e8b470"/>
        <path id="Path_828" data-name="Path 828" d="M578.237-491.518a.882.882,0,0,1-.316-.506.04.04,0,0,1,.034-.052l.259-.045a.049.049,0,0,1,.051.035.419.419,0,0,0,.173.267.457.457,0,0,0,.637-.1.454.454,0,0,0-.088-.635.538.538,0,0,0-.184-.093l-.08.106.115.087a.042.042,0,0,1,.01.059l-.136.18a.041.041,0,0,1-.06.008l-.367-.276a.044.044,0,0,1-.007-.06l.368-.492a.04.04,0,0,1,.036-.018,1.153,1.153,0,0,1,.541.222.814.814,0,0,1,.163,1.146A.818.818,0,0,1,578.237-491.518Z" transform="translate(-573.584 504.153)" fill="#e8b470"/>
        <path id="Path_829" data-name="Path 829" d="M570.942-502.085l-1.65.386a.046.046,0,0,1-.044-.015l-.014-.018a.047.047,0,0,1,0-.046l.768-1.511a.04.04,0,0,1,.071-.006l.156.2a.077.077,0,0,1,0,.1l-.091.176.383.489.195-.048a.085.085,0,0,1,.094.031l.155.2A.04.04,0,0,1,570.942-502.085Zm-.964-.437-.189.369v0l.4-.1Z" transform="translate(-566.731 512.243)" fill="#e8b470"/>
        <path id="Path_830" data-name="Path 830" d="M563.273-509.135a.88.88,0,0,1-.07-.593.04.04,0,0,1,.052-.033l.254.07a.048.048,0,0,1,.031.053.421.421,0,0,0,.043.316.458.458,0,0,0,.618.182.455.455,0,0,0,.191-.612.534.534,0,0,0-.127-.163l-.117.062.067.127a.041.041,0,0,1-.016.058l-.2.106a.042.042,0,0,1-.059-.018l-.214-.406a.043.043,0,0,1,.019-.057l.542-.289a.041.041,0,0,1,.041,0,1.156,1.156,0,0,1,.4.432.814.814,0,0,1-.34,1.107A.818.818,0,0,1,563.273-509.135Z" transform="translate(-561.966 517.78)" fill="#e8b470"/>
        <path id="Path_831" data-name="Path 831" d="M559.836-516.325a.043.043,0,0,1-.055-.028l-.293-.9a.043.043,0,0,1,.028-.055l.236-.077a.043.043,0,0,1,.055.028l.2.6.269-.088-.161-.494a.045.045,0,0,1,.028-.055l.236-.077a.043.043,0,0,1,.055.028l.161.494.293-.1-.2-.6a.043.043,0,0,1,.028-.055l.236-.077a.043.043,0,0,1,.054.028l.293.9a.044.044,0,0,1-.028.055Z" transform="translate(-559.055 523.643)" fill="#e8b470"/>
        <path id="Path_832" data-name="Path 832" d="M557.817-525.211a.043.043,0,0,1-.047-.037l0-.034a.083.083,0,0,1,.026-.061l.712-.984v0l-.8.112a.043.043,0,0,1-.049-.037l-.038-.271a.044.044,0,0,1,.037-.049l1.52-.213a.04.04,0,0,1,.047.037l0,.023a.072.072,0,0,1-.017.06l-.76,1v0l.843-.118a.044.044,0,0,1,.049.037l.038.269a.045.045,0,0,1-.037.049Z" transform="translate(-557.579 530.746)" fill="#e8b470"/>
        <path id="Path_833" data-name="Path 833" d="M557.449-535.646a.766.766,0,0,1,.236-.543.043.043,0,0,1,.064,0l.177.186a.04.04,0,0,1,0,.057.449.449,0,0,0-.13.3.455.455,0,0,0,.45.468.453.453,0,0,0,.483-.429.446.446,0,0,0-.1-.31.046.046,0,0,1,.005-.059l.2-.17a.046.046,0,0,1,.062.005.784.784,0,0,1,.2.564.819.819,0,0,1-.855.788A.822.822,0,0,1,557.449-535.646Z" transform="translate(-557.448 538.166)" fill="#e8b470"/>
        <path id="Path_834" data-name="Path 834" d="M559.006-544.45l-.851.332a.042.042,0,0,1-.057-.05l.063-.29a.045.045,0,0,1,.028-.031l.524-.211-.39-.409a.042.042,0,0,1-.013-.04l.063-.29a.042.042,0,0,1,.072-.022l.635.66.712.153a.045.045,0,0,1,.033.052l-.057.265a.043.043,0,0,1-.052.033Z" transform="translate(-557.959 545.474)" fill="#e8b470"/>
      </g>
      <g id="Group_130" data-name="Group 130" transform="translate(2.188)">
        <path id="Path_835" data-name="Path 835" d="M567.944-565.266a.819.819,0,0,1,1.151-.164.816.816,0,0,1,.164,1.148.814.814,0,0,1-1.147.165A.818.818,0,0,1,567.944-565.266Zm1.023.766a.457.457,0,0,0-.09-.637.46.46,0,0,0-.641.09.459.459,0,0,0,.095.638A.457.457,0,0,0,568.967-564.5Z" transform="translate(-567.78 570.033)" fill="#e8b470"/>
        <path id="Path_836" data-name="Path 836" d="M573.778-572.221a.043.043,0,0,1,0-.061l.5-.461a.486.486,0,0,1,.7.028.482.482,0,0,1,.061.566l.623.217a.043.043,0,0,1,.016.075l-.224.205a.042.042,0,0,1-.041.01l-.632-.241-.116.106.393.429a.045.045,0,0,1,0,.061l-.2.184a.044.044,0,0,1-.061,0Zm.945,0a.176.176,0,0,0,0-.252.168.168,0,0,0-.245-.011l-.249.228.24.263Z" transform="translate(-572.499 575.774)" fill="#e8b470"/>
        <path id="Path_837" data-name="Path 837" d="M581.052-576.709a.045.045,0,0,1,.011-.061l.225-.156a.045.045,0,0,1,.06.011l.86,1.243a.045.045,0,0,1-.011.06l-.225.156a.045.045,0,0,1-.06-.011Z" transform="translate(-578.235 578.969)" fill="#e8b470"/>
        <path id="Path_838" data-name="Path 838" d="M585.844-580.838a.044.044,0,0,1,.019-.059l.839-.435a.044.044,0,0,1,.058.019l.114.221a.044.044,0,0,1-.018.059l-.562.291.13.252.462-.24a.045.045,0,0,1,.059.018l.114.221a.044.044,0,0,1-.018.059l-.462.24.142.274.561-.291a.043.043,0,0,1,.058.019l.115.221a.044.044,0,0,1-.018.058l-.839.435a.044.044,0,0,1-.059-.019Z" transform="translate(-582.014 582.44)" fill="#e8b470"/>
        <path id="Path_839" data-name="Path 839" d="M593.741-584.417a.043.043,0,0,1,.029-.052l.033-.01a.086.086,0,0,1,.064.016l1.087.543h0l-.241-.773a.043.043,0,0,1,.029-.054l.261-.081a.045.045,0,0,1,.054.029l.457,1.466a.04.04,0,0,1-.029.052l-.022.006a.072.072,0,0,1-.062-.007l-1.113-.588h0l.253.812a.043.043,0,0,1-.029.054l-.259.081a.045.045,0,0,1-.054-.029Z" transform="translate(-588.24 585.196)" fill="#e8b470"/>
        <path id="Path_840" data-name="Path 840" d="M603.962-585.866l-.324.043a.043.043,0,0,1-.049-.038l-.033-.246a.044.044,0,0,1,.037-.049l1-.133a.043.043,0,0,1,.049.037l.033.247a.043.043,0,0,1-.037.049l-.323.043.16,1.208a.045.045,0,0,1-.037.049l-.272.036a.045.045,0,0,1-.049-.037Z" transform="translate(-595.978 586.345)" fill="#e8b470"/>
        <path id="Path_841" data-name="Path 841" d="M611.233-585.008l.755-1.517a.046.046,0,0,1,.04-.024h.023a.047.047,0,0,1,.038.026l.673,1.555a.04.04,0,0,1-.041.058l-.253-.007c-.041,0-.059-.015-.078-.059l-.077-.182-.621-.017-.087.18a.085.085,0,0,1-.084.052l-.251-.007A.04.04,0,0,1,611.233-585.008Zm.951-.463-.163-.381h0l-.182.372Z" transform="translate(-602.024 586.548)" fill="#e8b470"/>
        <path id="Path_842" data-name="Path 842" d="M620.931-585.781a.043.043,0,0,1,.051-.035l.267.05a.045.045,0,0,1,.034.051l-.224,1.2.534.1a.043.043,0,0,1,.034.051l-.046.245a.044.044,0,0,1-.051.035l-.843-.158a.044.044,0,0,1-.035-.051Z" transform="translate(-609.452 585.972)" fill="#e8b470"/>
        <path id="Path_843" data-name="Path 843" d="M633.046-581.545a.768.768,0,0,1,.415.422.043.043,0,0,1-.025.059l-.239.095a.04.04,0,0,1-.052-.024.449.449,0,0,0-.232-.234.455.455,0,0,0-.6.243.452.452,0,0,0,.217.608.449.449,0,0,0,.324.027.045.045,0,0,1,.053.027l.083.246a.046.046,0,0,1-.028.055.785.785,0,0,1-.6-.029.819.819,0,0,1-.41-1.088A.823.823,0,0,1,633.046-581.545Z" transform="translate(-618.302 582.664)" fill="#e8b470"/>
        <path id="Path_844" data-name="Path 844" d="M639.713-578.05a.044.044,0,0,1,.06-.012l.226.15a.045.045,0,0,1,.012.06l-.675,1.015.453.3a.043.043,0,0,1,.012.06l-.138.207a.043.043,0,0,1-.06.012l-.715-.475a.043.043,0,0,1-.012-.06Z" transform="translate(-623.811 579.865)" fill="#e8b470"/>
        <path id="Path_845" data-name="Path 845" d="M646.237-573.46a.045.045,0,0,1,.061,0l.206.191a.043.043,0,0,1,0,.061l-.648.7a.254.254,0,0,0,.028.382.256.256,0,0,0,.386,0l.648-.7a.043.043,0,0,1,.061,0l.206.191a.045.045,0,0,1,0,.061l-.661.71a.624.624,0,0,1-.891,0,.621.621,0,0,1-.061-.886Z" transform="translate(-628.973 576.242)" fill="#e8b470"/>
        <path id="Path_846" data-name="Path 846" d="M651.893-565.045a.388.388,0,0,1-.114.465.457.457,0,0,1-.652-.129l-.342-.451a.043.043,0,0,1,.008-.061l1.2-.914a.043.043,0,0,1,.061.008l.321.423a.458.458,0,0,1-.041.647.392.392,0,0,1-.442.01Zm-.541.09a.154.154,0,0,0,.238.042.158.158,0,0,0,.024-.236l-.12-.158-.26.2Zm.493-.38a.153.153,0,0,0,.22.019.146.146,0,0,0,.034-.212l-.115-.151-.254.193Z" transform="translate(-633.197 570.466)" fill="#e8b470"/>
      </g>
    </g>
    <path id="Path_847" data-name="Path 847" d="M613.489-551.325a3.041,3.041,0,0,1,1.3-1.677l.35.394a.036.036,0,0,0-.013,0c-.678.34-.979.71-1.355,1.9Z" transform="translate(-593.506 568.185)"/>
  </g>
  <g id="logo-type" transform="translate(46.58 8.952)">
    <path id="Path_848" data-name="Path 848" d="M755.368-569.534a10.687,10.687,0,0,1,10.863,10.907c0,7.086-4.9,11.511-11.057,11.511a10.837,10.837,0,0,1-11.136-11.057A11.051,11.051,0,0,1,755.368-569.534Zm-.636,1.263c-3.67,0-6.906,3.139-6.906,9.254,0,6.04,3.188,10.61,7.875,10.61,3.874,0,6.8-2.983,6.8-9.3C762.5-564.564,759-568.271,754.731-568.271Z" transform="translate(-744.038 569.534)" fill="#fff"/>
    <path id="Path_849" data-name="Path 849" d="M851.871-540.571c-.318,0-.621-.022-.968-.049-2.238-.139-3.284-.687-4.407-2.254-1.016-1.387-1.956-3.068-2.832-4.479-.517-.834-.874-1-2.161-1l-.874,0v4.159c0,2.261.293,2.4,2.433,2.624v.795h-7.416v-.795c2.212-.237,2.411-.363,2.411-2.624v-10.626c0-2.251-.293-2.37-2.411-2.6v-.795h7.072a7.8,7.8,0,0,1,4.432.932,4.014,4.014,0,0,1,1.835,3.546c0,2.321-1.508,3.736-3.471,4.566.472.827,1.617,2.615,2.428,3.827a24.044,24.044,0,0,0,2.123,2.768,3.809,3.809,0,0,0,1.927,1.225ZM841.826-549.3a4.313,4.313,0,0,0,2.918-.764,3.757,3.757,0,0,0,1.449-3.27,3.56,3.56,0,0,0-3.854-3.907,2.366,2.366,0,0,0-1.4.268c-.234.183-.31.461-.31,1.129v6.544Z" transform="translate(-808.716 561.512)" fill="#fff"/>
    <path id="Path_850" data-name="Path 850" d="M898.246-540.776v-.795c2.19-.232,2.411-.349,2.411-2.624v-10.573c0-2.3-.226-2.424-2.411-2.651v-.795H905.7v.795c-2.207.232-2.434.354-2.434,2.651v10.573c0,2.292.221,2.388,2.434,2.624v.795Z" transform="translate(-852.912 561.512)" fill="#fff"/>
    <path id="Path_851" data-name="Path 851" d="M950.7-545.225c-.157.7-.893,3.523-1.159,4.318H936.232v-.79c2.507-.2,2.692-.419,2.692-2.629v-10.533c0-2.368-.3-2.507-2.3-2.69v-.795H945c2.6,0,3.633-.027,3.968-.053.027.637.14,2.683.248,4.148l-.856.134a8.1,8.1,0,0,0-.875-2.121c-.443-.823-1.016-1.005-2.6-1.005h-2.425c-.873,0-.937.076-.937.878v5.87h2.94c1.937,0,2.1-.4,2.436-2.241h.878v5.608H946.9c-.366-1.941-.583-2.219-2.463-2.219h-2.913v5.208c0,1.873.5,2.106,1.909,2.133h2.409c1.627,0,1.922-.232,2.517-.934a11.527,11.527,0,0,0,1.5-2.506Z" transform="translate(-879.731 561.642)" fill="#fff"/>
    <path id="Path_852" data-name="Path 852" d="M1014.69-557.418c-1.717.193-2.276.475-2.357,1.7-.037.892-.1,1.98-.1,4.446v10.743h-1.116l-11.529-13.919v6.59c0,2.4.076,3.578.135,4.356.064,1.334.721,1.776,2.68,1.927v.795h-6.6v-.795c1.653-.134,2.307-.537,2.425-1.841.086-.878.14-2.042.14-4.463v-6.754a2.473,2.473,0,0,0-.546-1.843c-.509-.67-1.092-.817-2.384-.946v-.795h4.279l11.265,13.2v-6.259c0-2.466-.049-3.571-.13-4.41-.081-1.2-.669-1.607-2.849-1.741v-.795h6.684Z" transform="translate(-921.534 561.512)" fill="#fff"/>
    <path id="Path_853" data-name="Path 853" d="M1086.094-555.448a9.688,9.688,0,0,0-.92-2.3c-.443-.7-.7-.888-2.211-.888h-2.531v12.982c0,2.121.226,2.392,2.768,2.558v.795h-8.075v-.795c2.478-.166,2.7-.415,2.7-2.558v-12.982h-2.317c-1.493,0-1.926.175-2.4.951a11.617,11.617,0,0,0-.932,2.241h-.851c.167-1.694.334-3.457.411-4.92h.657c.406.639.709.627,1.476.627h10.737a1.434,1.434,0,0,0,1.414-.627h.674c0,1.236.113,3.245.249,4.835Z" transform="translate(-975.112 563.035)" fill="#fff"/>
    <path id="Path_854" data-name="Path 854" d="M1140.918-541.689v-.795c1.749-.219,1.927-.493,1.548-1.536-.337-1-.859-2.32-1.4-3.9h-5.743c-.409,1.14-.809,2.181-1.169,3.233-.59,1.734-.163,1.949,2.042,2.2v.795h-6.329v-.795c1.705-.215,2.138-.412,3.08-2.8l5.607-14.045.944-.175c1.71,4.6,3.572,9.619,5.286,14.231.891,2.363,1.134,2.572,3.026,2.787v.795Zm-2.648-14.033c-.851,2.24-1.742,4.565-2.53,6.655h4.925Z" transform="translate(-1016.442 562.425)" fill="#fff"/>
    <path id="Path_855" data-name="Path 855" d="M1211.648-545.278c-.172.89-.974,3.689-1.24,4.5h-12.735v-.795c2.448-.227,2.664-.371,2.664-2.646V-554.79c0-2.275-.27-2.424-2.411-2.629v-.795h7.467v.795c-2.155.21-2.448.331-2.448,2.629v10.826c0,1.607.187,2.036,1.72,2.063.032,0,1.854.026,2.006.026,1.41,0,1.815-.19,2.443-.87a9.42,9.42,0,0,0,1.661-2.768Z" transform="translate(-1064.313 561.512)" fill="#fff"/>
    <path id="Path_856" data-name="Path 856" d="M1310.738-552.965a42.579,42.579,0,0,1-1.838,5.045,30.253,30.253,0,0,1-6.1.8c-8.14,0-12.138-5.333-12.138-11.015,0-6.753,5.18-11.4,12.737-11.4a34.5,34.5,0,0,1,6.3.766c.139,1.5.373,3.562.633,5.177l-1.087.231c-.672-2.277-1.507-3.607-3.218-4.3a9.053,9.053,0,0,0-3.389-.6c-5.376,0-8.189,4.022-8.189,9.422,0,6.313,3.295,10.407,8.54,10.407,3.29,0,4.991-1.534,6.708-4.9Z" transform="translate(-1129.965 569.534)" fill="#fff"/>
    <path id="Path_857" data-name="Path 857" d="M1387.68-545.278c-.173.89-.974,3.689-1.241,4.5H1373.7v-.795c2.448-.227,2.664-.371,2.664-2.646V-554.79c0-2.275-.27-2.424-2.411-2.629v-.795h7.467v.795c-2.155.21-2.448.331-2.448,2.629v10.826c0,1.607.187,2.036,1.719,2.063.032,0,1.854.026,2.007.026,1.409,0,1.815-.19,2.443-.87a9.407,9.407,0,0,0,1.661-2.768Z" transform="translate(-1188.596 561.512)" fill="#fff"/>
    <path id="Path_858" data-name="Path 858" d="M1450.725-557.418c-1.71.117-2.3.561-2.368,1.746-.036.651-.091,1.739-.091,4.1v3.008c0,2.659-.334,4.8-1.9,6.427a6.765,6.765,0,0,1-5,1.741,7.461,7.461,0,0,1-4.512-1.263c-1.614-1.224-2.394-3.037-2.394-6.151v-6.831c0-2.424-.221-2.59-2.366-2.777v-.795h7.341v.795c-2.141.144-2.362.354-2.362,2.777v6.784c0,3.752,1.8,5.87,4.983,5.87,3.731,0,4.983-2.361,4.983-6.737v-2.847c0-2.357-.081-3.367-.135-4.105-.086-1.212-.733-1.634-2.716-1.741v-.795h6.535Z" transform="translate(-1229.822 561.512)" fill="#fff"/>
    <path id="Path_859" data-name="Path 859" d="M1515.407-550.248c2.642.444,4.734,1.7,4.734,4.29a4.661,4.661,0,0,1-2.621,4.121,9.31,9.31,0,0,1-4.765,1.061h-6.823v-.795c2.262-.215,2.412-.437,2.412-2.58v-10.661c0-2.232-.263-2.429-2.407-2.607v-.795h7.3a7.4,7.4,0,0,1,4.217.939,3.485,3.485,0,0,1,1.607,3C1519.055-551.806,1516.966-550.619,1515.407-550.248Zm-3.171-.327c2.9,0,4.073-1.166,4.073-3.327,0-1.96-1.232-3.307-3.63-3.307a2.8,2.8,0,0,0-1.472.259c-.231.166-.293.451-.293,1.256v5.119Zm-1.322,6.37c0,1.931.538,2.433,2.377,2.429a3.688,3.688,0,0,0,3.948-3.919c0-2.712-1.836-3.9-5.089-3.9h-1.236Z" transform="translate(-1281.95 561.512)" fill="#fff"/>
  </g>
</svg>
