<svg id="logo" xmlns="http://www.w3.org/2000/svg" width="315.771" height="54.47" viewBox="0 0 315.771 54.47">
  <g id="logo-symble">
    <g id="Group_108" data-name="Group 108">
      <path id="Path_790" data-name="Path 790" d="M574.373-591.431c-.227-.106-.332-.16-.3-.443a2.163,2.163,0,0,0-.467-1.677,9.6,9.6,0,0,0,.112-1.435,9.625,9.625,0,0,0-.106-1.383,2.166,2.166,0,0,0,.46-1.671c-.032-.282.073-.337.3-.442a1.64,1.64,0,0,0,.638-.56.835.835,0,0,0-.354-1.057c-.338-.2-.9-.046-.946.228s.406.136.565.119c.321-.036.4.179.366.384a.719.719,0,0,1-.3.5.792.792,0,0,1-.622-.054c-.187-.106-.291-.346-.451-.51-.2-.2-.191-.343,0-.574a2.043,2.043,0,0,0,.227-2.494,2.95,2.95,0,0,0-1.8-1.481,2.2,2.2,0,0,1-1.253-1.355.958.958,0,0,1,.134-.77,1.58,1.58,0,0,1,1.727-.65,1.3,1.3,0,0,1,.853,1.629c-.06.132-.486.12-.52.028s.091-.288-.09-.312a.342.342,0,0,0-.353.191.626.626,0,0,0,0,.5.671.671,0,0,0,.487.239.866.866,0,0,0,.871-.523,1.328,1.328,0,0,0-.135-1.351,2.013,2.013,0,0,0-3.29.189c-.093.148-.177.3-.3.508-.126-.171-.228-.292-.312-.425-.516-.813-.994-1.653-1.551-2.436a7.547,7.547,0,0,0-1.386-1.574,6.621,6.621,0,0,0-1.109-.585c-.22-.021-.4-.048-.573-.052a1.8,1.8,0,0,0-.267.012,1.814,1.814,0,0,0,.013-.267c-.006-.176-.032-.352-.053-.572a6.66,6.66,0,0,0-.586-1.109,7.541,7.541,0,0,0-1.574-1.387c-.784-.557-1.623-1.036-2.436-1.551-.133-.084-.254-.187-.426-.313.208-.122.361-.206.508-.3a2.013,2.013,0,0,0,.188-3.289,1.324,1.324,0,0,0-1.351-.135.865.865,0,0,0-.523.87.668.668,0,0,0,.239.487.62.62,0,0,0,.5,0,.341.341,0,0,0,.192-.354c-.024-.18-.211-.052-.311-.089s-.1-.459.028-.521a1.3,1.3,0,0,1,1.629.854,1.584,1.584,0,0,1-.65,1.728.961.961,0,0,1-.771.134,2.2,2.2,0,0,1-1.354-1.253,2.958,2.958,0,0,0-1.481-1.8,2.044,2.044,0,0,0-2.494.228c-.231.192-.373.2-.574,0-.163-.16-.4-.264-.508-.45a.794.794,0,0,1-.056-.623.718.718,0,0,1,.5-.3c.2-.03.419.045.384.366-.018.159-.155.61.119.565s.43-.609.227-.947a.835.835,0,0,0-1.057-.354,1.661,1.661,0,0,0-.56.639c-.105.228-.161.333-.443.3a2.181,2.181,0,0,0-1.6.408,9.611,9.611,0,0,0-1.526-.123,9.638,9.638,0,0,0-1.457.115,2.184,2.184,0,0,0-1.586-.4c-.281.034-.337-.072-.443-.3a1.658,1.658,0,0,0-.56-.639.835.835,0,0,0-1.057.354c-.2.338-.045.9.228.947s.137-.406.119-.565c-.035-.321.18-.4.384-.366a.717.717,0,0,1,.5.3.793.793,0,0,1-.056.623c-.1.186-.346.29-.508.45-.2.2-.343.191-.574,0a2.044,2.044,0,0,0-2.494-.228,2.957,2.957,0,0,0-1.482,1.8,2.2,2.2,0,0,1-1.354,1.253.961.961,0,0,1-.771-.134,1.584,1.584,0,0,1-.65-1.728,1.3,1.3,0,0,1,1.629-.854c.131.061.121.487.028.521s-.287-.09-.311.089a.34.34,0,0,0,.192.354.619.619,0,0,0,.5,0,.668.668,0,0,0,.239-.487.865.865,0,0,0-.523-.87,1.324,1.324,0,0,0-1.351.135,2.013,2.013,0,0,0,.188,3.289c.147.094.3.177.508.3-.171.126-.293.228-.426.313-.813.515-1.653.994-2.436,1.551a7.53,7.53,0,0,0-1.574,1.387,6.629,6.629,0,0,0-.586,1.109c-.021.22-.047.4-.053.572a1.84,1.84,0,0,0,.013.267,1.8,1.8,0,0,0-.267-.012c-.176,0-.352.031-.573.052a6.625,6.625,0,0,0-1.109.585,7.531,7.531,0,0,0-1.386,1.574c-.557.784-1.036,1.623-1.551,2.436-.084.133-.186.254-.312.425-.122-.207-.207-.36-.3-.508a2.013,2.013,0,0,0-3.289-.189,1.328,1.328,0,0,0-.135,1.351.866.866,0,0,0,.871.523.67.67,0,0,0,.487-.239.627.627,0,0,0,0-.5.342.342,0,0,0-.353-.191c-.181.024-.054.212-.09.312s-.46.1-.52-.028a1.3,1.3,0,0,1,.853-1.629,1.58,1.58,0,0,1,1.728.65.957.957,0,0,1,.134.77,2.2,2.2,0,0,1-1.252,1.355,2.95,2.95,0,0,0-1.8,1.481,2.043,2.043,0,0,0,.227,2.494c.192.231.2.372,0,.574-.159.164-.264.4-.45.51a.793.793,0,0,1-.623.054.72.72,0,0,1-.3-.5c-.03-.2.045-.42.366-.384.159.018.611.154.564-.119s-.608-.432-.946-.228a.834.834,0,0,0-.354,1.057,1.64,1.64,0,0,0,.638.56c.228.105.332.16.3.442a2.181,2.181,0,0,0,.391,1.574,9.622,9.622,0,0,0-.118,1.48,9.617,9.617,0,0,0,.124,1.529,2.18,2.18,0,0,0-.4,1.583c.032.282-.073.337-.3.443a1.64,1.64,0,0,0-.638.56.835.835,0,0,0,.354,1.057c.338.2.9.046.946-.228s-.406-.136-.564-.118c-.321.036-.4-.18-.366-.384a.72.72,0,0,1,.3-.5.793.793,0,0,1,.623.054c.186.105.291.346.45.509.2.2.191.342,0,.574a2.043,2.043,0,0,0-.227,2.494,2.949,2.949,0,0,0,1.8,1.481,2.2,2.2,0,0,1,1.252,1.355.957.957,0,0,1-.134.77,1.581,1.581,0,0,1-1.728.651,1.3,1.3,0,0,1-.853-1.629c.06-.132.486-.12.52-.028s-.091.288.09.312a.341.341,0,0,0,.353-.191.627.627,0,0,0,0-.5.668.668,0,0,0-.487-.239.865.865,0,0,0-.871.523,1.328,1.328,0,0,0,.135,1.351,2.013,2.013,0,0,0,3.289-.189c.093-.148.178-.3.3-.508.126.171.228.292.312.425.516.813.994,1.653,1.551,2.436a7.546,7.546,0,0,0,1.386,1.574,6.629,6.629,0,0,0,1.109.585c.22.021.4.047.573.052a1.805,1.805,0,0,0,.267-.013,1.836,1.836,0,0,0-.013.267c.006.176.031.353.053.573a6.628,6.628,0,0,0,.586,1.108,7.519,7.519,0,0,0,1.574,1.387c.784.557,1.623,1.036,2.436,1.551.133.085.254.187.426.313-.208.123-.361.206-.508.3a2.013,2.013,0,0,0-.188,3.289,1.325,1.325,0,0,0,1.351.135.865.865,0,0,0,.523-.87.668.668,0,0,0-.239-.486.62.62,0,0,0-.5,0,.34.34,0,0,0-.192.354c.024.18.211.052.311.09s.1.459-.028.521a1.3,1.3,0,0,1-1.629-.854,1.584,1.584,0,0,1,.65-1.728.961.961,0,0,1,.771-.133,2.2,2.2,0,0,1,1.354,1.252,2.958,2.958,0,0,0,1.482,1.8,2.044,2.044,0,0,0,2.494-.228c.231-.192.373-.2.574,0,.162.159.4.264.508.45a.793.793,0,0,1,.056.623.718.718,0,0,1-.5.3c-.2.03-.419-.045-.384-.366.018-.159.155-.61-.119-.564s-.431.609-.228.947a.834.834,0,0,0,1.057.354,1.656,1.656,0,0,0,.56-.638c.106-.228.161-.333.443-.3a2.174,2.174,0,0,0,1.659-.45,9.571,9.571,0,0,0,1.384.106,9.6,9.6,0,0,0,1.456-.115,2.17,2.17,0,0,0,1.668.458c.282-.034.337.072.443.3a1.66,1.66,0,0,0,.56.638.834.834,0,0,0,1.057-.354c.2-.338.045-.9-.227-.947s-.137.406-.119.564c.035.321-.18.4-.384.366a.719.719,0,0,1-.5-.3.794.794,0,0,1,.056-.623c.1-.186.346-.291.508-.45.2-.2.343-.191.574,0a2.044,2.044,0,0,0,2.494.228,2.959,2.959,0,0,0,1.481-1.8,2.2,2.2,0,0,1,1.354-1.252.961.961,0,0,1,.771.133,1.584,1.584,0,0,1,.65,1.728,1.3,1.3,0,0,1-1.629.854c-.132-.061-.121-.487-.028-.521s.287.09.311-.09a.341.341,0,0,0-.192-.354.62.62,0,0,0-.5,0,.668.668,0,0,0-.239.486.866.866,0,0,0,.523.87,1.325,1.325,0,0,0,1.351-.135,2.013,2.013,0,0,0-.188-3.289c-.147-.094-.3-.177-.508-.3.172-.126.293-.228.426-.312.813-.515,1.652-.994,2.436-1.551A7.53,7.53,0,0,0,564-577.252a6.659,6.659,0,0,0,.586-1.108c.021-.22.047-.4.053-.573a1.811,1.811,0,0,0-.013-.267,1.81,1.81,0,0,0,.267.013c.177,0,.352-.032.573-.052a6.624,6.624,0,0,0,1.109-.585,7.562,7.562,0,0,0,1.386-1.574c.557-.784,1.036-1.623,1.551-2.436.084-.133.186-.254.312-.425.122.207.207.36.3.508a2.013,2.013,0,0,0,3.29.189,1.328,1.328,0,0,0,.135-1.351.865.865,0,0,0-.871-.523.67.67,0,0,0-.487.239.626.626,0,0,0,0,.5.341.341,0,0,0,.353.191c.181-.024.054-.212.09-.312s.46-.1.52.028a1.3,1.3,0,0,1-.853,1.629,1.58,1.58,0,0,1-1.727-.651.958.958,0,0,1-.134-.77,2.2,2.2,0,0,1,1.253-1.355,2.949,2.949,0,0,0,1.8-1.481,2.043,2.043,0,0,0-.227-2.494c-.192-.231-.2-.372,0-.574.159-.164.264-.4.451-.509a.792.792,0,0,1,.622-.054.719.719,0,0,1,.3.5c.03.2-.044.42-.366.384-.159-.018-.611-.154-.565.118s.608.432.946.228a.835.835,0,0,0,.354-1.057A1.639,1.639,0,0,0,574.373-591.431Z" transform="translate(-521.636 622.192)" fill-rule="evenodd"/>
      <path id="Path_791" data-name="Path 791" d="M550.765-570.211a1.532,1.532,0,0,1-.86-.255,2.734,2.734,0,0,1-.743-.749,3.181,3.181,0,0,1-1.617-.432,9.982,9.982,0,0,1-2.335.006,3.182,3.182,0,0,1-1.607.427,2.736,2.736,0,0,1-.742.748,1.592,1.592,0,0,1-1.249.212,1.967,1.967,0,0,1-1.241-.885,1.586,1.586,0,0,1-.158-.358,3.257,3.257,0,0,1-1.858-.434,4.33,4.33,0,0,1-.807-.564,1.771,1.771,0,0,1-.832.668,2.331,2.331,0,0,1-2.325-.257,2.919,2.919,0,0,1-1.178-2.46,3.084,3.084,0,0,1,.722-1.888c-.561-.344-1.14-.7-1.7-1.1a8.466,8.466,0,0,1-1.782-1.585,5.722,5.722,0,0,1-.45-.754,2.789,2.789,0,0,1-.35-.853,2.771,2.771,0,0,1-.853-.35,5.8,5.8,0,0,1-.752-.448,8.468,8.468,0,0,1-1.586-1.784c-.4-.558-.753-1.137-1.1-1.7a3.083,3.083,0,0,1-1.887.723,2.91,2.91,0,0,1-2.462-1.178,2.337,2.337,0,0,1-.258-2.325,1.78,1.78,0,0,1,.669-.833,4.326,4.326,0,0,1-.562-.806,3.277,3.277,0,0,1-.436-1.859,1.6,1.6,0,0,1-.36-.159,1.969,1.969,0,0,1-.883-1.24,1.59,1.59,0,0,1,.211-1.246,2.711,2.711,0,0,1,.749-.744,3.2,3.2,0,0,1,.373-1.5,10.553,10.553,0,0,1-.082-1.307,10.52,10.52,0,0,1,.077-1.257,3.209,3.209,0,0,1-.368-1.492,2.723,2.723,0,0,1-.751-.747,1.591,1.591,0,0,1-.21-1.244,1.97,1.97,0,0,1,.885-1.242,1.587,1.587,0,0,1,.358-.159,3.272,3.272,0,0,1,.435-1.858,4.329,4.329,0,0,1,.563-.806,1.781,1.781,0,0,1-.667-.832,2.337,2.337,0,0,1,.257-2.327,2.921,2.921,0,0,1,2.462-1.178,3.083,3.083,0,0,1,1.887.722c.343-.561.7-1.14,1.1-1.7a8.476,8.476,0,0,1,1.583-1.781,5.762,5.762,0,0,1,.755-.45,2.774,2.774,0,0,1,.853-.35,2.787,2.787,0,0,1,.35-.853,5.712,5.712,0,0,1,.45-.754,8.47,8.47,0,0,1,1.781-1.584c.558-.4,1.138-.752,1.7-1.1a3.084,3.084,0,0,1-.722-1.887,2.919,2.919,0,0,1,1.178-2.461,2.335,2.335,0,0,1,2.326-.257,1.773,1.773,0,0,1,.831.667,4.315,4.315,0,0,1,.805-.563,3.283,3.283,0,0,1,1.859-.435,1.6,1.6,0,0,1,.158-.358,1.967,1.967,0,0,1,1.24-.885,1.591,1.591,0,0,1,1.247.211,2.73,2.73,0,0,1,.744.75,3.212,3.212,0,0,1,1.508.376,10.337,10.337,0,0,1,2.529.006,3.2,3.2,0,0,1,1.522-.383,2.729,2.729,0,0,1,.742-.748,1.592,1.592,0,0,1,1.249-.213,1.969,1.969,0,0,1,1.241.886,1.623,1.623,0,0,1,.158.358,3.26,3.26,0,0,1,1.857.434,4.334,4.334,0,0,1,.807.564,1.775,1.775,0,0,1,.832-.668,2.333,2.333,0,0,1,2.325.258,2.918,2.918,0,0,1,1.178,2.46,3.085,3.085,0,0,1-.722,1.887c.561.344,1.14.7,1.7,1.1a8.474,8.474,0,0,1,1.782,1.585,5.739,5.739,0,0,1,.45.754,2.788,2.788,0,0,1,.35.853,2.769,2.769,0,0,1,.853.35,5.768,5.768,0,0,1,.752.448,8.48,8.48,0,0,1,1.586,1.783c.4.558.752,1.138,1.1,1.7a3.082,3.082,0,0,1,1.886-.722,2.914,2.914,0,0,1,2.462,1.178,2.336,2.336,0,0,1,.258,2.325,1.782,1.782,0,0,1-.668.833,4.307,4.307,0,0,1,.562.805,3.276,3.276,0,0,1,.436,1.859,1.614,1.614,0,0,1,.36.159,1.971,1.971,0,0,1,.883,1.24,1.591,1.591,0,0,1-.212,1.246,2.7,2.7,0,0,1-.748.744,3.167,3.167,0,0,1-.437,1.624,10.12,10.12,0,0,1,.064,1.125,10.2,10.2,0,0,1-.069,1.178,3.166,3.166,0,0,1,.442,1.63,2.721,2.721,0,0,1,.75.746,1.59,1.59,0,0,1,.21,1.244,1.971,1.971,0,0,1-.885,1.242,1.579,1.579,0,0,1-.358.158,3.269,3.269,0,0,1-.435,1.858,4.309,4.309,0,0,1-.562.805,1.782,1.782,0,0,1,.667.832,2.337,2.337,0,0,1-.257,2.327,2.932,2.932,0,0,1-2.462,1.178A3.083,3.083,0,0,1,567.4-585c-.344.561-.7,1.14-1.1,1.7a8.464,8.464,0,0,1-1.583,1.781,5.769,5.769,0,0,1-.755.45,2.772,2.772,0,0,1-.853.35,2.79,2.79,0,0,1-.35.853,5.745,5.745,0,0,1-.45.754,8.472,8.472,0,0,1-1.782,1.585c-.558.4-1.137.752-1.7,1.1a3.082,3.082,0,0,1,.722,1.888,2.918,2.918,0,0,1-1.179,2.461,2.332,2.332,0,0,1-2.326.256,1.772,1.772,0,0,1-.831-.667,4.317,4.317,0,0,1-.805.563,3.291,3.291,0,0,1-1.859.435,1.6,1.6,0,0,1-.158.358,1.969,1.969,0,0,1-1.241.885A1.78,1.78,0,0,1,550.765-570.211Zm-7.56-3.05a1.775,1.775,0,0,1,.215.013,1.174,1.174,0,0,0,.9-.228l.345-.282.441.065a8.555,8.555,0,0,0,1.238.1,8.667,8.667,0,0,0,1.3-.1l.449-.069.35.29a1.165,1.165,0,0,0,.9.232,1.419,1.419,0,0,1,.228-.013,2.11,2.11,0,0,1,.482-.443,1.114,1.114,0,0,0,.094-.07,1.342,1.342,0,0,1,1.924-.052,1.051,1.051,0,0,0,1.365.118,1.94,1.94,0,0,0,1-1.211,2.582,2.582,0,0,1,1-1.361l-.194-.114,1.236-.909c.055-.04.1-.077.15-.113.119-.091.223-.169.332-.238.263-.166.526-.328.79-.489.563-.345,1.1-.672,1.6-1.033a6.682,6.682,0,0,0,1.366-1.189c.059-.087.284-.5.387-.714l.008-.076c.012-.107.023-.2.027-.3a.91.91,0,0,0-.006-.118l-.144-1.263,1.263.143a.831.831,0,0,0,.117.007c.1,0,.19-.014.29-.025l.088-.01c.212-.1.629-.33.733-.4a6.743,6.743,0,0,0,1.168-1.351c.359-.5.682-1.032,1.025-1.592.164-.268.328-.535.5-.8.071-.112.15-.218.243-.34.034-.044.07-.092.11-.145l.908-1.229.113.191a2.588,2.588,0,0,1,1.362-1,1.935,1.935,0,0,0,1.211-1A1.049,1.049,0,0,0,570-591.75a1.344,1.344,0,0,1,.053-1.928c.022-.025.044-.058.067-.091a2.11,2.11,0,0,1,.444-.483,1.788,1.788,0,0,1,.012-.226,1.163,1.163,0,0,0-.236-.911l-.294-.349.068-.451a8.6,8.6,0,0,0,.1-1.285,8.479,8.479,0,0,0-.1-1.237l-.065-.447.289-.346a1.161,1.161,0,0,0,.233-.9,1.782,1.782,0,0,1-.012-.229,2.123,2.123,0,0,1-.444-.483,1.086,1.086,0,0,0-.071-.1A1.341,1.341,0,0,1,570-603.14a1.05,1.05,0,0,0,.117-1.365,1.934,1.934,0,0,0-1.21-1,2.591,2.591,0,0,1-1.363-1l-.112.191-.908-1.229c-.039-.053-.075-.1-.11-.145-.093-.121-.172-.227-.243-.339-.169-.266-.333-.534-.5-.8-.343-.559-.666-1.087-1.025-1.591a6.678,6.678,0,0,0-1.189-1.367c-.086-.058-.5-.283-.711-.385l-.087-.01c-.1-.011-.191-.023-.282-.025a.753.753,0,0,0-.124.006l-1.264.146.144-1.265a.915.915,0,0,0,.006-.119c0-.1-.015-.192-.027-.3l-.008-.076c-.1-.212-.33-.629-.4-.733a6.708,6.708,0,0,0-1.351-1.17c-.507-.36-1.039-.687-1.6-1.031-.264-.162-.528-.324-.789-.489-.111-.071-.215-.148-.334-.239-.046-.035-.1-.073-.15-.113l-1.236-.908.2-.115a2.582,2.582,0,0,1-1-1.363,1.941,1.941,0,0,0-1-1.211,1.049,1.049,0,0,0-1.362.117,1.344,1.344,0,0,1-1.929-.054c-.026-.023-.059-.044-.091-.067a2.113,2.113,0,0,1-.482-.443,1.633,1.633,0,0,1-.23-.013,1.172,1.172,0,0,0-.866.209l-.345.262-.427-.069a8.446,8.446,0,0,0-2.67-.008l-.419.065-.34-.254a1.176,1.176,0,0,0-.863-.205,1.555,1.555,0,0,1-.227.013,2.107,2.107,0,0,1-.482.443,1.068,1.068,0,0,0-.094.07,1.342,1.342,0,0,1-1.924.053,1.051,1.051,0,0,0-1.366-.118,1.939,1.939,0,0,0-1,1.211,2.586,2.586,0,0,1-1,1.362l.194.115-1.236.908-.15.113c-.119.091-.223.168-.332.238-.263.167-.527.328-.791.49-.563.345-1.094.671-1.6,1.032a6.677,6.677,0,0,0-1.366,1.189c-.059.087-.284.5-.387.713l-.008.076c-.012.107-.023.2-.027.3a.8.8,0,0,0,.007.119l.143,1.265-1.264-.146a.873.873,0,0,0-.116-.006c-.1,0-.19.014-.291.025l-.087.01c-.212.1-.629.329-.733.4a6.714,6.714,0,0,0-1.168,1.351c-.359.5-.682,1.032-1.025,1.591-.164.268-.328.536-.5.8-.071.112-.15.218-.243.34-.034.045-.07.092-.109.145l-.908,1.229-.113-.191a2.587,2.587,0,0,1-1.362,1,1.934,1.934,0,0,0-1.211,1,1.05,1.05,0,0,0,.116,1.364,1.343,1.343,0,0,1-.053,1.928c-.022.025-.044.059-.068.092a2.124,2.124,0,0,1-.444.483,1.8,1.8,0,0,1-.012.225,1.182,1.182,0,0,0,.2.859l.25.339-.065.416a8.628,8.628,0,0,0-.106,1.324,8.643,8.643,0,0,0,.111,1.369l.068.422-.256.343a1.179,1.179,0,0,0-.2.86,1.787,1.787,0,0,1,.012.229,2.115,2.115,0,0,1,.444.483,1.089,1.089,0,0,0,.072.1,1.341,1.341,0,0,1,.049,1.922,1.05,1.05,0,0,0-.116,1.365,1.932,1.932,0,0,0,1.21,1,2.594,2.594,0,0,1,1.363,1l.113-.191.908,1.229c.039.053.075.1.109.145.093.122.172.228.243.339.168.265.332.533.5.8.343.559.666,1.087,1.025,1.592a6.684,6.684,0,0,0,1.189,1.367c.086.058.5.283.712.385l.088.01c.1.011.19.022.281.025a.781.781,0,0,0,.126-.006l1.263-.143-.143,1.263a.79.79,0,0,0-.007.118c0,.1.015.192.027.3l.008.076c.1.212.33.63.4.733a6.7,6.7,0,0,0,1.352,1.17c.508.361,1.04.687,1.6,1.032.263.161.526.323.787.488.111.071.216.149.335.24.046.035.095.073.149.113l1.236.909-.194.115a2.585,2.585,0,0,1,1,1.362,1.94,1.94,0,0,0,1,1.21,1.048,1.048,0,0,0,1.362-.117,1.344,1.344,0,0,1,1.93.054c.025.022.059.044.091.067a2.1,2.1,0,0,1,.483.444Zm13.712-.837Zm-21.068,0ZM569.73-586.91Zm-46.694,0Zm46.694-21.07Zm-46.694,0Zm33.881-12.812Zm-21.068,0Z" transform="translate(-519.148 624.68)"/>
    </g>
    <g id="Group_121" data-name="Group 121" transform="translate(1.034 1.016)">
      <g id="Group_111" data-name="Group 111" transform="translate(0 10.452)">
        <g id="Group_109" data-name="Group 109">
          <path id="Path_792" data-name="Path 792" d="M529.81-570.307a.353.353,0,0,0,.169-.477c-.136-.23-.588-.064-.955.274a2.362,2.362,0,0,1-2.04.427,6.708,6.708,0,0,1-1.706-.516,1.574,1.574,0,0,1-.629-2.254c.151-.3.338-.535.722-.426a.764.764,0,0,1,.63.766c-.008.756-.524.743-.544.721-.12-.142-.462-.745-.61-.2a.533.533,0,0,0,.334.585.722.722,0,0,0,.828-.138,1.229,1.229,0,0,0,.425-.948,1.228,1.228,0,0,0-.756-1.122.655.655,0,0,1-.535-.6,1.251,1.251,0,0,0-.341-.521,1.394,1.394,0,0,1-.247-1.511,2.634,2.634,0,0,1,1.629-1.655c.194-.066.376-.162.626-.27-.169.574-.336,1.081-.466,1.6a3.9,3.9,0,0,0,1.987,4.272,4.336,4.336,0,0,0,1.285.228c.1.012.221-.09.333-.14l-.034-.116a4.083,4.083,0,0,1-.894-.075,3.313,3.313,0,0,1-2.32-3.789,4.789,4.789,0,0,1,1.169-2.918,3.8,3.8,0,0,1,2.539-1.59,1.319,1.319,0,0,1,1.306.476,1.108,1.108,0,0,1-.082,1.366,1.221,1.221,0,0,1-.408.412,2.058,2.058,0,0,0-1.521-.779c-.084,0-.166-.116-.249-.18a2.372,2.372,0,0,1,.378-.47c.082-.063.261-.006.393.014.025,0-.042.2.044.3a.6.6,0,0,0,.54.149.435.435,0,0,0,.244-.5.647.647,0,0,0-.345-.421,1.211,1.211,0,0,0-1.609.715,3.448,3.448,0,0,1-.9,1.36,4.572,4.572,0,0,0-1.065,2.432,3.125,3.125,0,0,0,2.089,3.081c.192.037.155-.138.379-.193a2.684,2.684,0,0,1-2.115-2.294,1.926,1.926,0,0,1,0-.809,4.645,4.645,0,0,1,1.052-2.225c.347-.355.435-.4.743,0a1.335,1.335,0,0,0,1.391.477,1.506,1.506,0,0,1-1.08,1.553.928.928,0,0,1-.772-.169.55.55,0,0,1-.038-.719c.062-.162.217-.084.255-.062.151.086.3.173.45.259.2.045.373-.1.16-.352a.843.843,0,0,0-.481-.322.859.859,0,0,0-.79.99.8.8,0,0,0,.925.738,1.742,1.742,0,0,0,1.517-1.154,3.3,3.3,0,0,1,.84-1.437,1.45,1.45,0,0,0,.031-2.231c-.28-.269-.585-.24-.974-.383a2.7,2.7,0,0,0-.593-.065c.173-.216.272-.359.392-.485a6.981,6.981,0,0,0,1.39-2.343,1.1,1.1,0,0,1,1.451-.689,1.062,1.062,0,0,1,.834,1.3c-.106.5-.244,1.055-.849,1.207-.15.038-.344-.11-.52-.172-.137-.4.311-.235.415-.409a.653.653,0,0,0,.135-.444c-.1-.1-.2-.271-.31-.28a.6.6,0,0,0-.453.166,1.031,1.031,0,0,0,.081,1.344,1.16,1.16,0,0,0,1.412-.31,3.146,3.146,0,0,0,.4-1.285A1.422,1.422,0,0,0,532.924-585c-.176,0-.352.031-.573.052a6.628,6.628,0,0,0-1.109.585,7.54,7.54,0,0,0-1.386,1.574c-.557.784-1.036,1.623-1.551,2.436-.084.133-.186.254-.312.425-.122-.207-.207-.36-.3-.508a2.013,2.013,0,0,0-3.29-.189,1.328,1.328,0,0,0-.135,1.351.866.866,0,0,0,.871.523.67.67,0,0,0,.487-.239.626.626,0,0,0,0-.5.341.341,0,0,0-.353-.191c-.181.024-.054.212-.09.312s-.46.1-.52-.028a1.3,1.3,0,0,1,.853-1.629,1.581,1.581,0,0,1,1.728.651.957.957,0,0,1,.134.77,2.2,2.2,0,0,1-1.253,1.355,2.949,2.949,0,0,0-1.8,1.481,2.043,2.043,0,0,0,.227,2.495c.192.231.2.372,0,.574-.159.164-.264.4-.451.509a.791.791,0,0,1-.623.054.716.716,0,0,1-.3-.5c-.031-.2.044-.42.366-.383.159.017.611.154.564-.119s-.608-.432-.946-.228a.835.835,0,0,0-.354,1.057,1.644,1.644,0,0,0,.638.56c.228.106.333.161.3.443a2.112,2.112,0,0,0,1.312,2.289A5.011,5.011,0,0,0,529.81-570.307Zm.865-7.975c-.588.258-.952.105-1.169-.521C530.131-578.931,530.545-578.738,530.675-578.283Zm-1.707-2.492c1.028-1.863,1.929-3.049,2.435-3.22A5.944,5.944,0,0,1,528.968-580.775Z" transform="translate(-522.726 585)" fill="#e8b470" fill-rule="evenodd"/>
        </g>
        <g id="Group_110" data-name="Group 110" transform="translate(0 16.079)">
          <path id="Path_793" data-name="Path 793" d="M525.059-528.9a2.112,2.112,0,0,0-1.312,2.289c.033.283-.072.337-.3.443a1.649,1.649,0,0,0-.638.559.835.835,0,0,0,.354,1.057c.338.2.9.046.946-.228s-.406-.136-.564-.119c-.321.036-.4-.179-.366-.383a.719.719,0,0,1,.3-.5.789.789,0,0,1,.623.055c.187.106.291.346.451.508.2.2.191.344,0,.574a2.043,2.043,0,0,0-.227,2.495,2.948,2.948,0,0,0,1.8,1.481,2.2,2.2,0,0,1,1.253,1.354.958.958,0,0,1-.134.771,1.582,1.582,0,0,1-1.728.651,1.3,1.3,0,0,1-.853-1.629c.06-.131.486-.121.52-.029s-.091.289.09.312a.341.341,0,0,0,.353-.191.624.624,0,0,0,0-.5.672.672,0,0,0-.487-.24.868.868,0,0,0-.871.523,1.329,1.329,0,0,0,.135,1.351,2.013,2.013,0,0,0,3.29-.189c.093-.147.178-.3.3-.508.126.171.228.293.312.424.516.815.994,1.654,1.551,2.437a7.534,7.534,0,0,0,1.386,1.574,6.631,6.631,0,0,0,1.109.586c.22.021.4.047.573.053a1.422,1.422,0,0,0,1.585-1.45,3.143,3.143,0,0,0-.4-1.285,1.161,1.161,0,0,0-1.412-.31,1.031,1.031,0,0,0-.081,1.344.6.6,0,0,0,.453.166c.111-.01.208-.181.31-.28a.652.652,0,0,0-.135-.445c-.1-.174-.552-.012-.415-.409.175-.063.37-.21.52-.173.605.152.744.7.849,1.207a1.063,1.063,0,0,1-.834,1.3,1.1,1.1,0,0,1-1.451-.69,6.989,6.989,0,0,0-1.39-2.344c-.12-.126-.22-.27-.392-.485a2.733,2.733,0,0,0,.593-.064c.389-.144.693-.114.974-.384a1.45,1.45,0,0,0-.031-2.231,3.3,3.3,0,0,1-.84-1.437,1.743,1.743,0,0,0-1.517-1.155.8.8,0,0,0-.925.737.859.859,0,0,0,.79.99.835.835,0,0,0,.481-.322c.212-.249.041-.4-.16-.352l-.45.26c-.038.021-.193.1-.255-.062a.549.549,0,0,1,.038-.718.927.927,0,0,1,.772-.17,1.508,1.508,0,0,1,1.08,1.554,1.336,1.336,0,0,0-1.391.477c-.308.4-.4.354-.743,0a4.645,4.645,0,0,1-1.052-2.224,1.928,1.928,0,0,1,0-.809,2.684,2.684,0,0,1,2.115-2.294c-.224-.055-.187-.231-.379-.194a3.125,3.125,0,0,0-2.089,3.082,4.574,4.574,0,0,0,1.065,2.433,3.451,3.451,0,0,1,.9,1.359,1.212,1.212,0,0,0,1.609.715.648.648,0,0,0,.345-.422.434.434,0,0,0-.244-.5.6.6,0,0,0-.54.148c-.086.1-.019.3-.044.3-.132.019-.312.075-.393.013a2.389,2.389,0,0,1-.378-.47c.083-.063.165-.177.249-.18a2.056,2.056,0,0,0,1.521-.779,1.23,1.23,0,0,1,.408.411,1.108,1.108,0,0,1,.082,1.366,1.32,1.32,0,0,1-1.306.476,3.8,3.8,0,0,1-2.539-1.59,4.79,4.79,0,0,1-1.169-2.918,3.314,3.314,0,0,1,2.32-3.789,4.05,4.05,0,0,1,.894-.075l.034-.116c-.112-.05-.229-.153-.333-.139a4.291,4.291,0,0,0-1.285.228,3.9,3.9,0,0,0-1.987,4.272c.13.515.3,1.021.466,1.6-.25-.108-.432-.2-.626-.27a2.634,2.634,0,0,1-1.629-1.655,1.393,1.393,0,0,1,.247-1.511,1.255,1.255,0,0,0,.341-.522.655.655,0,0,1,.535-.6,1.23,1.23,0,0,0,.756-1.122,1.227,1.227,0,0,0-.425-.949.72.72,0,0,0-.828-.138.533.533,0,0,0-.334.585c.148.546.489-.057.61-.2.019-.023.536-.036.544.721a.763.763,0,0,1-.63.766c-.385.108-.571-.126-.722-.426a1.573,1.573,0,0,1,.629-2.253,6.576,6.576,0,0,1,1.706-.516,2.361,2.361,0,0,1,2.04.426c.366.337.818.5.955.273a.353.353,0,0,0-.169-.478A5.01,5.01,0,0,0,525.059-528.9Zm4.446,8.78c.217-.625.581-.779,1.169-.521C530.545-520.186,530.131-519.993,529.505-520.12Zm1.9,5.191c-.506-.171-1.407-1.356-2.435-3.22A5.945,5.945,0,0,1,531.4-514.929Z" transform="translate(-522.726 529.365)" fill="#e8b470" fill-rule="evenodd"/>
        </g>
      </g>
      <g id="Group_114" data-name="Group 114" transform="translate(40.634 10.452)">
        <g id="Group_112" data-name="Group 112">
          <path id="Path_794" data-name="Path 794" d="M672.776-570.023a2.113,2.113,0,0,0,1.311-2.289c-.033-.282.073-.337.3-.443a1.646,1.646,0,0,0,.64-.56.836.836,0,0,0-.354-1.057c-.339-.2-.9-.046-.947.228s.405.136.564.119c.321-.036.4.179.366.383a.718.718,0,0,1-.3.5.794.794,0,0,1-.624-.054c-.186-.105-.291-.345-.45-.509-.2-.2-.191-.343,0-.574a2.044,2.044,0,0,0,.227-2.495,2.951,2.951,0,0,0-1.8-1.481,2.2,2.2,0,0,1-1.252-1.355.958.958,0,0,1,.133-.77,1.582,1.582,0,0,1,1.729-.651,1.3,1.3,0,0,1,.853,1.629c-.061.132-.486.12-.52.028s.091-.288-.089-.312a.344.344,0,0,0-.355.191.625.625,0,0,0,0,.5.668.668,0,0,0,.485.239.865.865,0,0,0,.872-.523,1.328,1.328,0,0,0-.135-1.351,2.013,2.013,0,0,0-3.289.189c-.093.148-.178.3-.3.508-.126-.171-.227-.292-.312-.425-.515-.813-.994-1.653-1.551-2.436a7.513,7.513,0,0,0-1.386-1.574,6.638,6.638,0,0,0-1.109-.585c-.221-.021-.4-.048-.573-.052a1.421,1.421,0,0,0-1.584,1.449,3.133,3.133,0,0,0,.4,1.285,1.16,1.16,0,0,0,1.412.31,1.031,1.031,0,0,0,.081-1.344.6.6,0,0,0-.453-.166c-.11.009-.207.181-.31.28a.657.657,0,0,0,.134.444c.1.174.553.013.415.409-.174.062-.369.21-.519.172-.606-.152-.744-.7-.849-1.207a1.061,1.061,0,0,1,.833-1.3,1.1,1.1,0,0,1,1.45.689,6.99,6.99,0,0,0,1.39,2.343c.12.126.22.269.393.485a2.7,2.7,0,0,0-.594.065c-.388.144-.693.114-.973.383a1.451,1.451,0,0,0,.031,2.231,3.318,3.318,0,0,1,.842,1.437,1.737,1.737,0,0,0,1.516,1.154.8.8,0,0,0,.925-.738.859.859,0,0,0-.79-.99.842.842,0,0,0-.481.322c-.212.25-.041.4.16.352.15-.086.3-.173.45-.259.038-.022.192-.1.255.062a.552.552,0,0,1-.037.719.93.93,0,0,1-.773.169,1.5,1.5,0,0,1-1.079-1.553,1.335,1.335,0,0,0,1.39-.477c.308-.4.4-.355.743,0a4.654,4.654,0,0,1,1.053,2.225,1.918,1.918,0,0,1,0,.809,2.682,2.682,0,0,1-2.115,2.294c.223.055.188.23.379.193a3.126,3.126,0,0,0,2.09-3.081,4.573,4.573,0,0,0-1.067-2.432,3.466,3.466,0,0,1-.9-1.36,1.211,1.211,0,0,0-1.609-.715.647.647,0,0,0-.345.421.435.435,0,0,0,.244.5.605.605,0,0,0,.54-.149c.086-.1.018-.3.043-.3.133-.02.311-.076.394-.014a2.361,2.361,0,0,1,.378.47c-.083.063-.165.178-.249.18a2.057,2.057,0,0,0-1.52.779,1.213,1.213,0,0,1-.408-.412,1.106,1.106,0,0,1-.082-1.366,1.318,1.318,0,0,1,1.3-.476,3.8,3.8,0,0,1,2.539,1.59,4.784,4.784,0,0,1,1.169,2.918,3.312,3.312,0,0,1-2.319,3.789,4.08,4.08,0,0,1-.894.075l-.035.116c.112.051.229.153.333.14a4.323,4.323,0,0,0,1.284-.228,3.9,3.9,0,0,0,1.987-4.272c-.13-.516-.3-1.023-.466-1.6.249.109.432.2.625.27a2.635,2.635,0,0,1,1.629,1.655,1.394,1.394,0,0,1-.245,1.511,1.251,1.251,0,0,0-.342.521.656.656,0,0,1-.535.6,1.226,1.226,0,0,0-.755,1.122,1.225,1.225,0,0,0,.426.948.721.721,0,0,0,.827.138.533.533,0,0,0,.335-.585c-.147-.546-.49.057-.61.2-.018.022-.535.035-.543-.721a.765.765,0,0,1,.63-.766c.385-.109.571.127.722.426a1.573,1.573,0,0,1-.628,2.254,6.706,6.706,0,0,1-1.706.516,2.362,2.362,0,0,1-2.04-.427c-.367-.338-.818-.5-.955-.274a.353.353,0,0,0,.17.477A5.011,5.011,0,0,0,672.776-570.023Zm-4.447-8.78c-.216.626-.581.778-1.169.521C667.29-578.738,667.7-578.931,668.329-578.8Zm-1.9-5.192c.506.171,1.408,1.357,2.435,3.22A5.947,5.947,0,0,1,666.432-584Z" transform="translate(-663.319 585)" fill="#e8b470" fill-rule="evenodd"/>
        </g>
        <g id="Group_113" data-name="Group 113" transform="translate(0 16.079)">
          <path id="Path_795" data-name="Path 795" d="M668.025-528.617a.353.353,0,0,0-.17.478c.136.23.588.064.955-.273a2.36,2.36,0,0,1,2.04-.426,6.575,6.575,0,0,1,1.706.516,1.572,1.572,0,0,1,.628,2.253c-.151.3-.337.535-.722.426a.764.764,0,0,1-.63-.766c.008-.756.525-.743.543-.721.121.142.463.745.61.2a.533.533,0,0,0-.335-.585.719.719,0,0,0-.827.138,1.223,1.223,0,0,0-.426.949,1.228,1.228,0,0,0,.755,1.122.656.656,0,0,1,.535.6,1.255,1.255,0,0,0,.342.522,1.393,1.393,0,0,1,.245,1.511,2.636,2.636,0,0,1-1.629,1.655c-.193.066-.376.162-.625.27.168-.574.336-1.08.466-1.6a3.9,3.9,0,0,0-1.987-4.272,4.278,4.278,0,0,0-1.284-.228c-.1-.014-.221.089-.333.139l.035.116a4.047,4.047,0,0,1,.894.075,3.312,3.312,0,0,1,2.319,3.789,4.784,4.784,0,0,1-1.169,2.918,3.8,3.8,0,0,1-2.539,1.59,1.318,1.318,0,0,1-1.3-.476,1.107,1.107,0,0,1,.082-1.366,1.222,1.222,0,0,1,.408-.411,2.056,2.056,0,0,0,1.52.779c.084,0,.165.116.249.18a2.378,2.378,0,0,1-.378.47c-.082.061-.261.006-.394-.013-.025,0,.043-.2-.043-.3a.6.6,0,0,0-.54-.148.434.434,0,0,0-.244.5.648.648,0,0,0,.345.422,1.212,1.212,0,0,0,1.609-.715,3.468,3.468,0,0,1,.9-1.359,4.576,4.576,0,0,0,1.067-2.433,3.127,3.127,0,0,0-2.09-3.082c-.191-.037-.156.139-.379.194a2.682,2.682,0,0,1,2.115,2.294,1.92,1.92,0,0,1,0,.809,4.654,4.654,0,0,1-1.053,2.224c-.347.354-.435.4-.743,0a1.336,1.336,0,0,0-1.39-.477,1.506,1.506,0,0,1,1.079-1.554.929.929,0,0,1,.773.17.551.551,0,0,1,.037.718c-.062.163-.217.084-.255.062l-.45-.26c-.2-.044-.372.1-.16.352a.833.833,0,0,0,.481.322.859.859,0,0,0,.79-.99.8.8,0,0,0-.925-.737,1.738,1.738,0,0,0-1.516,1.155,3.318,3.318,0,0,1-.842,1.437,1.451,1.451,0,0,0-.031,2.231c.281.269.585.239.973.384a2.733,2.733,0,0,0,.594.064c-.173.216-.273.36-.393.485a7,7,0,0,0-1.39,2.344,1.1,1.1,0,0,1-1.45.69,1.062,1.062,0,0,1-.833-1.3c.1-.506.243-1.055.849-1.207.15-.038.345.11.519.173.138.4-.31.234-.415.409a.656.656,0,0,0-.134.445c.1.1.2.27.31.28a.6.6,0,0,0,.453-.166,1.031,1.031,0,0,0-.081-1.344,1.161,1.161,0,0,0-1.412.31,3.13,3.13,0,0,0-.4,1.285,1.422,1.422,0,0,0,1.584,1.45c.177-.006.352-.032.573-.053a6.642,6.642,0,0,0,1.109-.586,7.507,7.507,0,0,0,1.386-1.574c.557-.784,1.036-1.622,1.551-2.437.085-.132.186-.253.312-.424.122.208.208.361.3.508a2.012,2.012,0,0,0,3.289.189,1.328,1.328,0,0,0,.135-1.351.868.868,0,0,0-.872-.523.671.671,0,0,0-.485.24.624.624,0,0,0,0,.5.343.343,0,0,0,.355.191c.18-.023.052-.21.089-.312s.46-.1.52.029a1.3,1.3,0,0,1-.853,1.629,1.583,1.583,0,0,1-1.729-.651.96.96,0,0,1-.133-.771,2.2,2.2,0,0,1,1.252-1.354,2.951,2.951,0,0,0,1.8-1.481,2.044,2.044,0,0,0-.227-2.495c-.192-.23-.2-.373,0-.574.159-.162.264-.4.45-.508a.792.792,0,0,1,.624-.055.721.721,0,0,1,.3.5c.03.2-.045.419-.366.383-.159-.017-.611-.155-.564.119s.608.431.947.228a.836.836,0,0,0,.354-1.057,1.651,1.651,0,0,0-.64-.559c-.226-.106-.332-.161-.3-.443a2.113,2.113,0,0,0-1.311-2.289A5.01,5.01,0,0,0,668.025-528.617Zm-.865,7.975c.588-.258.953-.1,1.169.521C667.7-519.993,667.29-520.186,667.16-520.641Zm1.707,2.492c-1.027,1.864-1.929,3.049-2.435,3.22A5.948,5.948,0,0,1,668.867-518.149Z" transform="translate(-663.319 529.365)" fill="#e8b470" fill-rule="evenodd"/>
        </g>
      </g>
      <g id="Group_117" data-name="Group 117" transform="translate(10.452 40.634)">
        <g id="Group_115" data-name="Group 115">
          <path id="Path_796" data-name="Path 796" d="M573.582-475.863a.351.351,0,0,0-.477-.17c-.231.136-.065.589.274.954a2.366,2.366,0,0,1,.427,2.04,6.673,6.673,0,0,1-.516,1.706,1.573,1.573,0,0,1-2.254.629c-.3-.151-.535-.338-.427-.722a.764.764,0,0,1,.767-.629c.756.007.743.524.721.543-.143.121-.746.463-.2.611a.532.532,0,0,0,.585-.336.719.719,0,0,0-.137-.826,1.227,1.227,0,0,0-.949-.426,1.231,1.231,0,0,0-1.121.756.655.655,0,0,1-.6.534,1.244,1.244,0,0,0-.521.342,1.393,1.393,0,0,1-1.512.244,2.633,2.633,0,0,1-1.655-1.628c-.066-.193-.162-.377-.271-.626.574.169,1.08.336,1.6.467a3.9,3.9,0,0,0,4.271-1.988,4.362,4.362,0,0,0,.23-1.285c.012-.1-.091-.222-.141-.333l-.116.034a4.158,4.158,0,0,1-.076.894,3.312,3.312,0,0,1-3.788,2.32,4.79,4.79,0,0,1-2.919-1.168,3.8,3.8,0,0,1-1.589-2.541,1.319,1.319,0,0,1,.475-1.3,1.109,1.109,0,0,1,1.367.082,1.238,1.238,0,0,1,.411.407,2.06,2.06,0,0,0-.779,1.521c0,.084-.116.166-.179.248a2.361,2.361,0,0,1-.471-.378c-.062-.082-.006-.26.013-.393,0-.025.206.042.3-.044a.6.6,0,0,0,.147-.539.431.431,0,0,0-.5-.245.645.645,0,0,0-.421.346,1.212,1.212,0,0,0,.714,1.609,3.464,3.464,0,0,1,1.36.9,4.575,4.575,0,0,0,2.433,1.066,3.126,3.126,0,0,0,3.081-2.089c.038-.193-.138-.156-.193-.38a2.682,2.682,0,0,1-2.294,2.115,1.9,1.9,0,0,1-.809,0,4.658,4.658,0,0,1-2.224-1.053c-.354-.347-.4-.435,0-.743a1.335,1.335,0,0,0,.477-1.391,1.506,1.506,0,0,1,1.554,1.078.929.929,0,0,1-.17.773.55.55,0,0,1-.719.038c-.162-.062-.083-.218-.061-.256.086-.15.173-.3.259-.449.044-.2-.1-.372-.352-.159a.839.839,0,0,0-.322.481.859.859,0,0,0,.99.789.8.8,0,0,0,.736-.925,1.737,1.737,0,0,0-1.154-1.516,3.3,3.3,0,0,1-1.436-.84,1.451,1.451,0,0,0-2.232-.031c-.269.28-.24.585-.383.974a2.692,2.692,0,0,0-.066.594c-.216-.173-.359-.273-.484-.392a7,7,0,0,0-2.345-1.39,1.1,1.1,0,0,1-.689-1.451,1.063,1.063,0,0,1,1.3-.834c.5.106,1.055.244,1.206.85.038.149-.109.345-.172.518-.4.138-.235-.31-.409-.415a.663.663,0,0,0-.445-.134c-.1.1-.27.2-.28.309a.605.605,0,0,0,.166.454,1.032,1.032,0,0,0,1.344-.082,1.16,1.16,0,0,0-.31-1.411,3.126,3.126,0,0,0-1.284-.4,1.422,1.422,0,0,0-1.45,1.584c.006.176.032.353.053.573a6.619,6.619,0,0,0,.585,1.108,7.562,7.562,0,0,0,1.574,1.387c.783.556,1.623,1.036,2.436,1.552.133.084.254.186.426.311-.208.122-.361.205-.508.3a2.013,2.013,0,0,0-.188,3.29,1.328,1.328,0,0,0,1.351.135.868.868,0,0,0,.523-.872.674.674,0,0,0-.239-.487.621.621,0,0,0-.5,0,.34.34,0,0,0-.192.353c.024.181.211.053.311.09s.1.46-.028.52a1.3,1.3,0,0,1-1.629-.853,1.584,1.584,0,0,1,.65-1.728.961.961,0,0,1,.771-.135,2.2,2.2,0,0,1,1.354,1.254,2.955,2.955,0,0,0,1.481,1.8,2.043,2.043,0,0,0,2.494-.227c.232-.192.373-.2.574,0,.163.159.4.264.508.451a.789.789,0,0,1,.056.622.717.717,0,0,1-.5.3c-.2.029-.419-.045-.384-.366.018-.159.155-.611-.119-.565s-.43.608-.227.947a.834.834,0,0,0,1.057.353,1.647,1.647,0,0,0,.56-.638c.106-.227.161-.333.443-.3a2.112,2.112,0,0,0,2.29-1.311A5.008,5.008,0,0,0,573.582-475.863Zm-7.975-.865c.258.588.1.952-.521,1.169C564.959-476.185,565.152-476.6,565.607-476.728Zm-2.492,1.707c-1.864-1.028-3.049-1.929-3.22-2.434A5.943,5.943,0,0,1,563.115-475.022Z" transform="translate(-558.889 480.57)" fill="#e8b470" fill-rule="evenodd"/>
        </g>
        <g id="Group_116" data-name="Group 116" transform="translate(16.08)">
          <path id="Path_797" data-name="Path 797" d="M614.991-471.112a2.109,2.109,0,0,0,2.289,1.311c.282-.033.337.073.443.3a1.64,1.64,0,0,0,.559.638.835.835,0,0,0,1.058-.353c.2-.338.047-.9-.228-.947s-.136.406-.118.565c.036.321-.18.4-.384.366a.716.716,0,0,1-.5-.3.787.787,0,0,1,.055-.622c.1-.187.344-.292.508-.451.2-.2.344-.191.574,0a2.044,2.044,0,0,0,2.494.227,2.95,2.95,0,0,0,1.48-1.8,2.2,2.2,0,0,1,1.355-1.254.959.959,0,0,1,.77.135,1.582,1.582,0,0,1,.651,1.728,1.3,1.3,0,0,1-1.629.853c-.132-.06-.121-.486-.029-.52s.288.09.313-.09a.341.341,0,0,0-.193-.353.619.619,0,0,0-.5,0,.671.671,0,0,0-.239.487.867.867,0,0,0,.523.872,1.328,1.328,0,0,0,1.351-.135,2.014,2.014,0,0,0-.189-3.29c-.147-.094-.3-.178-.508-.3.17-.126.292-.227.424-.311.813-.516,1.653-1,2.436-1.552a7.546,7.546,0,0,0,1.574-1.387,6.625,6.625,0,0,0,.585-1.108c.022-.22.047-.4.053-.573a1.423,1.423,0,0,0-1.45-1.584,3.126,3.126,0,0,0-1.285.4,1.158,1.158,0,0,0-.31,1.411,1.031,1.031,0,0,0,1.343.082.605.605,0,0,0,.166-.454c-.009-.11-.181-.207-.279-.309a.665.665,0,0,0-.446.134c-.173.105-.012.553-.408.415-.063-.174-.21-.37-.172-.518.152-.605.7-.744,1.207-.85a1.063,1.063,0,0,1,1.3.834,1.1,1.1,0,0,1-.69,1.451,6.985,6.985,0,0,0-2.343,1.39c-.126.119-.269.219-.485.392a2.73,2.73,0,0,0-.065-.594c-.143-.389-.114-.694-.383-.974a1.449,1.449,0,0,0-2.23.031,3.316,3.316,0,0,1-1.438.84,1.74,1.74,0,0,0-1.154,1.516.8.8,0,0,0,.736.925.858.858,0,0,0,.99-.789.838.838,0,0,0-.322-.481c-.248-.212-.4-.041-.351.159.087.15.174.3.26.449.022.038.1.194-.061.256a.55.55,0,0,1-.719-.038.93.93,0,0,1-.17-.773,1.506,1.506,0,0,1,1.553-1.078,1.335,1.335,0,0,0,.477,1.391c.4.307.355.4,0,.743a4.652,4.652,0,0,1-2.224,1.053,1.905,1.905,0,0,1-.809,0,2.683,2.683,0,0,1-2.294-2.115c-.054.224-.23.188-.193.38a3.127,3.127,0,0,0,3.082,2.089,4.571,4.571,0,0,0,2.432-1.066,3.466,3.466,0,0,1,1.36-.9,1.212,1.212,0,0,0,.715-1.609.647.647,0,0,0-.421-.346.433.433,0,0,0-.5.245.6.6,0,0,0,.147.539c.1.086.3.019.3.044.019.133.076.311.013.393a2.325,2.325,0,0,1-.47.378c-.063-.082-.177-.164-.178-.248a2.057,2.057,0,0,0-.78-1.521,1.231,1.231,0,0,1,.412-.407,1.107,1.107,0,0,1,1.365-.082,1.318,1.318,0,0,1,.475,1.3,3.8,3.8,0,0,1-1.589,2.541,4.791,4.791,0,0,1-2.918,1.168,3.312,3.312,0,0,1-3.789-2.32,4.174,4.174,0,0,1-.076-.894l-.115-.034c-.05.111-.152.228-.14.333a4.37,4.37,0,0,0,.229,1.285,3.9,3.9,0,0,0,4.271,1.988c.516-.131,1.022-.3,1.6-.467-.108.249-.2.432-.269.626a2.632,2.632,0,0,1-1.654,1.628,1.393,1.393,0,0,1-1.512-.244,1.245,1.245,0,0,0-.522-.342.655.655,0,0,1-.6-.534,1.23,1.23,0,0,0-1.121-.756,1.224,1.224,0,0,0-.948.426.719.719,0,0,0-.138.826.534.534,0,0,0,.585.336c.547-.148-.057-.49-.2-.611-.022-.019-.036-.536.721-.543a.766.766,0,0,1,.767.629c.109.384-.127.571-.427.722a1.572,1.572,0,0,1-2.253-.629,6.6,6.6,0,0,1-.516-1.706,2.364,2.364,0,0,1,.426-2.04c.338-.365.5-.818.273-.954a.352.352,0,0,0-.477.17A5.008,5.008,0,0,0,614.991-471.112Zm8.78-4.447c-.626-.217-.779-.581-.521-1.169C623.705-476.6,623.9-476.185,623.771-475.559Zm5.191-1.9c-.172.505-1.356,1.406-3.219,2.434A5.935,5.935,0,0,1,628.961-477.455Z" transform="translate(-614.526 480.57)" fill="#e8b470" fill-rule="evenodd"/>
        </g>
      </g>
      <g id="Group_120" data-name="Group 120" transform="translate(10.452)">
        <g id="Group_118" data-name="Group 118">
          <path id="Path_798" data-name="Path 798" d="M573.867-618.832a2.115,2.115,0,0,0-2.29-1.312c-.282.034-.337-.072-.443-.3a1.655,1.655,0,0,0-.56-.639.834.834,0,0,0-1.057.354c-.2.338-.045.9.227.947s.137-.406.119-.564c-.035-.321.18-.4.384-.366a.716.716,0,0,1,.5.3.791.791,0,0,1-.056.623c-.1.186-.346.29-.508.45-.2.2-.343.191-.574,0a2.044,2.044,0,0,0-2.494-.228,2.958,2.958,0,0,0-1.481,1.8,2.2,2.2,0,0,1-1.354,1.253.961.961,0,0,1-.771-.134,1.584,1.584,0,0,1-.65-1.728,1.3,1.3,0,0,1,1.629-.854c.131.061.12.487.028.52s-.287-.09-.311.09a.341.341,0,0,0,.192.354.619.619,0,0,0,.5,0,.668.668,0,0,0,.239-.487.865.865,0,0,0-.523-.87,1.325,1.325,0,0,0-1.351.135,2.012,2.012,0,0,0,.188,3.289c.147.093.3.177.508.3-.171.126-.293.228-.426.313-.813.515-1.653.994-2.436,1.551a7.52,7.52,0,0,0-1.574,1.387,6.637,6.637,0,0,0-.585,1.108c-.021.221-.047.4-.053.573a1.422,1.422,0,0,0,1.45,1.584,3.118,3.118,0,0,0,1.284-.4,1.158,1.158,0,0,0,.31-1.41,1.031,1.031,0,0,0-1.344-.081.6.6,0,0,0-.166.452c.01.111.181.207.28.31a.66.66,0,0,0,.445-.135c.173-.1.012-.552.409-.414.062.174.21.369.172.518-.152.606-.7.744-1.206.849a1.062,1.062,0,0,1-1.3-.833,1.1,1.1,0,0,1,.689-1.451,6.992,6.992,0,0,0,2.345-1.389c.125-.12.268-.22.484-.394a2.69,2.69,0,0,0,.066.595c.143.389.113.694.383.973a1.45,1.45,0,0,0,2.232-.032,3.31,3.31,0,0,1,1.436-.84,1.737,1.737,0,0,0,1.154-1.516.8.8,0,0,0-.736-.925.859.859,0,0,0-.99.79.839.839,0,0,0,.322.481c.249.213.4.041.352-.16-.086-.149-.174-.3-.259-.449-.022-.038-.1-.193.061-.256a.548.548,0,0,1,.719.038.928.928,0,0,1,.17.772,1.506,1.506,0,0,1-1.554,1.079,1.336,1.336,0,0,0-.477-1.391c-.4-.307-.354-.4,0-.742a4.649,4.649,0,0,1,2.224-1.053,1.92,1.92,0,0,1,.809,0,2.683,2.683,0,0,1,2.294,2.115c.055-.223.231-.186.193-.379a3.124,3.124,0,0,0-3.081-2.088,4.562,4.562,0,0,0-2.433,1.066,3.464,3.464,0,0,1-1.36.9,1.211,1.211,0,0,0-.714,1.609.644.644,0,0,0,.421.346.433.433,0,0,0,.5-.243.6.6,0,0,0-.147-.54c-.1-.086-.3-.019-.3-.043-.019-.132-.075-.312-.013-.394a2.415,2.415,0,0,1,.471-.377c.062.083.176.164.179.248a2.06,2.06,0,0,0,.779,1.521,1.238,1.238,0,0,1-.411.408,1.11,1.11,0,0,1-1.367.081,1.319,1.319,0,0,1-.475-1.3,3.8,3.8,0,0,1,1.589-2.54,4.787,4.787,0,0,1,2.919-1.169,3.311,3.311,0,0,1,3.788,2.319,4.159,4.159,0,0,1,.076.894l.116.035c.05-.111.153-.229.141-.332a4.359,4.359,0,0,0-.23-1.286,3.9,3.9,0,0,0-4.271-1.988c-.517.131-1.023.3-1.6.467.109-.25.205-.433.271-.625a2.632,2.632,0,0,1,1.655-1.629,1.4,1.4,0,0,1,1.512.245,1.244,1.244,0,0,0,.521.342.656.656,0,0,1,.6.535,1.232,1.232,0,0,0,1.121.755,1.228,1.228,0,0,0,.949-.426.72.72,0,0,0,.137-.827.531.531,0,0,0-.585-.334c-.546.148.057.489.2.61.023.018.036.535-.721.543a.764.764,0,0,1-.767-.63c-.108-.385.128-.571.427-.722a1.573,1.573,0,0,1,2.254.628,6.669,6.669,0,0,1,.516,1.706,2.367,2.367,0,0,1-.427,2.04c-.338.366-.5.818-.274.954a.351.351,0,0,0,.477-.17A5.008,5.008,0,0,0,573.867-618.832Zm-8.781,4.447c.626.217.779.58.521,1.168C565.152-613.346,564.959-613.76,565.086-614.384Zm-5.192,1.9c.171-.506,1.356-1.406,3.22-2.435A5.946,5.946,0,0,1,559.895-612.488Z" transform="translate(-558.889 621.165)" fill="#e8b470" fill-rule="evenodd"/>
        </g>
        <g id="Group_119" data-name="Group 119" transform="translate(16.08)">
          <path id="Path_799" data-name="Path 799" d="M615.275-614.081a.352.352,0,0,0,.477.17c.231-.136.065-.588-.273-.954a2.364,2.364,0,0,1-.426-2.04,6.6,6.6,0,0,1,.516-1.706,1.572,1.572,0,0,1,2.253-.628c.3.151.536.337.427.722a.766.766,0,0,1-.767.63c-.757-.008-.743-.525-.721-.543.143-.121.746-.462.2-.61a.532.532,0,0,0-.585.334.72.72,0,0,0,.138.827,1.226,1.226,0,0,0,.948.426,1.231,1.231,0,0,0,1.121-.755.656.656,0,0,1,.6-.535,1.245,1.245,0,0,0,.522-.342,1.4,1.4,0,0,1,1.512-.245,2.632,2.632,0,0,1,1.654,1.629c.066.193.161.376.269.625-.573-.169-1.079-.337-1.6-.467a3.9,3.9,0,0,0-4.271,1.988,4.366,4.366,0,0,0-.229,1.286c-.012.1.09.221.14.332l.115-.035a4.174,4.174,0,0,1,.076-.894,3.311,3.311,0,0,1,3.789-2.319,4.787,4.787,0,0,1,2.918,1.169,3.8,3.8,0,0,1,1.589,2.54,1.318,1.318,0,0,1-.475,1.3,1.108,1.108,0,0,1-1.365-.081,1.231,1.231,0,0,1-.412-.408,2.057,2.057,0,0,0,.78-1.521c0-.084.116-.165.178-.248a2.378,2.378,0,0,1,.47.377c.063.082.006.262-.013.394,0,.025-.205-.043-.3.043a.6.6,0,0,0-.147.54.434.434,0,0,0,.5.243.646.646,0,0,0,.421-.346,1.212,1.212,0,0,0-.715-1.609,3.466,3.466,0,0,1-1.36-.9,4.558,4.558,0,0,0-2.432-1.066,3.125,3.125,0,0,0-3.082,2.088c-.037.193.139.156.193.379A2.684,2.684,0,0,1,620.2-616.4a1.92,1.92,0,0,1,.809,0,4.643,4.643,0,0,1,2.224,1.053c.355.347.4.435,0,.742a1.336,1.336,0,0,0-.477,1.391,1.505,1.505,0,0,1-1.553-1.079.929.929,0,0,1,.17-.772.548.548,0,0,1,.719-.038c.162.062.083.217.061.256-.086.15-.173.3-.26.449-.044.2.1.372.351.16a.838.838,0,0,0,.322-.481.859.859,0,0,0-.99-.79.8.8,0,0,0-.736.925A1.739,1.739,0,0,0,622-613.064a3.328,3.328,0,0,1,1.438.84,1.448,1.448,0,0,0,2.23.032c.269-.279.24-.584.383-.973a2.728,2.728,0,0,0,.065-.595c.216.173.359.273.485.394a6.972,6.972,0,0,0,2.343,1.389,1.1,1.1,0,0,1,.69,1.451,1.063,1.063,0,0,1-1.3.833c-.5-.105-1.055-.243-1.207-.849-.037-.149.109-.344.172-.518.4-.138.235.311.408.414a.662.662,0,0,0,.446.135c.1-.1.27-.2.279-.31a.6.6,0,0,0-.166-.452,1.03,1.03,0,0,0-1.343.081,1.157,1.157,0,0,0,.31,1.41,3.118,3.118,0,0,0,1.285.4,1.422,1.422,0,0,0,1.45-1.584c-.006-.176-.031-.352-.053-.573a6.643,6.643,0,0,0-.585-1.108,7.5,7.5,0,0,0-1.574-1.387c-.783-.557-1.623-1.036-2.436-1.551-.133-.084-.254-.186-.424-.312.207-.123.36-.206.508-.3a2.013,2.013,0,0,0,.189-3.289,1.325,1.325,0,0,0-1.351-.135.864.864,0,0,0-.523.87.665.665,0,0,0,.239.487.617.617,0,0,0,.5,0,.341.341,0,0,0,.193-.354c-.024-.18-.211-.052-.312-.09s-.1-.459.029-.52a1.3,1.3,0,0,1,1.629.854,1.582,1.582,0,0,1-.651,1.728.958.958,0,0,1-.77.134,2.2,2.2,0,0,1-1.355-1.253,2.953,2.953,0,0,0-1.48-1.8,2.045,2.045,0,0,0-2.494.228c-.231.192-.372.2-.574,0-.163-.16-.4-.264-.508-.45a.788.788,0,0,1-.055-.623.714.714,0,0,1,.5-.3c.2-.03.42.045.384.366-.018.159-.155.61.118.564s.431-.609.228-.947a.835.835,0,0,0-1.058-.354,1.648,1.648,0,0,0-.559.639c-.106.227-.16.333-.443.3a2.112,2.112,0,0,0-2.289,1.312A5.008,5.008,0,0,0,615.275-614.081Zm7.975.865c-.259-.588-.106-.951.521-1.168C623.9-613.76,623.705-613.346,623.25-613.216Zm2.492-1.707c1.863,1.028,3.048,1.929,3.219,2.435A5.938,5.938,0,0,1,625.742-614.923Z" transform="translate(-614.526 621.165)" fill="#e8b470" fill-rule="evenodd"/>
        </g>
      </g>
    </g>
    <g id="Group_122" data-name="Group 122" transform="translate(7.766 7.748)">
      <path id="Path_800" data-name="Path 800" d="M566.033-558.595a19.285,19.285,0,0,1-19.263-19.263,19.285,19.285,0,0,1,19.263-19.263A19.285,19.285,0,0,1,585.3-577.858,19.285,19.285,0,0,1,566.033-558.595Z" transform="translate(-546.553 597.338)"/>
      <path id="Path_801" data-name="Path 801" d="M565.5-597.437a19.068,19.068,0,0,1,19.045,19.047A19.068,19.068,0,0,1,565.5-559.345a19.068,19.068,0,0,1-19.047-19.046A19.068,19.068,0,0,1,565.5-597.437m0-.433a19.5,19.5,0,0,0-19.481,19.48,19.5,19.5,0,0,0,19.481,19.48,19.5,19.5,0,0,0,19.479-19.48,19.5,19.5,0,0,0-19.479-19.48Z" transform="translate(-546.019 597.871)" fill="#e8b470"/>
    </g>
    <g id="Group_123" data-name="Group 123" transform="translate(8.987 8.969)">
      <path id="Path_802" data-name="Path 802" d="M568.5-557.129a18.28,18.28,0,0,1-18.259-18.259,18.28,18.28,0,0,1,18.259-18.26,18.279,18.279,0,0,1,18.258,18.26A18.279,18.279,0,0,1,568.5-557.129Zm0-36.256a18.016,18.016,0,0,0-18,18,18.017,18.017,0,0,0,18,18,18.016,18.016,0,0,0,17.995-18A18.016,18.016,0,0,0,568.5-593.384Z" transform="translate(-550.244 593.648)" fill="#e8b470"/>
    </g>
    <g id="Group_124" data-name="Group 124" transform="translate(14.677 14.661)">
      <path id="Path_803" data-name="Path 803" d="M582.5-548.818a12.582,12.582,0,0,1-12.569-12.568A12.583,12.583,0,0,1,582.5-573.953a12.582,12.582,0,0,1,12.568,12.568A12.581,12.581,0,0,1,582.5-548.818Zm0-24.921a12.368,12.368,0,0,0-12.355,12.354A12.369,12.369,0,0,0,582.5-549.031a12.368,12.368,0,0,0,12.354-12.354A12.367,12.367,0,0,0,582.5-573.739Z" transform="translate(-569.932 573.953)" fill="#e8b470"/>
    </g>
    <g id="c" transform="translate(23.747 19.661)">
      <path id="Path_804" data-name="Path 804" d="M613.287-545.58a26.361,26.361,0,0,1-.979,3.339,17.119,17.119,0,0,1-3.468.505c-5.282,0-7.526-3.537-7.526-7.4,0-4.349,2.978-7.513,7.771-7.513a23,23,0,0,1,3.61.439c.041,1.12.184,2.46.286,3.361l-.367.088a3.92,3.92,0,0,0-2.06-2.965,4.071,4.071,0,0,0-1.978-.4c-3.06,0-4.365,2.944-4.365,6.568,0,4.239,1.836,7.271,4.854,7.271,1.9,0,3-1.23,3.9-3.427Z" transform="translate(-601.314 556.651)" fill="#e8b470"/>
    </g>
    <path id="Path_805" data-name="Path 805" d="M612.773-514.866c-.1.095-.21.188-.32.274.072-.136.138-.28.2-.427a6.018,6.018,0,0,1-.471-.761,4.56,4.56,0,0,1-1.06,1.788,6.415,6.415,0,0,0,.914.535,6.337,6.337,0,0,0,1.223-.874A4.8,4.8,0,0,1,612.773-514.866Z" transform="translate(-584.542 547.254)"/>
    <g id="o" transform="translate(17.29 18.939)">
      <g id="Group_125" data-name="Group 125" transform="translate(0)">
        <path id="Path_806" data-name="Path 806" d="M588.3-556.652c3.61,0,6.629,3.053,6.629,7.315,0,4.591-3,7.6-6.69,7.6-3.957,0-6.772-3.295-6.772-7.359C581.471-552.852,584-556.652,588.3-556.652Zm-.408.549c-2,0-3.508,2.153-3.508,6.5,0,4.108,1.55,7.315,4.2,7.315,2.04,0,3.427-2.219,3.427-6.48C592.016-553.357,590.4-556.1,587.9-556.1Z" transform="translate(-580.749 557.375)" fill="#e8b470"/>
        <path id="Path_807" data-name="Path 807" d="M586.466-542.792c-4.272,0-7.494-3.474-7.494-8.082,0-4.07,2.826-8.279,7.555-8.279,4.122,0,7.351,3.53,7.351,8.037C593.878-546.292,590.761-542.792,586.466-542.792Zm-.346-14.366c-1.718,0-2.786,2.215-2.786,5.779,0,3.881,1.431,6.592,3.479,6.592,1.668,0,2.7-2.206,2.7-5.758C589.517-554.623,588.215-557.158,586.119-557.158Zm-3.219.726a6.828,6.828,0,0,0-2.483,5.559,6.586,6.586,0,0,0,3.271,5.945,10.356,10.356,0,0,1-1.8-6.45A11.427,11.427,0,0,1,582.9-556.432Zm6.411-.522a10.7,10.7,0,0,1,1.65,6.41,11.133,11.133,0,0,1-1,5.115,7.09,7.09,0,0,0,2.474-5.686A6.661,6.661,0,0,0,589.312-556.954Z" transform="translate(-578.972 559.152)"/>
      </g>
      <g id="Group_126" data-name="Group 126" transform="translate(0.723 0.723)">
        <path id="Path_808" data-name="Path 808" d="M588.3-556.652c3.61,0,6.629,3.053,6.629,7.315,0,4.591-3,7.6-6.69,7.6-3.957,0-6.772-3.295-6.772-7.359C581.472-552.852,584-556.652,588.3-556.652Zm-.408.549c-2,0-3.508,2.152-3.508,6.5,0,4.108,1.551,7.315,4.2,7.315,2.04,0,3.427-2.219,3.427-6.48C592.017-553.357,590.406-556.1,587.9-556.1Z" transform="translate(-581.472 556.652)" fill="#e8b470"/>
      </g>
    </g>
    <g id="Group_128" data-name="Group 128" transform="translate(23.747 19.661)">
      <path id="Path_809" data-name="Path 809" d="M601.314-544.011a7.416,7.416,0,0,0,2.256,5.626,4.567,4.567,0,0,0,1.185-2.4,11.429,11.429,0,0,1-.545-3.642,11.648,11.648,0,0,1,.346-2.942,5.118,5.118,0,0,0-1.11-2.068A7.417,7.417,0,0,0,601.314-544.011Z" transform="translate(-601.314 551.523)" fill="#e8b470"/>
      <path id="Path_810" data-name="Path 810" d="M618.212-516.016a7,7,0,0,1-.948.756,9.257,9.257,0,0,0,2.917.435,17.111,17.111,0,0,0,3.467-.505,26.423,26.423,0,0,0,.979-3.339l-.326-.132c-.9,2.2-2,3.427-3.9,3.427" transform="translate(-612.654 529.74)" fill="#e8b470"/>
      <path id="Path_811" data-name="Path 811" d="M615.72-512.721c.11-.086.216-.179.32-.274-.039-.05-.079-.1-.117-.153C615.858-513,615.792-512.856,615.72-512.721Z" transform="translate(-611.556 525.721)" fill="#e8b470"/>
      <path id="Path_812" data-name="Path 812" d="M609.121-517.1a2.746,2.746,0,0,0,.377.317,5.333,5.333,0,0,0,1.119-1.94,3.926,3.926,0,0,1-.311-.779A4.566,4.566,0,0,1,609.121-517.1Z" transform="translate(-606.865 530.238)" fill="#e8b470"/>
      <g id="Group_127" data-name="Group 127" transform="translate(2.132)">
        <path id="Path_813" data-name="Path 813" d="M617.94-556.212a23.025,23.025,0,0,0-3.61-.439,9.1,9.1,0,0,0-3.081.508,7.48,7.48,0,0,0-.805.34,6.975,6.975,0,0,0-1.208.76,6.644,6.644,0,0,0-.545.477,5.116,5.116,0,0,1,1.11,2.068,7.335,7.335,0,0,1,.37-1.073,5.526,5.526,0,0,1,.421-.787q.1-.159.216-.305a4.029,4.029,0,0,1,.5-.54,3.537,3.537,0,0,1,.6-.434,3.769,3.769,0,0,1,1.918-.486,4.073,4.073,0,0,1,1.979.4,3.92,3.92,0,0,1,2.06,2.965l.367-.088C618.123-553.751,617.98-555.091,617.94-556.212Z" transform="translate(-608.69 556.651)" fill="#e8b470"/>
      </g>
    </g>
    <g id="Group_131" data-name="Group 131" transform="translate(11.069 11.021)">
      <g id="Group_129" data-name="Group 129" transform="translate(0 11.871)">
        <path id="Path_814" data-name="Path 814" d="M662.391-545.253a.061.061,0,0,1,.07.046l.077.362a.059.059,0,0,1-.046.07l-.768.163.186.872.768-.163a.059.059,0,0,1,.07.046l.077.362a.061.061,0,0,1-.046.07l-2.017.429a.061.061,0,0,1-.07-.046l-.077-.362a.059.059,0,0,1,.045-.07l.8-.171-.186-.872-.8.171a.059.059,0,0,1-.07-.045l-.077-.363a.061.061,0,0,1,.046-.07Z" transform="translate(-630.593 545.317)" fill="#e8b470"/>
        <path id="Path_815" data-name="Path 815" d="M664-534.848a.062.062,0,0,1,.063.056l.024.373a.061.061,0,0,1-.055.063l-2.058.132a.061.061,0,0,1-.063-.056l-.024-.373a.061.061,0,0,1,.055-.063Z" transform="translate(-631.702 537.919)" fill="#e8b470"/>
        <path id="Path_816" data-name="Path 816" d="M663.966-528.6a1.2,1.2,0,0,1-.35.735.054.054,0,0,1-.084,0l-.242-.265a.066.066,0,0,1,0-.084.575.575,0,0,0,.18-.4.624.624,0,0,0-.58-.66.621.621,0,0,0-.665.567.734.734,0,0,0,.028.28l.18.014.015-.2a.057.057,0,0,1,.06-.055l.307.024a.057.057,0,0,1,.054.063l-.048.624a.058.058,0,0,1-.063.051l-.836-.061a.056.056,0,0,1-.048-.029,1.574,1.574,0,0,1-.143-.785,1.11,1.11,0,0,1,1.2-1.029A1.115,1.115,0,0,1,663.966-528.6Z" transform="translate(-631.593 534.33)" fill="#e8b470"/>
        <path id="Path_817" data-name="Path 817" d="M662.06-520.21a.061.061,0,0,1,.042.073l-.1.358a.059.059,0,0,1-.073.042l-.758-.206-.233.86.758.206a.059.059,0,0,1,.042.073l-.1.358a.061.061,0,0,1-.073.042l-1.991-.54a.061.061,0,0,1-.042-.073l.1-.358a.059.059,0,0,1,.073-.042l.791.215.234-.86-.791-.214a.059.059,0,0,1-.042-.073l.1-.358a.061.061,0,0,1,.073-.042Z" transform="translate(-630.031 527.897)" fill="#e8b470"/>
        <path id="Path_818" data-name="Path 818" d="M656.407-505.452a1.048,1.048,0,0,1-.633.5.058.058,0,0,1-.077-.042l-.093-.338a.055.055,0,0,1,.039-.067.612.612,0,0,0,.351-.281.621.621,0,0,0-.241-.853.618.618,0,0,0-.857.206.615.615,0,0,0-.084.436.061.061,0,0,1-.044.068l-.347.077a.062.062,0,0,1-.07-.045,1.067,1.067,0,0,1,.125-.805,1.117,1.117,0,0,1,1.536-.4A1.123,1.123,0,0,1,656.407-505.452Z" transform="translate(-626.323 518.226)" fill="#e8b470"/>
        <path id="Path_819" data-name="Path 819" d="M651.706-499.467a.059.059,0,0,1,.008.083l-.238.285a.061.061,0,0,1-.083.008l-1.279-1.064-.474.57a.059.059,0,0,1-.083.008l-.261-.217a.059.059,0,0,1-.008-.083l.75-.9a.059.059,0,0,1,.083-.008Z" transform="translate(-622.735 513.711)" fill="#e8b470"/>
        <path id="Path_820" data-name="Path 820" d="M644.46-496.234l.65,2.219a.063.063,0,0,1-.017.061l-.023.021a.063.063,0,0,1-.062.009l-2.117-.933a.055.055,0,0,1-.014-.1l.26-.228a.105.105,0,0,1,.134-.013l.246.111.637-.559-.08-.261a.115.115,0,0,1,.035-.13l.258-.226A.055.055,0,0,1,644.46-496.234Zm-.523,1.346.517.23,0,0-.163-.54Z" transform="translate(-618.172 510.495)" fill="#e8b470"/>
        <path id="Path_821" data-name="Path 821" d="M638.925-489.953a.07.07,0,0,1,.06.072l.012.29a.074.074,0,0,1-.08.072.8.8,0,0,0-.466.089.2.2,0,0,0-.083.273c.07.111.212.121.439.1.333-.036.679-.053.877.264a.646.646,0,0,1-.282.907,1.16,1.16,0,0,1-.689.155c-.043,0-.068-.05-.068-.075l.008-.288a.1.1,0,0,1,.1-.091.848.848,0,0,0,.446-.08.169.169,0,0,0,.07-.246c-.054-.087-.2-.092-.441-.066-.3.032-.685.09-.909-.269a.684.684,0,0,1,.282-.936A.986.986,0,0,1,638.925-489.953Z" transform="translate(-614.601 506.009)" fill="#e8b470"/>
        <path id="Path_822" data-name="Path 822" d="M632.277-486.276a.07.07,0,0,1,.049.081l-.031.288a.073.073,0,0,1-.09.059.8.8,0,0,0-.474.018.2.2,0,0,0-.123.257c.052.12.191.152.419.162.335.014.679.049.827.392a.646.646,0,0,1-.414.854,1.16,1.16,0,0,1-.7.05c-.043-.005-.06-.059-.057-.084l.051-.283a.1.1,0,0,1,.117-.075.846.846,0,0,0,.452-.012.169.169,0,0,0,.106-.232c-.041-.095-.184-.121-.426-.131-.3-.014-.691-.013-.859-.4a.684.684,0,0,1,.419-.883A.989.989,0,0,1,632.277-486.276Z" transform="translate(-609.794 503.417)" fill="#e8b470"/>
        <path id="Path_823" data-name="Path 823" d="M620.166-480.855a.058.058,0,0,1-.046.067l-.751.117a1.094,1.094,0,0,1-1.248-.905,1.1,1.1,0,0,1,.912-1.249l.751-.117a.059.059,0,0,1,.065.05Zm-1.06-1.515a.584.584,0,0,0-.475.714.583.583,0,0,0,.669.532l.323-.05-.195-1.247Z" transform="translate(-600.576 501.015)" fill="#e8b470"/>
        <path id="Path_824" data-name="Path 824" d="M610.71-481.885l-1.028,2.071a.064.064,0,0,1-.054.033H609.6a.063.063,0,0,1-.052-.036l-.921-2.12a.055.055,0,0,1,.055-.079l.345.009c.056,0,.081.021.107.081l.106.249.847.022.118-.246a.116.116,0,0,1,.114-.072l.342.008A.055.055,0,0,1,610.71-481.885Zm-1.3.634.223.52h0l.247-.508Z" transform="translate(-593.829 500.358)" fill="#e8b470"/>
        <path id="Path_825" data-name="Path 825" d="M601.678-481.1l.438.082a.059.059,0,0,1,.047.069l-.062.334a.059.059,0,0,1-.069.047l-1.359-.254a.059.059,0,0,1-.047-.069l.063-.334a.059.059,0,0,1,.069-.047l.438.082.306-1.635a.061.061,0,0,1,.069-.047l.367.069a.062.062,0,0,1,.048.069Z" transform="translate(-588.146 500.963)" fill="#e8b470"/>
        <path id="Path_826" data-name="Path 826" d="M596.182-482.254a.062.062,0,0,1-.075.038l-.356-.114a.061.061,0,0,1-.038-.075l.628-1.965a.061.061,0,0,1,.075-.039l.356.114a.061.061,0,0,1,.038.075Z" transform="translate(-584.652 502.058)" fill="#e8b470"/>
        <path id="Path_827" data-name="Path 827" d="M587.682-485.544a.059.059,0,0,1-.078.024l-.042-.021c-.028-.014-.038-.043-.049-.076l-.568-1.558h0l-.487.992a.059.059,0,0,1-.079.027l-.336-.164a.061.061,0,0,1-.027-.079l.923-1.882a.055.055,0,0,1,.078-.024l.028.014a.1.1,0,0,1,.055.065l.551,1.627,0,0,.512-1.043a.059.059,0,0,1,.079-.027l.333.163a.061.061,0,0,1,.027.079Z" transform="translate(-577.754 504.834)" fill="#e8b470"/>
        <path id="Path_828" data-name="Path 828" d="M578.353-490.96a1.2,1.2,0,0,1-.431-.691.055.055,0,0,1,.046-.071l.354-.061a.067.067,0,0,1,.069.048.571.571,0,0,0,.236.365.624.624,0,0,0,.869-.133.62.62,0,0,0-.12-.866.735.735,0,0,0-.251-.127l-.109.144.157.118a.057.057,0,0,1,.014.08l-.186.246a.057.057,0,0,1-.083.012l-.5-.377a.06.06,0,0,1-.009-.081l.5-.671a.055.055,0,0,1,.049-.025,1.574,1.574,0,0,1,.739.3,1.111,1.111,0,0,1,.222,1.563A1.116,1.116,0,0,1,578.353-490.96Z" transform="translate(-572.003 508.2)" fill="#e8b470"/>
        <path id="Path_829" data-name="Path 829" d="M571.568-501.637l-2.252.527a.063.063,0,0,1-.06-.021l-.019-.024a.064.064,0,0,1-.006-.063l1.049-2.062a.055.055,0,0,1,.1-.008l.213.272a.105.105,0,0,1,.006.134l-.125.24.523.667.265-.066a.116.116,0,0,1,.128.042l.212.27A.055.055,0,0,1,571.568-501.637Zm-1.315-.6-.258.5,0,0,.549-.133Z" transform="translate(-565.822 515.498)" fill="#e8b470"/>
        <path id="Path_830" data-name="Path 830" d="M563.306-508.7a1.2,1.2,0,0,1-.1-.809.055.055,0,0,1,.071-.045l.346.1a.066.066,0,0,1,.042.073.573.573,0,0,0,.058.431.625.625,0,0,0,.843.249.621.621,0,0,0,.26-.835.733.733,0,0,0-.173-.222l-.16.084.092.173a.056.056,0,0,1-.022.079l-.273.144a.057.057,0,0,1-.08-.025l-.293-.554a.059.059,0,0,1,.026-.077l.74-.394a.056.056,0,0,1,.056,0,1.578,1.578,0,0,1,.54.589,1.111,1.111,0,0,1-.464,1.51A1.117,1.117,0,0,1,563.306-508.7Z" transform="translate(-561.523 520.493)" fill="#e8b470"/>
        <path id="Path_831" data-name="Path 831" d="M559.964-515.8a.059.059,0,0,1-.075-.038l-.4-1.225a.059.059,0,0,1,.038-.075l.323-.105a.059.059,0,0,1,.075.038l.268.82.367-.12-.22-.674a.062.062,0,0,1,.038-.075l.323-.105a.059.059,0,0,1,.075.038l.22.675.4-.13-.268-.82a.059.059,0,0,1,.038-.075l.323-.105a.059.059,0,0,1,.074.038l.4,1.225a.059.059,0,0,1-.038.074Z" transform="translate(-558.897 525.781)" fill="#e8b470"/>
        <path id="Path_832" data-name="Path 832" d="M557.891-524.636a.059.059,0,0,1-.064-.051l-.006-.047a.115.115,0,0,1,.036-.084l.971-1.343v0l-1.094.154a.059.059,0,0,1-.067-.05l-.052-.37a.061.061,0,0,1,.05-.067l2.075-.291a.054.054,0,0,1,.064.051l0,.031a.1.1,0,0,1-.023.082l-1.037,1.368v0l1.15-.161a.06.06,0,0,1,.067.051l.051.367a.062.062,0,0,1-.05.067Z" transform="translate(-557.566 532.189)" fill="#e8b470"/>
        <path id="Path_833" data-name="Path 833" d="M557.449-535.442a1.045,1.045,0,0,1,.323-.741.058.058,0,0,1,.087,0l.242.254a.055.055,0,0,1,0,.078.611.611,0,0,0-.177.413.621.621,0,0,0,.614.638.617.617,0,0,0,.659-.586.609.609,0,0,0-.131-.424.062.062,0,0,1,.007-.081l.269-.232a.063.063,0,0,1,.084.007,1.069,1.069,0,0,1,.269.77,1.117,1.117,0,0,1-1.167,1.075A1.122,1.122,0,0,1,557.449-535.442Z" transform="translate(-557.448 538.882)" fill="#e8b470"/>
        <path id="Path_834" data-name="Path 834" d="M559.337-544.077l-1.161.453a.058.058,0,0,1-.078-.068l.085-.4a.061.061,0,0,1,.038-.043l.715-.289-.532-.557a.057.057,0,0,1-.017-.055l.086-.4a.058.058,0,0,1,.1-.03l.866.9.971.209a.062.062,0,0,1,.045.07l-.078.362a.059.059,0,0,1-.07.046Z" transform="translate(-557.909 545.473)" fill="#e8b470"/>
      </g>
      <g id="Group_130" data-name="Group 130" transform="translate(2.986)">
        <path id="Path_835" data-name="Path 835" d="M568-565.146a1.118,1.118,0,0,1,1.571-.223,1.113,1.113,0,0,1,.223,1.567,1.111,1.111,0,0,1-1.565.225A1.116,1.116,0,0,1,568-565.146Zm1.4,1.045a.624.624,0,0,0-.123-.87.627.627,0,0,0-.874.123.626.626,0,0,0,.13.871A.623.623,0,0,0,569.4-564.1Z" transform="translate(-567.78 571.651)" fill="#e8b470"/>
        <path id="Path_836" data-name="Path 836" d="M573.783-571.981a.059.059,0,0,1,0-.084l.687-.629a.663.663,0,0,1,.955.038.658.658,0,0,1,.083.773l.849.3a.059.059,0,0,1,.022.1l-.305.28a.058.058,0,0,1-.056.013l-.863-.329-.159.145.537.586a.062.062,0,0,1,0,.084l-.273.25a.059.059,0,0,1-.084,0Zm1.29,0a.24.24,0,0,0,.007-.344.229.229,0,0,0-.335-.015l-.34.311.328.358Z" transform="translate(-572.037 576.83)" fill="#e8b470"/>
        <path id="Path_837" data-name="Path 837" d="M581.055-576.627a.061.061,0,0,1,.015-.083l.307-.213a.061.061,0,0,1,.082.015l1.174,1.7a.061.061,0,0,1-.015.082l-.307.213a.061.061,0,0,1-.082-.015Z" transform="translate(-577.211 579.711)" fill="#e8b470"/>
        <path id="Path_838" data-name="Path 838" d="M585.846-580.656a.059.059,0,0,1,.025-.08l1.145-.593a.059.059,0,0,1,.08.025l.156.3a.06.06,0,0,1-.025.08l-.766.4.178.343.63-.327a.061.061,0,0,1,.08.025l.156.3a.059.059,0,0,1-.025.08l-.631.327.193.373.766-.4a.059.059,0,0,1,.08.025l.156.3a.06.06,0,0,1-.025.08l-1.145.594a.06.06,0,0,1-.08-.025Z" transform="translate(-580.62 582.842)" fill="#e8b470"/>
        <path id="Path_839" data-name="Path 839" d="M593.741-584.266a.058.058,0,0,1,.04-.071l.045-.014a.117.117,0,0,1,.088.021l1.483.741h0l-.329-1.055a.059.059,0,0,1,.039-.074l.357-.111a.061.061,0,0,1,.074.039l.623,2a.055.055,0,0,1-.04.071l-.03.009a.1.1,0,0,1-.085-.009l-1.518-.8h0l.345,1.109a.059.059,0,0,1-.039.074l-.354.11a.061.061,0,0,1-.074-.039Z" transform="translate(-586.237 585.328)" fill="#e8b470"/>
        <path id="Path_840" data-name="Path 840" d="M604.11-585.712l-.442.058a.059.059,0,0,1-.067-.051l-.045-.336a.059.059,0,0,1,.051-.067l1.37-.182a.059.059,0,0,1,.067.051l.045.337a.059.059,0,0,1-.051.066l-.441.059.219,1.648a.061.061,0,0,1-.051.067l-.37.049a.061.061,0,0,1-.067-.051Z" transform="translate(-593.216 586.365)" fill="#e8b470"/>
        <path id="Path_841" data-name="Path 841" d="M611.235-584.446l1.031-2.069a.063.063,0,0,1,.054-.033h.031a.064.064,0,0,1,.052.036l.918,2.122a.055.055,0,0,1-.056.079l-.346-.009c-.056,0-.08-.021-.107-.081l-.106-.249-.847-.023-.119.246a.116.116,0,0,1-.114.072l-.342-.009A.055.055,0,0,1,611.235-584.446Zm1.3-.632-.223-.52h0l-.248.508Z" transform="translate(-598.671 586.548)" fill="#e8b470"/>
        <path id="Path_842" data-name="Path 842" d="M621.032-585.768a.059.059,0,0,1,.069-.047l.364.068a.062.062,0,0,1,.047.069l-.306,1.634.729.136a.059.059,0,0,1,.047.069l-.062.334a.06.06,0,0,1-.069.047l-1.151-.216a.059.059,0,0,1-.047-.069Z" transform="translate(-605.371 586.028)" fill="#e8b470"/>
        <path id="Path_843" data-name="Path 843" d="M633.471-581.517a1.048,1.048,0,0,1,.566.576.058.058,0,0,1-.034.081l-.326.129a.055.055,0,0,1-.071-.032.612.612,0,0,0-.317-.319.621.621,0,0,0-.822.331.617.617,0,0,0,.3.83.612.612,0,0,0,.442.037.062.062,0,0,1,.073.036l.114.336a.062.062,0,0,1-.038.076,1.071,1.071,0,0,1-.814-.039,1.117,1.117,0,0,1-.56-1.484A1.123,1.123,0,0,1,633.471-581.517Z" transform="translate(-613.353 583.044)" fill="#e8b470"/>
        <path id="Path_844" data-name="Path 844" d="M640.02-578.042a.06.06,0,0,1,.083-.017l.308.205a.062.062,0,0,1,.017.082l-.921,1.385.617.41a.059.059,0,0,1,.016.082l-.188.283a.059.059,0,0,1-.082.016l-.975-.648a.059.059,0,0,1-.017-.082Z" transform="translate(-618.323 580.52)" fill="#e8b470"/>
        <path id="Path_845" data-name="Path 845" d="M646.535-573.455a.061.061,0,0,1,.083,0l.281.261a.059.059,0,0,1,0,.084l-.885.951a.346.346,0,0,0,.039.521.35.35,0,0,0,.527.005l.885-.951a.059.059,0,0,1,.083,0l.28.261a.062.062,0,0,1,0,.084l-.9.969a.851.851,0,0,1-1.216,0,.848.848,0,0,1-.083-1.209Z" transform="translate(-622.979 577.252)" fill="#e8b470"/>
        <path id="Path_846" data-name="Path 846" d="M652.3-564.645a.529.529,0,0,1-.155.634.624.624,0,0,1-.889-.177l-.467-.615a.059.059,0,0,1,.011-.083l1.641-1.247a.059.059,0,0,1,.083.011l.439.577a.625.625,0,0,1-.056.883.535.535,0,0,1-.6.013Zm-.739.123a.21.21,0,0,0,.325.058.215.215,0,0,0,.033-.322l-.164-.216-.354.269Zm.673-.519a.209.209,0,0,0,.3.025.2.2,0,0,0,.046-.289l-.156-.206-.347.264Z" transform="translate(-626.789 572.041)" fill="#e8b470"/>
      </g>
    </g>
    <path id="Path_847" data-name="Path 847" d="M613.489-550.713A4.149,4.149,0,0,1,615.26-553l.478.538a.049.049,0,0,0-.018,0c-.926.464-1.336.969-1.849,2.6Z" transform="translate(-586.223 573.718)"/>
  </g>
  <g id="logo-type" transform="translate(-681.038 584.534)">
    <path id="Path_848" data-name="Path 848" d="M756.061-569.534a11.39,11.39,0,0,1,11.528,11.677c0,7.587-5.2,12.323-11.734,12.323a11.551,11.551,0,0,1-11.818-11.837C744.038-563.647,748.5-569.534,756.061-569.534Zm-.675,1.352c-3.9,0-7.328,3.361-7.328,9.907,0,6.466,3.383,11.359,8.357,11.359,4.112,0,7.22-3.194,7.22-9.952C763.634-564.214,759.921-568.182,755.386-568.182Z" fill="#fff"/>
    <path id="Path_849" data-name="Path 849" d="M852.864-539.326c-.337,0-.659-.023-1.027-.052-2.375-.148-3.485-.736-4.677-2.413-1.078-1.485-2.076-3.284-3.005-4.8-.548-.893-.927-1.065-2.294-1.065l-.927-.005v4.452c0,2.42.311,2.574,2.583,2.809v.851h-7.87v-.851c2.348-.253,2.559-.389,2.559-2.809v-11.376c0-2.41-.311-2.538-2.559-2.781v-.851h7.5a8.222,8.222,0,0,1,4.7,1,4.308,4.308,0,0,1,1.948,3.8c0,2.485-1.6,4-3.684,4.888.5.885,1.716,2.8,2.577,4.1a25.71,25.71,0,0,0,2.253,2.963,4.039,4.039,0,0,0,2.045,1.311ZM842.2-548.67a4.548,4.548,0,0,0,3.1-.818,4.038,4.038,0,0,0,1.538-3.5c0-3.068-1.987-4.183-4.09-4.183a2.494,2.494,0,0,0-1.486.287c-.248.2-.329.494-.329,1.209v7.005Z" transform="translate(-63.029 -7.789)" fill="#fff"/>
    <path id="Path_850" data-name="Path 850" d="M898.246-539.545v-.851c2.324-.248,2.559-.373,2.559-2.809v-11.319c0-2.46-.24-2.6-2.559-2.838v-.851h7.909v.851c-2.342.248-2.583.378-2.583,2.838v11.319c0,2.454.235,2.556,2.583,2.809v.851Z" transform="translate(-106.099 -7.789)" fill="#fff"/>
    <path id="Path_851" data-name="Path 851" d="M951.59-544.3c-.167.752-.948,3.772-1.23,4.623H936.232v-.845c2.661-.211,2.856-.449,2.856-2.815v-11.277c0-2.535-.321-2.684-2.439-2.88v-.851h8.887c2.756,0,3.856-.029,4.211-.057.028.682.148,2.872.263,4.441l-.908.143a8.715,8.715,0,0,0-.929-2.271c-.47-.881-1.078-1.076-2.755-1.076h-2.573c-.927,0-.994.081-.994.94v6.285h3.121c2.056,0,2.225-.431,2.585-2.4h.932v6h-.932c-.389-2.078-.618-2.375-2.614-2.375h-3.092v5.575c0,2.005.528,2.255,2.026,2.284h2.557c1.727,0,2.039-.248,2.671-1a12.368,12.368,0,0,0,1.587-2.684Z" transform="translate(-132.234 -7.663)" fill="#fff"/>
    <path id="Path_852" data-name="Path 852" d="M1015.868-557.362c-1.823.206-2.415.509-2.5,1.825-.039.955-.1,2.12-.1,4.76v11.5h-1.184l-12.235-14.9v7.056c0,2.569.081,3.831.144,4.663.068,1.429.765,1.9,2.843,2.063v.851h-7v-.851c1.755-.143,2.449-.574,2.574-1.971.091-.94.149-2.185.149-4.778v-7.23a2.662,2.662,0,0,0-.579-1.973c-.541-.718-1.159-.875-2.53-1.013v-.851h4.541l11.954,14.136v-6.7c0-2.64-.052-3.823-.138-4.721-.086-1.282-.71-1.72-3.023-1.864v-.851h7.093Z" transform="translate(-172.971 -7.789)" fill="#fff"/>
    <path id="Path_853" data-name="Path 853" d="M1087-555.1a10.428,10.428,0,0,0-.976-2.461c-.47-.744-.747-.951-2.347-.951h-2.686v13.9c0,2.271.24,2.561,2.938,2.739v.851h-8.569v-.851c2.63-.177,2.865-.444,2.865-2.739v-13.9h-2.458c-1.585,0-2.044.188-2.543,1.018a12.493,12.493,0,0,0-.989,2.4h-.9c.178-1.814.355-3.7.436-5.268h.7c.431.684.752.671,1.566.671h11.394a1.516,1.516,0,0,0,1.5-.671h.715c.005,1.324.12,3.474.264,5.176Z" transform="translate(-225.184 -6.31)" fill="#fff"/>
    <path id="Path_854" data-name="Path 854" d="M1141.595-540.432v-.851c1.857-.235,2.045-.527,1.643-1.644-.358-1.073-.911-2.484-1.484-4.174h-6.095c-.434,1.22-.859,2.335-1.241,3.461-.627,1.857-.173,2.086,2.167,2.358v.851h-6.717v-.851c1.809-.23,2.269-.441,3.269-2.995l5.95-15.036,1-.188c1.814,4.927,3.791,10.3,5.611,15.235.945,2.53,1.2,2.754,3.212,2.984v.851Zm-2.81-15.023c-.9,2.4-1.849,4.887-2.685,7.125h5.226Z" transform="translate(-265.46 -6.902)" fill="#fff"/>
    <path id="Path_855" data-name="Path 855" d="M1212.5-544.365c-.183.952-1.034,3.95-1.316,4.819h-13.515v-.851c2.6-.243,2.828-.4,2.828-2.833v-11.319c0-2.436-.287-2.6-2.559-2.814v-.851h7.924v.851c-2.287.224-2.6.355-2.6,2.814v11.591c0,1.721.2,2.18,1.825,2.209.034.005,1.967.028,2.129.028,1.5,0,1.927-.2,2.592-.932a10.1,10.1,0,0,0,1.762-2.963Z" transform="translate(-312.112 -7.789)" fill="#fff"/>
    <path id="Path_856" data-name="Path 856" d="M1311.967-551.8a45.831,45.831,0,0,1-1.95,5.4,31.853,31.853,0,0,1-6.474.861c-8.639,0-12.881-5.709-12.881-11.793,0-7.23,5.5-12.207,13.517-12.207a36.327,36.327,0,0,1,6.68.82c.148,1.6.4,3.813.672,5.542l-1.153.247c-.713-2.438-1.6-3.862-3.415-4.6a9.53,9.53,0,0,0-3.6-.64c-5.7,0-8.691,4.306-8.691,10.087,0,6.758,3.5,11.141,9.063,11.141,3.491,0,5.3-1.642,7.118-5.241Z" transform="translate(-376.09)" fill="#fff"/>
    <path id="Path_857" data-name="Path 857" d="M1388.536-544.365c-.183.952-1.034,3.95-1.316,4.819H1373.7v-.851c2.6-.243,2.827-.4,2.827-2.833v-11.319c0-2.436-.287-2.6-2.559-2.814v-.851h7.924v.851c-2.287.224-2.6.355-2.6,2.814v11.591c0,1.721.2,2.18,1.825,2.209.034.005,1.967.028,2.129.028,1.5,0,1.927-.2,2.592-.932a10.094,10.094,0,0,0,1.762-2.963Z" transform="translate(-433.226 -7.789)" fill="#fff"/>
    <path id="Path_858" data-name="Path 858" d="M1451.866-557.362c-1.815.125-2.444.6-2.512,1.869-.039.7-.1,1.862-.1,4.39v3.221c0,2.847-.355,5.134-2.015,6.88a7.141,7.141,0,0,1-5.3,1.864,7.866,7.866,0,0,1-4.788-1.352c-1.713-1.311-2.541-3.251-2.541-6.586v-7.313c0-2.6-.235-2.773-2.511-2.974v-.851h7.791v.851c-2.271.154-2.506.378-2.506,2.974v7.262c0,4.017,1.909,6.284,5.288,6.284,3.959,0,5.288-2.527,5.288-7.212V-551.1c0-2.523-.086-3.6-.144-4.4-.091-1.3-.778-1.75-2.882-1.864v-.851h6.934Z" transform="translate(-473.401 -7.789)" fill="#fff"/>
    <path id="Path_859" data-name="Path 859" d="M1515.987-549.686c2.8.475,5.023,1.817,5.023,4.592a4.994,4.994,0,0,1-2.781,4.412,9.809,9.809,0,0,1-5.057,1.136h-7.24v-.851c2.4-.23,2.559-.468,2.559-2.762v-11.413c0-2.389-.279-2.6-2.554-2.791v-.851h7.742a7.8,7.8,0,0,1,4.474,1.005,3.739,3.739,0,0,1,1.7,3.211C1519.858-551.354,1517.641-550.083,1515.987-549.686Zm-3.365-.35c3.082,0,4.322-1.248,4.322-3.562,0-2.1-1.307-3.541-3.852-3.541a2.948,2.948,0,0,0-1.562.277c-.245.177-.311.483-.311,1.345v5.48Zm-1.4,6.82c0,2.068.571,2.605,2.522,2.6a3.93,3.93,0,0,0,4.19-4.2c0-2.9-1.949-4.177-5.4-4.177h-1.312Z" transform="translate(-524.201 -7.789)" fill="#fff"/>
  </g>
</svg>
