<svg id="x" xmlns="http://www.w3.org/2000/svg" width="8.985" height="8.985" viewBox="0 0 8.985 8.985">
  <path id="Path_745" data-name="Path 745" d="M.422.422a.5.5,0,0,0,0,.707L8.407,9.113a.5.5,0,0,0,.707-.707L1.128.422a.5.5,0,0,0-.707,0Z" transform="translate(-0.275 -0.275)" fill-rule="evenodd"/>
  <path id="Path_746" data-name="Path 746" d="M9.113.422a.5.5,0,0,1,0,.707L1.128,9.113a.5.5,0,1,1-.707-.707L8.406.422a.5.5,0,0,1,.707,0Z" transform="translate(-0.275 -0.275)" fill-rule="evenodd"/>
</svg>
