<svg id="icon-filtter" xmlns="http://www.w3.org/2000/svg" width="25.5" height="21.5" viewBox="0 0 25.5 21.5">
  <path id="Path_786" data-name="Path 786" d="M-40.747-3.192h2.36l.059.166a2.75,2.75,0,0,0,2.581,1.834,2.749,2.749,0,0,0,2.58-1.834l.06-.166h16.36a.751.751,0,0,0,.75-.75.752.752,0,0,0-.75-.75h-16.36l-.06-.166a2.749,2.749,0,0,0-2.58-1.834,2.75,2.75,0,0,0-2.581,1.834l-.059.166h-2.36a.751.751,0,0,0-.75.75A.75.75,0,0,0-40.747-3.192Zm5-2a1.252,1.252,0,0,1,1.25,1.25,1.252,1.252,0,0,1-1.25,1.25A1.251,1.251,0,0,1-37-3.942,1.251,1.251,0,0,1-35.747-5.192Z" transform="translate(41.497 6.692)" fill="#be8854"/>
  <path id="Path_787" data-name="Path 787" d="M-16.747,3.308h-2.36l-.06-.166a2.749,2.749,0,0,0-2.58-1.834,2.75,2.75,0,0,0-2.581,1.834l-.059.166h-16.36a.751.751,0,0,0-.75.75.75.75,0,0,0,.75.75h16.36l.059.166a2.75,2.75,0,0,0,2.581,1.834,2.749,2.749,0,0,0,2.58-1.834l.06-.166h2.36a.751.751,0,0,0,.75-.75A.752.752,0,0,0-16.747,3.308Zm-5,2A1.251,1.251,0,0,1-23,4.058a1.251,1.251,0,0,1,1.25-1.25,1.252,1.252,0,0,1,1.25,1.25A1.252,1.252,0,0,1-21.747,5.308Z" transform="translate(41.497 6.692)" fill="#be8854"/>
  <path id="Path_788" data-name="Path 788" d="M-16.747,11.308h-12.36l-.06-.166a2.749,2.749,0,0,0-2.58-1.834,2.75,2.75,0,0,0-2.581,1.834l-.059.166h-6.36a.751.751,0,0,0-.75.75.75.75,0,0,0,.75.75h6.36l.059.166a2.75,2.75,0,0,0,2.581,1.834,2.749,2.749,0,0,0,2.58-1.834l.06-.166h12.36a.751.751,0,0,0,.75-.75A.752.752,0,0,0-16.747,11.308Zm-15,2A1.251,1.251,0,0,1-33,12.058a1.251,1.251,0,0,1,1.25-1.25,1.252,1.252,0,0,1,1.25,1.25A1.252,1.252,0,0,1-31.747,13.308Z" transform="translate(41.497 6.692)" fill="#be8854"/>
</svg>
