<svg id="eye-slash" xmlns="http://www.w3.org/2000/svg" width="47.999" height="38.124" viewBox="0 0 47.999 38.124">
  <path id="Path_536" data-name="Path 536" d="M24.807,26.439a41.006,41.006,0,0,0,7.923-9.714s-9-16.5-24-16.5A21.083,21.083,0,0,0,.361,1.989L2.67,4.3A17.833,17.833,0,0,1,8.73,3.225c6.36,0,11.637,3.5,15.5,7.371a39.4,39.4,0,0,1,4.98,6.129c-.174.261-.366.549-.585.864a39.415,39.415,0,0,1-4.395,5.265c-.495.495-1.011.984-1.551,1.458Z" transform="translate(15.269 2.338)"/>
  <path id="Path_537" data-name="Path 537" d="M20.723,14.36A10.5,10.5,0,0,0,7.3.938L9.77,3.407a7.5,7.5,0,0,1,8.487,8.487Zm-8.829,3.9,2.466,2.466A10.5,10.5,0,0,1,.938,7.3L3.407,9.77a7.5,7.5,0,0,0,8.487,8.487Z" transform="translate(13.168 8.231)"/>
  <path id="Path_538" data-name="Path 538" d="M10.15,2.462q-.81.72-1.554,1.461a39.4,39.4,0,0,0-4.98,6.129l.585.864A39.561,39.561,0,0,0,8.6,16.181c3.867,3.867,9.147,7.371,15.5,7.371a17.776,17.776,0,0,0,6.06-1.08l2.31,2.316a21.081,21.081,0,0,1-8.37,1.764c-15,0-24-16.5-24-16.5A40.848,40.848,0,0,1,8.023.338l2.124,2.127Z" transform="translate(-0.1 9.01)"/>
  <path id="Path_539" data-name="Path 539" d="M36.182,38.306l-36-36L2.306.182l36,36L36.182,38.3Z" transform="translate(4.755 -0.182)" fill-rule="evenodd"/>
</svg>
