<svg id="eye" xmlns="http://www.w3.org/2000/svg" width="48" height="33" viewBox="0 0 48 33">
  <path id="Path_540" data-name="Path 540" d="M48.1,16.725s-9-16.5-24-16.5-24,16.5-24,16.5,9,16.5,24,16.5S48.1,16.725,48.1,16.725Zm-44.481,0A39.4,39.4,0,0,0,8.6,22.854c3.861,3.867,9.141,7.371,15.5,7.371s11.637-3.5,15.5-7.371a39.4,39.4,0,0,0,4.98-6.129A39.4,39.4,0,0,0,39.6,10.6c-3.867-3.867-9.147-7.371-15.5-7.371S12.463,6.729,8.6,10.6a39.4,39.4,0,0,0-4.98,6.129Z" transform="translate(-0.1 -0.225)" fill-rule="evenodd"/>
  <path id="Path_541" data-name="Path 541" d="M10.825,3.325a7.5,7.5,0,1,0,5.3,2.2A7.5,7.5,0,0,0,10.825,3.325Zm-10.5,7.5A10.5,10.5,0,1,1,3.4,18.249,10.5,10.5,0,0,1,.325,10.825Z" transform="translate(13.174 5.674)" fill-rule="evenodd"/>
</svg>
