<svg xmlns="http://www.w3.org/2000/svg" width="35.001" height="34.999" viewBox="0 0 35.001 34.999">
  <path id="Exclusion_1" data-name="Exclusion 1" d="M-10009.5-774a17.383,17.383,0,0,1-12.373-5.125A17.384,17.384,0,0,1-10027-791.5a17.384,17.384,0,0,1,5.126-12.374A17.383,17.383,0,0,1-10009.5-809a17.39,17.39,0,0,1,12.376,5.125A17.383,17.383,0,0,1-9992-791.5a17.383,17.383,0,0,1-5.126,12.374A17.39,17.39,0,0,1-10009.5-774Zm-3.5-23.924h0v13l11-6.5-11-6.5Z" transform="translate(10027 808.999)" fill="#fff"/>
</svg>
