<svg xmlns="http://www.w3.org/2000/svg" width="17.5" height="17.504" viewBox="0 0 17.5 17.504">
  <path id="globe-solid" d="M11.875,13.364C11.363,10.213,10.156,8,8.752,8S6.14,10.213,5.629,13.364ZM5.364,16.752A22.119,22.119,0,0,0,5.48,19.01H12.02a22.119,22.119,0,0,0,.116-2.259,22.12,22.12,0,0,0-.116-2.259H5.48A22.119,22.119,0,0,0,5.364,16.752Zm11.458-3.388a8.77,8.77,0,0,0-5.576-5,11.911,11.911,0,0,1,1.764,5Zm-10.569-5a8.764,8.764,0,0,0-5.572,5H4.492a11.862,11.862,0,0,1,1.761-5ZM17.2,14.493H13.152c.074.741.116,1.5.116,2.259s-.042,1.517-.116,2.259H17.2a8.676,8.676,0,0,0,.3-2.259A8.828,8.828,0,0,0,17.2,14.493ZM4.235,16.752c0-.759.042-1.517.116-2.259H.3a8.556,8.556,0,0,0,0,4.517H4.348C4.277,18.269,4.235,17.51,4.235,16.752ZM5.629,20.14C6.14,23.291,7.347,25.5,8.752,25.5s2.611-2.213,3.123-5.364Zm5.622,5a8.779,8.779,0,0,0,5.576-5H13.015A11.911,11.911,0,0,1,11.25,25.137Zm-10.569-5a8.77,8.77,0,0,0,5.576,5,11.911,11.911,0,0,1-1.764-5H.681Z" transform="translate(0 -8)" fill="#d6d6d6"/>
</svg>
