<svg xmlns="http://www.w3.org/2000/svg" width="19" height="18.572" viewBox="0 0 19 18.572">
  <g id="icon-calender" opacity="0.181">
    <path id="icon-calender-2" data-name="icon-calender" d="M0,16.7a1.869,1.869,0,0,0,1.869,1.869H17.131A1.869,1.869,0,0,0,19,16.7V7.475H0Zm2.492-6.009a.729.729,0,0,1,.727-.727H5.641a.729.729,0,0,1,.727.727v2.422a.729.729,0,0,1-.727.727H3.218a.729.729,0,0,1-.727-.727Zm14.639-8.2H14.873V.623A.625.625,0,0,0,14.25,0H13a.625.625,0,0,0-.623.623V2.492H6.619V.623A.625.625,0,0,0,6,0H4.75a.625.625,0,0,0-.623.623V2.492H1.869A1.869,1.869,0,0,0,0,4.361V6.23H19V4.361A1.869,1.869,0,0,0,17.131,2.492Z"/>
  </g>
</svg>
